<svg width="166" height="193" viewBox="0 0 166 193" fill="none" xmlns="http://www.w3.org/2000/svg">
<g clip-path="url(#clip0_1_738)">
<rect width="166" height="193" rx="30" fill="#FFE7EA"/>
<path d="M42.1968 154.431H46.1592C48.21 154.431 49.6382 155.845 49.6382 157.903C49.6382 159.968 48.1807 161.389 46.1079 161.389H43.8374V165H42.1968V154.431ZM43.8374 155.815V160.012H45.7197C47.1479 160.012 47.9609 159.243 47.9609 157.91C47.9609 156.577 47.1479 155.815 45.7271 155.815H43.8374ZM53.769 158.43C52.6631 158.43 51.8867 159.272 51.8062 160.437H55.6587C55.6221 159.258 54.875 158.43 53.769 158.43ZM55.6514 162.737H57.1528C56.9331 164.143 55.6001 165.146 53.835 165.146C51.5718 165.146 50.2021 163.616 50.2021 161.184C50.2021 158.767 51.5938 157.156 53.769 157.156C55.9077 157.156 57.2407 158.665 57.2407 161.001V161.543H51.7988V161.638C51.7988 162.979 52.6045 163.865 53.8716 163.865C54.7725 163.865 55.439 163.411 55.6514 162.737ZM58.9326 155.471H60.522V157.295H61.9868V158.547H60.522V162.795C60.522 163.462 60.8149 163.762 61.4595 163.762C61.6206 163.762 61.877 163.748 61.9795 163.726V164.978C61.8037 165.022 61.4521 165.051 61.1006 165.051C59.5405 165.051 58.9326 164.458 58.9326 162.971V158.547H57.812V157.295H58.9326V155.471ZM73.4126 165L72.4458 162.144H68.4175L67.4507 165H65.7441L69.5601 154.431H71.3325L75.1484 165H73.4126ZM70.4097 156.189L68.835 160.825H72.0283L70.4536 156.189H70.4097ZM78.8105 165.132C76.8623 165.132 75.5732 163.579 75.5732 161.147C75.5732 158.716 76.8623 157.17 78.7959 157.17C79.9019 157.17 80.7808 157.727 81.2129 158.577H81.2422V154.431H82.8315V165H81.2935V163.689H81.2642C80.8101 164.568 79.9312 165.132 78.8105 165.132ZM79.228 158.503C77.9756 158.503 77.1919 159.529 77.1919 161.147C77.1919 162.773 77.9756 163.792 79.228 163.792C80.4438 163.792 81.2568 162.759 81.2568 161.147C81.2568 159.551 80.4438 158.503 79.228 158.503ZM87.7681 165.146C85.5635 165.146 84.1133 163.63 84.1133 161.147C84.1133 158.672 85.5708 157.156 87.7681 157.156C89.9653 157.156 91.4229 158.672 91.4229 161.147C91.4229 163.63 89.9727 165.146 87.7681 165.146ZM87.7681 163.843C89.0132 163.843 89.8115 162.861 89.8115 161.147C89.8115 159.441 89.0059 158.459 87.7681 158.459C86.5303 158.459 85.7246 159.441 85.7246 161.147C85.7246 162.861 86.5303 163.843 87.7681 163.843ZM96.6597 157.17C98.6152 157.17 99.9043 158.708 99.9043 161.147C99.9043 163.586 98.6226 165.132 96.689 165.132C95.583 165.132 94.7041 164.59 94.2646 163.733H94.228V167.549H92.646V157.295H94.1768V158.621H94.2061C94.6602 157.734 95.5464 157.17 96.6597 157.17ZM96.2422 163.792C97.4946 163.792 98.2783 162.766 98.2783 161.147C98.2783 159.536 97.4946 158.503 96.2422 158.503C95.0337 158.503 94.2207 159.558 94.2207 161.147C94.2207 162.751 95.0264 163.792 96.2422 163.792ZM101.589 155.471H103.178V157.295H104.643V158.547H103.178V162.795C103.178 163.462 103.471 163.762 104.116 163.762C104.277 163.762 104.533 163.748 104.636 163.726V164.978C104.46 165.022 104.108 165.051 103.757 165.051C102.197 165.051 101.589 164.458 101.589 162.971V158.547H100.468V157.295H101.589V155.471ZM105.998 165V157.295H107.58V165H105.998ZM106.789 156.167C106.284 156.167 105.874 155.764 105.874 155.266C105.874 154.761 106.284 154.358 106.789 154.358C107.302 154.358 107.712 154.761 107.712 155.266C107.712 155.764 107.302 156.167 106.789 156.167ZM112.509 165.146C110.305 165.146 108.854 163.63 108.854 161.147C108.854 158.672 110.312 157.156 112.509 157.156C114.707 157.156 116.164 158.672 116.164 161.147C116.164 163.63 114.714 165.146 112.509 165.146ZM112.509 163.843C113.754 163.843 114.553 162.861 114.553 161.147C114.553 159.441 113.747 158.459 112.509 158.459C111.271 158.459 110.466 159.441 110.466 161.147C110.466 162.861 111.271 163.843 112.509 163.843ZM117.387 165V157.295H118.896V158.584H118.933C119.35 157.705 120.17 157.163 121.357 157.163C123.056 157.163 124.03 158.247 124.03 160.012V165H122.441V160.32C122.441 159.163 121.899 158.525 120.8 158.525C119.687 158.525 118.969 159.316 118.969 160.51V165H117.387Z" fill="black"/>
<circle cx="19.5" cy="21.5" r="42.5" fill="#FFCBCB"/>
<circle cx="165.5" cy="191.5" r="44.5" fill="#FFCBCB"/>
<path d="M115.409 125.077C115.409 127.796 89.5741 130 57.7047 130C25.8353 130 0 127.795 0 125.077C0 122.357 25.8353 120.153 57.7047 120.153C89.5741 120.153 115.409 122.358 115.409 125.077Z" fill="#A5D4D6"/>
<path d="M31.3877 95.6378C34.6714 95.721 37.7503 95.759 38.2427 98.918C38.7351 102.077 38.8808 103.657 37.5401 103.657C36.1991 103.657 34.7457 101.079 34.7457 101.079C34.7457 101.079 32.4709 100.79 31.3877 100.66V95.6378Z" fill="#ED983B"/>
<path d="M20.7746 108.113C22.6571 105.452 22.6231 100.025 21.3406 94.0073C20.7882 91.4163 19.9978 89.8038 19.2763 88.8057C19.2595 88.8043 19.243 88.8033 19.2259 88.802C19.2122 88.801 19.1989 88.8 19.1856 88.799C19.1096 88.793 19.0329 88.786 18.9555 88.7784C18.9534 88.7777 18.9516 88.7767 18.9495 88.776C18.4246 88.3811 18.1377 87.7802 17.3308 87.2321C17.1553 87.1129 16.754 86.8209 16.5442 86.6848C16.5442 86.6848 15.815 87.6333 15.5849 88.0712C15.0221 89.1416 14.7142 89.8395 14.5104 90.3515C14.2418 91.0264 12.9901 96.0343 14.8333 99.6921C15.2942 100.607 16.0458 101.141 16.0262 101.685C15.9775 103.017 17.0026 104.011 14.2162 108.778C13.0506 110.772 11.8276 112.688 11.282 114.527C10.5237 117.083 11.0771 119.49 14.9373 121.747C14.9373 121.747 18.731 122.554 23.0041 122.541C22.7562 121.559 22.705 120.259 23.035 118.532C24.2632 112.103 18.8918 110.773 20.7746 108.113Z" fill="#ED983B"/>
<path d="M33.1492 108.474C34.9105 112.145 36.6385 117.393 31.8975 120.528C31.4296 120.837 30.9172 121.099 30.3754 121.326C33.581 121.571 34.9651 120.084 34.9651 120.084C34.9651 120.084 37.3138 118.2 38.19 114.542C39.0656 110.884 33.1492 108.474 33.1492 108.474Z" fill="#ED983B"/>
<path d="M33.1496 108.474C32.8554 107.861 32.5602 107.291 32.2944 106.783C30.435 103.236 32.9721 99.6769 32.1847 96.4626C31.3978 93.2479 30.448 91.0282 30.448 91.0282L29.5072 89.5835C28.8793 90.0393 29.8393 88.8736 28.8604 89.127C28.535 89.2113 28.1876 89.2948 27.8114 89.3844C25.0131 90.0493 21.3403 88.8024 21.3403 88.8024C21.3403 88.8024 21.3357 88.8027 21.3291 88.8034C21.3277 88.8034 21.3245 88.8037 21.3228 88.8041C21.3154 88.8047 21.3059 88.8054 21.294 88.8064C21.2905 88.8067 21.2856 88.8071 21.2818 88.8074C21.2695 88.8084 21.2552 88.8094 21.2394 88.8107C21.2327 88.811 21.2254 88.8117 21.218 88.8124C21.2009 88.8137 21.1823 88.8147 21.162 88.8161C21.1536 88.8167 21.1448 88.817 21.1361 88.8177C21.114 88.819 21.0895 88.8204 21.0643 88.822C21.0548 88.8227 21.045 88.823 21.0352 88.8237C21.0068 88.8254 20.9767 88.8267 20.9449 88.828C20.9358 88.8284 20.927 88.829 20.9179 88.8294C20.8794 88.831 20.8387 88.8327 20.796 88.834C20.7918 88.834 20.7883 88.8344 20.7841 88.8344C20.6384 88.8394 20.4689 88.8427 20.2805 88.8427C20.2742 88.8427 20.2675 88.8427 20.2612 88.8427C20.2062 88.8427 20.1498 88.8424 20.0917 88.8414C20.0794 88.8414 20.0672 88.841 20.0549 88.8407C20.002 88.8397 19.9478 88.8387 19.8928 88.8374C19.877 88.837 19.8609 88.8364 19.8448 88.836C19.7916 88.8344 19.7373 88.8324 19.6826 88.83C19.6655 88.8294 19.6483 88.8287 19.6308 88.8277C19.5751 88.825 19.5187 88.822 19.4613 88.8187C19.4441 88.8177 19.4273 88.8167 19.4102 88.8157C19.366 88.8131 19.3208 88.8097 19.2757 88.8064C19.9971 89.8046 20.7876 91.4174 21.3399 94.0081C22.6224 100.025 22.6568 105.453 20.7739 108.113C18.8911 110.774 24.2626 112.104 23.0343 118.533C22.7044 120.259 22.7552 121.559 23.0035 122.542C25.5209 122.534 28.2012 122.239 30.3751 121.327C30.9166 121.1 31.4293 120.837 31.8972 120.528C36.639 117.393 34.9109 112.145 33.1496 108.474Z" fill="#FCF5ED"/>
<path d="M23.0356 102.934C23.0356 102.934 22.6163 101.964 22.7074 100.966" stroke="url(#paint0_linear_1_738)" stroke-miterlimit="10" stroke-linecap="round"/>
<path d="M11.2822 114.528C11.0966 114.395 10.988 114.321 10.988 114.321C10.988 114.321 8.63165 112.658 7.23248 114.321C5.83332 115.984 8.53393 122.08 14.9375 121.747C11.0773 119.491 10.5239 117.084 11.2822 114.528Z" fill="#B57733"/>
<path d="M22.3739 86.4379C23.9899 87.3938 28.5152 87.7693 29.3792 87.6328C30.2432 87.4963 31.3524 86.4379 31.3524 86.4379C31.6396 86.7452 32.753 86.8817 32.753 86.8817C32.753 86.8817 33.6149 86.7005 33.5431 85.2549C33.4713 83.8089 31.1727 82.9895 31.1727 82.9895L29.1376 82.6026C29.1376 82.6026 27.365 77.087 24.4743 75.1172C24.0463 75.1003 23.5574 75.0949 23.0902 75.1222C23.0881 75.1222 23.086 75.1226 23.0835 75.1226C22.9697 75.1292 22.8576 75.1379 22.7476 75.1489C22.7434 75.1492 22.7389 75.1499 22.735 75.1502C22.6261 75.1612 22.5196 75.1745 22.417 75.1902C22.4128 75.1908 22.409 75.1915 22.4048 75.1921C22.3018 75.2081 22.2027 75.2268 22.1085 75.2481C22.106 75.2488 22.1036 75.2491 22.1015 75.2498C22.0062 75.2717 21.9155 75.2964 21.8321 75.3243C21.8475 75.322 23.3486 75.0989 24.3489 76.5935C25.3544 78.0958 27.6372 81.0091 27.4537 82.9212C27.4537 82.9212 23.9181 86.4718 18.6986 85.8802C18.6986 85.8802 16.9352 87.8905 21.2406 89.5256C21.3043 89.532 21.3674 89.5373 21.4297 89.5426C21.4409 89.5436 21.4518 89.5443 21.463 89.5449C21.5141 89.5489 21.5649 89.5526 21.615 89.5556C21.629 89.5566 21.643 89.5573 21.657 89.5579C21.704 89.5606 21.7505 89.5632 21.7961 89.5652C21.8104 89.5659 21.8244 89.5666 21.8384 89.5672C21.8836 89.5692 21.9281 89.5709 21.9719 89.5719C21.9852 89.5722 21.9981 89.5729 22.0111 89.5732C22.0563 89.5746 22.1008 89.5752 22.1442 89.5762C22.1543 89.5762 22.1645 89.5766 22.1743 89.5766C22.2219 89.5772 22.2682 89.5776 22.3133 89.5776C22.3186 89.5776 22.3239 89.5776 22.3291 89.5776C22.4836 89.5776 22.623 89.5749 22.7427 89.5706C22.7462 89.5706 22.749 89.5702 22.7525 89.5702C22.7876 89.5689 22.8212 89.5676 22.8527 89.5662C22.8604 89.5659 22.8674 89.5656 22.8748 89.5652C22.9007 89.5639 22.9259 89.5629 22.949 89.5616C22.9571 89.5613 22.9651 89.5606 22.9728 89.5603C22.9938 89.5589 23.0138 89.5579 23.032 89.5569C23.0394 89.5566 23.0467 89.5559 23.0534 89.5556C23.0702 89.5546 23.0853 89.5536 23.0993 89.5526C23.1052 89.5523 23.1115 89.5516 23.1168 89.5513C23.1301 89.5503 23.1416 89.5496 23.1518 89.5486C23.155 89.5483 23.1588 89.5479 23.162 89.5479C23.1721 89.5473 23.1798 89.5466 23.1858 89.5459C23.1872 89.5459 23.1896 89.5456 23.1907 89.5456C23.1959 89.5453 23.1998 89.5446 23.1998 89.5446C23.1998 89.5446 26.2166 90.5688 28.5148 90.0227C28.8237 89.9491 29.1092 89.8805 29.3764 89.8113C28.0077 89.3865 25.8209 88.6803 24.6003 88.1449C22.7329 87.3255 22.3739 86.4379 22.3739 86.4379Z" fill="#FCF5ED"/>
<path d="M32.7365 86.8791C32.733 86.8788 32.7302 86.8781 32.7246 86.8774H32.7239C32.712 86.8758 32.6969 86.8738 32.6784 86.8711C32.6749 86.8704 32.6717 86.8701 32.6675 86.8694H32.6668C32.6206 86.8628 32.5596 86.8531 32.4857 86.8401C32.4076 86.8265 32.3169 86.8088 32.222 86.7882C32.2136 86.7865 32.2056 86.7845 32.1972 86.7829C32.1663 86.7759 32.1355 86.7689 32.1043 86.7612H32.1036C32.0886 86.7576 32.0742 86.7542 32.0592 86.7502C32.0133 86.7386 31.9674 86.7266 31.9219 86.7133C31.9219 86.7133 31.495 88.9134 28.2249 89.4471L29.3771 89.8114C31.0981 89.3659 32.0073 88.8911 32.7533 86.8818C32.7526 86.8811 32.7463 86.8801 32.7365 86.8791Z" fill="#FCF5ED"/>
<path d="M21.2406 89.5264C16.9352 87.8913 18.6986 85.881 18.6986 85.881C23.9181 86.4726 27.4536 82.9221 27.4536 82.9221C27.6371 81.0103 25.3547 78.0966 24.3489 76.5944C23.3482 75.0997 21.8472 75.3228 21.8321 75.3252C21.6146 75.3984 21.4399 75.493 21.3323 75.6158C19.2495 75.0694 14.0059 73.0211 14.0059 73.0211C12.4936 74.8847 15.3483 78.5741 16.6792 80.1096C16.626 80.1829 16.5731 80.2518 16.5198 80.3277L14.0059 85.8587C14.0059 85.8587 17.31 87.7705 18.8184 88.795C19.5329 89.2801 20.5534 89.4742 21.4297 89.5438C21.3674 89.5384 21.3043 89.5328 21.2406 89.5264Z" fill="#ED983B"/>
<path d="M20.0355 76.7009C17.9188 75.9394 14.9628 74.1358 14.9628 74.1358C13.9297 75.4093 15.7536 77.9707 17.1006 79.5532C18.3643 77.9651 19.1806 77.3648 20.0355 76.7009Z" fill="url(#paint1_linear_1_738)"/>
<path d="M30.5978 78.5515C30.6689 78.659 30.7323 78.7692 30.7915 78.8811L30.7922 78.8808C31.4892 78.1629 31.7711 76.4119 31.867 74.1359C31.9627 71.8599 30.4784 71.7686 30.4784 71.7686C27.9406 74.4089 25.7139 75.2057 25.7139 75.2057C25.7139 75.2057 29.3766 76.7079 30.5978 78.5515Z" fill="#ED983B"/>
<path d="M30.5969 78.552C30.668 78.6596 30.7314 78.7698 30.7906 78.8817L30.7913 78.8813C31.4883 78.1635 31.7702 76.4125 31.8662 74.1365C31.8886 73.6057 31.8227 73.1975 31.7121 72.8779C31.3321 72.482 30.909 72.4507 30.909 72.4507C29.2601 74.281 27.7471 75.2775 26.8863 75.7536C28.0676 76.3519 29.8226 77.3831 30.5969 78.552Z" fill="url(#paint2_linear_1_738)"/>
<path d="M21.6146 89.557C21.5645 89.554 21.5137 89.5503 21.4626 89.5463" stroke="url(#paint3_linear_1_738)" stroke-width="0.8214" stroke-miterlimit="10" stroke-linecap="round"/>
<path d="M21.7958 89.5655C21.7499 89.5635 21.7037 89.5609 21.6567 89.5582" stroke="url(#paint4_linear_1_738)" stroke-width="0.8214" stroke-miterlimit="10" stroke-linecap="round"/>
<path d="M23.0314 89.5582C23.0132 89.5592 22.9933 89.5605 22.9723 89.5616C22.9936 89.5605 23.0132 89.5595 23.0314 89.5582Z" stroke="url(#paint5_linear_1_738)" stroke-width="0.8214" stroke-miterlimit="10" stroke-linecap="round"/>
<path d="M22.8527 89.5677C22.8212 89.569 22.7876 89.5704 22.7526 89.5717C22.788 89.5704 22.8212 89.569 22.8527 89.5677Z" stroke="url(#paint6_linear_1_738)" stroke-width="0.8214" stroke-miterlimit="10" stroke-linecap="round"/>
<path d="M22.9482 89.5629C22.9251 89.5643 22.8999 89.5653 22.874 89.5666C22.9002 89.5653 22.9251 89.564 22.9482 89.5629Z" stroke="url(#paint7_linear_1_738)" stroke-width="0.8214" stroke-miterlimit="10" stroke-linecap="round"/>
<path d="M22.7427 89.5724C22.6229 89.5764 22.4836 89.5794 22.3291 89.5794C22.4836 89.5791 22.6229 89.5764 22.7427 89.5724Z" stroke="url(#paint8_linear_1_738)" stroke-width="0.8214" stroke-miterlimit="10" stroke-linecap="round"/>
<path d="M23.099 89.5534C23.0852 89.5544 23.0699 89.5554 23.0536 89.5564C23.0703 89.5554 23.0852 89.5544 23.099 89.5534Z" stroke="url(#paint9_linear_1_738)" stroke-width="0.8214" stroke-miterlimit="10" stroke-linecap="round"/>
<path d="M22.314 89.5782C22.2688 89.5782 22.2225 89.5779 22.1749 89.5772" stroke="url(#paint10_linear_1_738)" stroke-width="0.8214" stroke-miterlimit="10" stroke-linecap="round"/>
<path d="M22.1442 89.5778C22.1007 89.5772 22.0563 89.5762 22.0111 89.5748C22.0563 89.5762 22.1004 89.5772 22.1442 89.5778Z" stroke="url(#paint11_linear_1_738)" stroke-width="0.8214" stroke-miterlimit="10" stroke-linecap="round"/>
<path d="M21.971 89.5724C21.9272 89.571 21.8827 89.5694 21.8376 89.5677" stroke="url(#paint12_linear_1_738)" stroke-width="0.8214" stroke-miterlimit="10" stroke-linecap="round"/>
<path d="M24.4741 75.1173C27.3649 77.0871 29.1374 82.6027 29.1374 82.6027L31.1726 82.9896C31.1726 82.9896 31.7445 80.6889 30.7915 78.881C30.7327 78.7691 30.669 78.6586 30.5979 78.5514C29.377 76.7078 25.7136 75.2056 25.7136 75.2056C25.7136 75.2056 24.3253 75.0507 23.09 75.1226C23.5572 75.095 24.0461 75.1 24.4741 75.1173Z" fill="#ED983B"/>
<path d="M23.2002 89.5463C23.2002 89.5463 23.1962 89.5466 23.1907 89.5473C23.1969 89.5466 23.2002 89.5463 23.2002 89.5463Z" stroke="url(#paint13_linear_1_738)" stroke-width="0.8214" stroke-miterlimit="10" stroke-linecap="round"/>
<path d="M23.1851 89.5463C23.1792 89.5466 23.1716 89.5473 23.1616 89.5484" stroke="url(#paint14_linear_1_738)" stroke-width="0.8214" stroke-miterlimit="10" stroke-linecap="round"/>
<path d="M23.1525 89.5487C23.1421 89.5493 23.1303 89.5503 23.1167 89.5513C23.1306 89.5503 23.1421 89.5497 23.1525 89.5487Z" stroke="url(#paint15_linear_1_738)" stroke-width="0.8214" stroke-miterlimit="10" stroke-linecap="round"/>
<path d="M23.1914 89.5463C23.1902 89.5463 23.1875 89.5473 23.1859 89.5473C23.1879 89.5463 23.1898 89.5463 23.1914 89.5463Z" stroke="url(#paint16_linear_1_738)" stroke-width="0.8214" stroke-miterlimit="10" stroke-linecap="round"/>
<path d="M23.0538 89.5558C23.0466 89.5562 23.0394 89.5568 23.0318 89.5572C23.0394 89.5568 23.0466 89.5565 23.0538 89.5558Z" stroke="url(#paint17_linear_1_738)" stroke-width="0.8214" stroke-miterlimit="10" stroke-linecap="round"/>
<path d="M23.117 89.5511C23.1115 89.5514 23.1056 89.5521 23.0997 89.5524" stroke="url(#paint18_linear_1_738)" stroke-width="0.8214" stroke-miterlimit="10" stroke-linecap="round"/>
<path d="M22.8748 89.5653C22.8673 89.5657 22.8597 89.566 22.8521 89.5663C22.8601 89.566 22.8673 89.5657 22.8748 89.5653Z" stroke="url(#paint19_linear_1_738)" stroke-width="0.8214" stroke-miterlimit="10" stroke-linecap="round"/>
<path d="M22.9715 89.5606C22.9639 89.5609 22.956 89.5616 22.948 89.5619C22.9563 89.5612 22.9639 89.5609 22.9715 89.5606Z" stroke="url(#paint20_linear_1_738)" stroke-width="0.8214" stroke-miterlimit="10" stroke-linecap="round"/>
<path d="M23.1613 89.5487C23.1584 89.5496 23.154 89.5506 23.1507 89.5506C23.1543 89.5496 23.158 89.5496 23.1613 89.5487Z" stroke="url(#paint21_linear_1_738)" stroke-width="0.8214" stroke-miterlimit="10" stroke-linecap="round"/>
<path d="M22.7532 89.5724C22.7495 89.5724 22.7466 89.5734 22.743 89.5734C22.7466 89.5734 22.7499 89.5734 22.7532 89.5724Z" stroke="url(#paint22_linear_1_738)" stroke-width="0.8214" stroke-miterlimit="10" stroke-linecap="round"/>
<path d="M21.837 89.5673C21.8232 89.5667 21.809 89.566 21.7951 89.5653C21.8093 89.566 21.8232 89.5667 21.837 89.5673Z" stroke="url(#paint23_linear_1_738)" stroke-width="0.8214" stroke-miterlimit="10" stroke-linecap="round"/>
<path d="M22.33 89.5772C22.3244 89.5772 22.3188 89.5772 22.3133 89.5772" stroke="url(#paint24_linear_1_738)" stroke-width="0.8214" stroke-miterlimit="10" stroke-linecap="round"/>
<path d="M21.4637 89.5463C21.4523 89.5453 21.4412 89.5446 21.4297 89.5439" stroke="url(#paint25_linear_1_738)" stroke-width="0.8214" stroke-miterlimit="10" stroke-linecap="round"/>
<path d="M22.1763 89.5781C22.1656 89.5781 22.1549 89.5772 22.1446 89.5772C22.1553 89.5772 22.1656 89.5772 22.1763 89.5781Z" stroke="url(#paint26_linear_1_738)" stroke-width="0.8214" stroke-miterlimit="10" stroke-linecap="round"/>
<path d="M22.0099 89.5738C21.997 89.5734 21.9839 89.5731 21.971 89.5724C21.9842 89.5728 21.997 89.5734 22.0099 89.5738Z" stroke="url(#paint27_linear_1_738)" stroke-width="0.8214" stroke-miterlimit="10" stroke-linecap="round"/>
<path d="M21.6558 89.5581C21.642 89.5575 21.6281 89.5565 21.6142 89.5558" stroke="url(#paint28_linear_1_738)" stroke-width="0.8214" stroke-miterlimit="10" stroke-linecap="round"/>
<path d="M31.9219 86.7129C31.6841 86.644 31.4603 86.5528 31.3524 86.4376C31.3524 86.4376 30.2436 87.496 29.3792 87.6325C28.5152 87.769 23.9899 87.3935 22.374 86.4376C22.374 86.4376 22.7329 87.3252 24.6007 88.1446C25.5162 88.5462 26.9753 89.0439 28.2249 89.4468C31.4953 88.9131 31.9219 86.7129 31.9219 86.7129Z" fill="url(#paint29_linear_1_738)"/>
<path d="M29.7044 81.4255C29.6665 81.05 29.8518 80.726 30.1183 80.7017C30.3849 80.6774 30.6318 80.9621 30.6696 81.3373" stroke="#0D1333" stroke-width="0.8214" stroke-miterlimit="10" stroke-linecap="round" stroke-linejoin="round"/>
<path d="M23.0778 83.2967C23.0228 82.7523 23.2918 82.2825 23.6781 82.2472C24.0647 82.2119 24.4223 82.6248 24.4773 83.1691" stroke="#0D1333" stroke-width="0.8214" stroke-miterlimit="10" stroke-linecap="round" stroke-linejoin="round"/>
<path d="M22.0052 81.3571C21.9974 81.1154 22.0861 80.9226 22.2205 80.7482C22.3578 80.5787 22.554 80.4429 22.7806 80.3676C23.0051 80.2904 23.2607 80.278 23.4852 80.3423C23.7118 80.4009 23.9055 80.5304 24.0326 80.7202C24.0852 80.7991 24.0606 80.9033 23.978 80.9533C23.9696 80.9583 23.9612 80.9626 23.9524 80.9659L23.929 80.9752C23.722 81.0578 23.5731 81.0911 23.4446 81.1427L23.1077 81.2579L22.7483 81.3681C22.61 81.4064 22.4534 81.461 22.2507 81.4993L22.2048 81.508C22.1144 81.5253 22.0262 81.4693 22.0083 81.3834C22.0066 81.3748 22.0055 81.3655 22.0052 81.3571Z" fill="url(#paint30_linear_1_738)"/>
<path d="M28.9355 79.6085C28.9176 79.4144 28.9806 79.2609 29.0822 79.1214C29.1859 78.9862 29.3386 78.8776 29.5165 78.8184C29.873 78.6935 30.3101 78.8031 30.4866 79.121C30.529 79.1976 30.4982 79.2922 30.4176 79.3325L30.4166 79.3331L30.3966 79.3428C30.2359 79.4207 30.1259 79.455 30.0345 79.5003C29.9434 79.5362 29.8758 79.5692 29.8009 79.5925C29.7266 79.6165 29.6447 79.6358 29.541 79.6601C29.4363 79.6814 29.3141 79.7147 29.1491 79.732L29.1008 79.737C29.0188 79.7456 28.9449 79.6894 28.9358 79.6115C28.9358 79.6108 28.9355 79.6095 28.9355 79.6085Z" fill="url(#paint31_linear_1_738)"/>
<path d="M29.9349 83.9803L30.5051 83.8338C30.9751 83.7133 31.4689 83.706 31.9424 83.8125L32.1308 83.8548C32.1308 83.8548 32.2317 84.6968 31.3435 85.1293C31.3435 85.1293 30.1811 84.9249 29.9349 83.9803Z" fill="url(#paint32_linear_1_738)"/>
<path d="M31.3427 85.1304L31.3519 86.4392" stroke="url(#paint33_linear_1_738)" stroke-width="0.8214" stroke-miterlimit="10" stroke-linecap="round"/>
<path d="M33.2704 89.513C32.9811 89.0315 32.6323 88.6403 32.018 88.316C30.8784 87.7144 29.379 87.6328 29.379 87.6328C28.6905 87.7417 25.6782 87.5249 23.6647 86.9486C23.5551 87.9031 28.4071 89.0665 29.9345 89.6548C31.4618 90.2431 32.1315 91.6605 32.4747 91.6455C33.5016 91.6002 34.1386 90.9576 33.2704 89.513Z" fill="#FF7694"/>
<path d="M30.6735 87.8336C29.9601 87.6644 29.379 87.6328 29.379 87.6328C28.6905 87.7417 25.6782 87.5249 23.6647 86.9486C23.6143 87.3874 24.6121 87.8698 25.8529 88.3207C27.2167 88.4638 29.3752 88.5417 30.6735 87.8336Z" fill="#FF5278"/>
<path d="M4.10411 103.987V123.663H43.8039V103.987H4.81017H4.10411Z" fill="#D09460"/>
<path d="M3.58945 100.679L1.91956 108.689L46.0757 109.559L44.7266 100.679H3.58945Z" fill="#E1AB7D"/>
<path d="M7.93311 112.917L8.65108 118.847L40.2126 117.508L40.4052 111.747L7.93311 112.917Z" fill="#FCF5ED"/>
<path d="M11.5555 116.612L11.1863 116.624L12.158 113.682L12.5214 113.67L13.685 116.542L13.3159 116.554L12.3662 114.135L12.3435 114.136L11.5555 116.612ZM11.6543 115.472L13.1421 115.423L13.1524 115.735L11.6646 115.784L11.6543 115.472ZM14.9173 116.547C14.7356 116.553 14.5737 116.512 14.4315 116.425C14.2893 116.337 14.1762 116.21 14.0921 116.044C14.0079 115.877 13.962 115.678 13.9544 115.447C13.9469 115.218 13.9796 115.018 14.0526 114.847C14.1256 114.676 14.2306 114.542 14.3676 114.446C14.5047 114.349 14.665 114.298 14.8486 114.292C14.9906 114.287 15.1035 114.307 15.1874 114.352C15.2722 114.396 15.3374 114.447 15.3829 114.505C15.4293 114.562 15.4655 114.609 15.4913 114.646L15.5197 114.645L15.4843 113.572L15.8193 113.561L15.9153 116.468L15.5916 116.479L15.5806 116.144L15.5408 116.145C15.5175 116.186 15.4841 116.237 15.4407 116.299C15.3972 116.36 15.3342 116.416 15.2515 116.466C15.1688 116.515 15.0574 116.542 14.9173 116.547ZM14.9528 116.244C15.0872 116.24 15.1997 116.201 15.2901 116.128C15.3805 116.054 15.4478 115.954 15.4919 115.827C15.536 115.7 15.5554 115.554 15.5499 115.389C15.5446 115.226 15.5162 115.085 15.4649 114.964C15.4135 114.842 15.3403 114.749 15.2453 114.684C15.1502 114.618 15.0346 114.587 14.8983 114.592C14.7563 114.597 14.6392 114.637 14.547 114.713C14.4557 114.788 14.3884 114.888 14.3452 115.014C14.3028 115.138 14.2842 115.277 14.2893 115.431C14.2944 115.586 14.3227 115.726 14.3742 115.851C14.4266 115.976 14.5009 116.074 14.5971 116.145C14.6942 116.216 14.8128 116.249 14.9528 116.244ZM17.4628 116.463C17.266 116.469 17.0917 116.428 16.94 116.339C16.7893 116.251 16.6695 116.123 16.5806 115.958C16.4927 115.792 16.4451 115.596 16.4376 115.371C16.4301 115.144 16.4648 114.944 16.5415 114.772C16.6192 114.6 16.7303 114.465 16.8749 114.366C17.0204 114.267 17.1916 114.215 17.3884 114.208C17.5853 114.202 17.7591 114.243 17.9098 114.332C18.0615 114.421 18.1813 114.548 18.2693 114.715C18.3581 114.882 18.4063 115.079 18.4138 115.306C18.4213 115.531 18.3861 115.729 18.3084 115.901C18.2316 116.072 18.1205 116.207 17.975 116.305C17.8304 116.404 17.6597 116.456 17.4628 116.463ZM17.4529 116.162C17.6024 116.157 17.7242 116.115 17.8182 116.035C17.9122 115.955 17.9804 115.852 18.0226 115.725C18.0649 115.599 18.0836 115.463 18.0788 115.317C18.074 115.171 18.0463 115.036 17.9958 114.912C17.9452 114.787 17.8704 114.688 17.7713 114.614C17.6722 114.539 17.5479 114.504 17.3984 114.509C17.2488 114.514 17.1271 114.557 17.0331 114.638C16.9391 114.719 16.871 114.823 16.8288 114.95C16.7866 115.078 16.7679 115.214 16.7727 115.36C16.7775 115.506 16.8051 115.64 16.8556 115.764C16.9061 115.887 16.9809 115.986 17.08 116.059C17.1791 116.132 17.3034 116.167 17.4529 116.162ZM18.9879 117.186L18.8889 114.187L19.2126 114.177L19.224 114.523L19.2638 114.522C19.2871 114.483 19.3196 114.434 19.3612 114.373C19.4037 114.312 19.4654 114.257 19.5462 114.208C19.6279 114.158 19.7398 114.131 19.8817 114.126C20.0654 114.12 20.2287 114.161 20.3718 114.248C20.5149 114.335 20.6285 114.461 20.7126 114.627C20.7968 114.793 20.8426 114.991 20.8502 115.22C20.8578 115.451 20.8251 115.652 20.7521 115.824C20.6791 115.995 20.5746 116.129 20.4385 116.227C20.3025 116.323 20.1435 116.374 19.9618 116.38C19.8217 116.385 19.7088 116.365 19.6231 116.322C19.5373 116.277 19.4707 116.226 19.4233 116.168C19.3758 116.109 19.3392 116.06 19.3132 116.021L19.2849 116.022L19.3229 117.175L18.9879 117.186ZM19.2542 115.267C19.2597 115.431 19.2886 115.576 19.341 115.7C19.3934 115.823 19.4672 115.919 19.5623 115.987C19.6573 116.054 19.7721 116.085 19.9065 116.081C20.0465 116.076 20.1622 116.035 20.2535 115.959C20.3456 115.881 20.4133 115.778 20.4565 115.651C20.5006 115.522 20.52 115.38 20.5149 115.225C20.5099 115.072 20.4816 114.934 20.4303 114.813C20.3798 114.69 20.306 114.595 20.209 114.526C20.1129 114.456 19.9939 114.424 19.8519 114.428C19.7156 114.433 19.6023 114.471 19.5118 114.543C19.4213 114.615 19.3544 114.712 19.3111 114.837C19.2678 114.961 19.2489 115.104 19.2542 115.267ZM22.2734 114.076L22.2828 114.359L21.1527 114.397L21.1434 114.113L22.2734 114.076ZM21.4555 113.58L21.7905 113.568L21.8591 115.647C21.8622 115.742 21.8783 115.812 21.9073 115.858C21.9372 115.904 21.9742 115.934 22.0183 115.949C22.0633 115.962 22.1104 115.968 22.1596 115.967C22.1965 115.965 22.2267 115.963 22.2503 115.958C22.2738 115.953 22.2926 115.948 22.3067 115.945L22.3848 116.244C22.3623 116.253 22.3309 116.262 22.2905 116.272C22.2501 116.283 22.1987 116.289 22.1362 116.292C22.0416 116.295 21.9481 116.277 21.8559 116.24C21.7647 116.202 21.6879 116.142 21.6255 116.061C21.5641 115.98 21.5313 115.876 21.5271 115.749L21.4555 113.58ZM23.9738 116.202L23.9018 114.022L24.2255 114.011L24.2367 114.352L24.2651 114.351C24.3067 114.233 24.3771 114.14 24.4762 114.072C24.5753 114.004 24.6959 113.967 24.8378 113.963C24.9817 113.958 25.1025 113.986 25.2003 114.049C25.2989 114.11 25.3771 114.198 25.4349 114.312L25.4577 114.312C25.5098 114.197 25.5906 114.105 25.7001 114.035C25.8095 113.964 25.9424 113.926 26.0985 113.921C26.2935 113.914 26.455 113.97 26.583 114.088C26.711 114.205 26.7792 114.392 26.7877 114.649L26.8358 116.108L26.5008 116.119L26.4526 114.66C26.4473 114.499 26.3995 114.385 26.3092 114.319C26.2189 114.253 26.1141 114.222 25.9949 114.226C25.8416 114.231 25.7243 114.281 25.6431 114.377C25.5619 114.471 25.5237 114.589 25.5283 114.73L25.5752 116.15L25.2344 116.161L25.1852 114.667C25.1811 114.543 25.1375 114.445 25.0546 114.372C24.9716 114.298 24.8667 114.263 24.7399 114.267C24.6528 114.27 24.5722 114.296 24.498 114.345C24.4248 114.394 24.3663 114.46 24.3226 114.544C24.2799 114.627 24.2603 114.722 24.2638 114.828L24.3088 116.191L23.9738 116.202ZM28.3642 116.103C28.1541 116.11 27.9713 116.07 27.8159 115.982C27.6614 115.893 27.5402 115.766 27.4523 115.602C27.3653 115.436 27.3182 115.241 27.3108 115.018C27.3034 114.795 27.3376 114.596 27.4134 114.423C27.4901 114.249 27.6002 114.112 27.7437 114.012C27.8882 113.91 28.0589 113.856 28.2557 113.85C28.3693 113.846 28.4821 113.861 28.5941 113.895C28.7061 113.93 28.8089 113.988 28.9026 114.07C28.9962 114.151 29.0723 114.26 29.1308 114.398C29.1894 114.535 29.222 114.706 29.2287 114.909L29.2334 115.051L27.5525 115.107L27.5429 114.817L28.8831 114.773C28.879 114.65 28.8508 114.541 28.7984 114.446C28.747 114.351 28.6754 114.277 28.5836 114.224C28.4928 114.171 28.3868 114.147 28.2657 114.151C28.1322 114.155 28.0178 114.192 27.9225 114.261C27.8282 114.33 27.7567 114.418 27.7081 114.524C27.6595 114.631 27.6372 114.745 27.6412 114.865L27.6475 115.058C27.653 115.223 27.686 115.361 27.7465 115.474C27.808 115.586 27.8908 115.67 27.995 115.726C28.0992 115.781 28.2189 115.807 28.3543 115.802C28.4423 115.799 28.5214 115.784 28.5916 115.757C28.6627 115.729 28.7234 115.689 28.7738 115.638C28.8242 115.585 28.8623 115.52 28.8882 115.443L29.2149 115.524C29.1844 115.634 29.1304 115.733 29.0527 115.819C28.9749 115.904 28.8777 115.971 28.7609 116.022C28.6441 116.071 28.5119 116.098 28.3642 116.103ZM30.1223 113.089L30.1629 115.18L29.8335 115.19L29.7361 113.102L30.1223 113.089ZM30.0259 116.025C29.9559 116.028 29.8949 116.005 29.8431 115.956C29.7913 115.908 29.7642 115.848 29.7619 115.778C29.7596 115.708 29.7827 115.647 29.8312 115.596C29.8797 115.544 29.939 115.517 30.009 115.514C30.0791 115.512 30.14 115.535 30.1918 115.584C30.2436 115.632 30.2707 115.691 30.273 115.761C30.2745 115.808 30.2641 115.851 30.2417 115.89C30.2203 115.93 30.1906 115.962 30.1526 115.987C30.1154 116.011 30.0732 116.024 30.0259 116.025Z" fill="#10161E"/>
<path d="M15.3362 100.203C15.3362 100.203 15.9183 102.096 22.0455 102.883L22.6276 97.6985L20.5445 97.4654L17.3889 97.844L15.3362 100.203Z" fill="#ED983B"/>
<path d="M25.8289 105.513C27.1699 105.513 27.0239 103.933 26.5315 100.774C26.0671 97.7951 25.2825 97.7238 22.4415 97.6556C21.9021 98.0022 21.195 98.705 21.2283 99.9979C21.2497 100.83 21.4889 101.88 21.768 102.84C22.5252 102.915 23.0344 102.935 23.0344 102.935C23.0344 102.935 24.4879 105.513 25.8289 105.513Z" fill="#FCF5ED"/>
<path d="M19.3192 94.4827C19.6379 95.8128 18.6211 97.5585 21.9052 97.6417C25.189 97.725 26.0407 97.6141 26.5332 100.773C27.0256 103.932 27.1716 105.512 25.8306 105.512C24.4896 105.512 23.0361 102.935 23.0361 102.935C23.0361 102.935 16.5075 102.671 15.426 100.59" stroke="url(#paint34_linear_1_738)" stroke-miterlimit="10" stroke-linecap="round"/>
<path d="M34.747 101.078C34.747 101.078 34.3278 100.108 34.4189 99.1101" stroke="url(#paint35_linear_1_738)" stroke-miterlimit="10" stroke-linecap="round"/>
<path d="M38.5927 101.806C38.5836 101.559 38.5626 101.287 38.5314 100.991C38.4694 100.399 38.3679 99.7078 38.2449 98.918C38.2278 98.8088 38.2092 98.7116 38.1914 98.61C37.7189 96.1336 36.5162 95.8998 34.1151 95.8279C33.5813 96.1832 32.9092 96.88 32.9414 98.1422C32.9628 98.9746 32.8879 99.7397 33.167 100.7C33.9238 100.775 34.7476 101.08 34.7476 101.08C34.7476 101.08 35.0256 101.573 35.4512 102.128C35.7548 102.524 36.1338 102.952 36.5397 103.254C36.7022 103.375 36.8689 103.475 37.037 103.546C37.2051 103.617 37.3746 103.657 37.542 103.657C38.3805 103.657 38.6376 103.04 38.5927 101.806Z" fill="#FCF5ED"/>
<path d="M34.747 101.078C34.747 101.078 34.3278 100.108 34.4189 99.1101" stroke="url(#paint36_linear_1_738)" stroke-miterlimit="10" stroke-linecap="round"/>
<path d="M95.5935 37.1674C95.0538 32.619 89.7216 31.6192 89.7142 31.5882C89.0712 28.3752 84.7084 28.6452 81.8632 29.7766L83.3114 30.7185C83.3114 30.7185 76.4514 30.4285 75.613 34.7039C75.0488 37.5813 75.911 37.0868 75.621 39.4375C75.2551 42.4041 76.6094 45.6263 78.8607 45.6263C78.8565 45.613 78.8537 45.598 78.8494 45.5847C77.8534 42.3478 78.7584 37.2903 79.0148 36.5741C81.0093 37.9462 85.3921 36.7599 87.2332 35.9438C87.2395 36.8478 88.2965 39.1485 89.8256 40.8325L90.3131 44.5329L90.5877 46.6175C95.1631 45.8118 95.9511 40.1796 95.5935 37.1674Z" fill="url(#paint37_linear_1_738)"/>
<path d="M80.2385 43.7748C80.2458 45.0477 79.1664 46.0851 77.8272 46.0921C76.4882 46.0991 75.3969 45.0726 75.3896 43.7998C75.3822 42.5269 76.462 41.4894 77.8009 41.4824C79.1398 41.4754 80.2311 42.5019 80.2385 43.7748Z" fill="#FECEAA"/>
<path d="M77.2258 42.4045C77.2258 42.4045 76.2298 43.5179 77.3323 44.5061" stroke="#0D1333" stroke-miterlimit="10" stroke-linecap="round" stroke-linejoin="round"/>
<path d="M87.439 119.852C89.0535 120.089 89.4518 120.045 96.8829 119.135C104.314 118.226 112.242 122.223 113.338 120.715C114.433 119.206 110.047 117.213 107.305 115.811C104.562 114.41 103.781 111.521 101.577 110.971C99.3741 110.422 98.6393 112.504 87.439 112.86V119.852Z" fill="#FECEAA"/>
<path d="M55.999 106.942C55.8652 108.053 57.9333 115.186 55.6512 116.485C53.1863 117.888 45.67 118.509 46.0658 120.776C46.3312 122.298 47.4369 122.988 52.614 122.158C59.7776 121.011 61.9122 122.29 63.449 121.732C65.8533 120.858 65.079 118.515 64.2101 114.609C63.5366 111.582 63.1836 107.838 63.0946 106.941H55.999V106.942Z" fill="#FECEAA"/>
<path d="M65.0903 123.666H42.5429C42.5429 123.666 41.9209 122.79 42.7005 122.251L65.0906 121.51C65.0906 121.51 66.5781 122.184 65.0903 123.666Z" fill="white"/>
<path d="M64.6654 116.943C64.0784 117.461 62.9297 118.277 61.5067 118.277C59.4221 118.277 57.5092 115.515 57.5092 115.515L56.8007 114.37C56.8007 114.37 55.7377 114.168 55.3129 115.515C55.3129 115.515 43.0553 120.836 42.7008 121.173C42.3464 121.51 42.7008 122.251 42.7008 122.251L65.0909 121.51V116.525C65.0909 116.525 64.9382 116.702 64.6654 116.943Z" fill="url(#paint38_linear_1_738)"/>
<path d="M55.3112 115.514C55.3112 115.514 55.3319 111.776 54.0284 112.348C52.7252 112.921 55.3112 115.514 55.3112 115.514Z" stroke="white" stroke-miterlimit="10" stroke-linecap="round" stroke-linejoin="round"/>
<path d="M55.3116 115.515C55.3116 115.515 52.4422 113.472 51.8398 114.359C51.2374 115.245 55.3116 115.515 55.3116 115.515Z" stroke="white" stroke-miterlimit="10" stroke-linecap="round" stroke-linejoin="round"/>
<path d="M54.2184 115.992L55.6659 118.042" stroke="white" stroke-width="2" stroke-miterlimit="10" stroke-linecap="round" stroke-linejoin="round"/>
<path d="M52.3689 116.85L53.8164 118.9" stroke="white" stroke-width="2" stroke-miterlimit="10" stroke-linecap="round" stroke-linejoin="round"/>
<path d="M64.399 109.005C63.6922 106.285 64.1573 95.1403 63.972 93.0521C63.7528 90.5849 80.4391 100.503 85.8382 97.2406C85.8382 97.2406 83.8983 87.8764 87.4395 81.7454L83.0966 80.6154C83.0966 80.6154 59.8642 76.6073 55.6194 77.3788C51.375 78.1502 50.4861 82.0437 52.7997 93.3131C53.6498 97.4533 55.3322 108.205 55.0521 109.005C55.0521 109.005 60.8469 110.782 64.399 109.005Z" fill="#A06B44"/>
<path d="M85.838 97.2415C85.838 97.2415 83.8981 87.8773 87.4393 81.7463L83.0964 80.6163C83.0964 80.6163 75.9339 79.3807 68.8365 78.4139C70.1261 82.2231 73.2396 91.7781 73.4543 95.8001C78.1316 97.4209 83.2992 98.7754 85.838 97.2415Z" fill="url(#paint39_linear_1_738)"/>
<path d="M92.324 119.735C83.2703 121.355 69.0321 123.266 67.6921 123.069C66.0775 122.833 63.0386 121.36 63.9849 117.206C64.4609 115.117 69.7711 106.146 73.0944 102.063C76.4177 97.9803 81.4239 91.5424 82.8048 88.9424C84.1858 86.3421 84.0881 82.8707 86.3173 81.456C86.3173 81.456 98.1525 85.0359 100.778 85.0189C100.778 85.0189 99.4922 87.3709 99.3493 89.3173C99.2102 91.2138 101.718 97.4749 90.5249 105.226C87.7991 107.114 82.6994 111.606 84.3357 112.109C85.3664 112.425 88.7881 112.387 91.5994 112.284C92.7461 114.469 93.0388 116.97 92.4256 119.342L92.324 119.735Z" fill="#A06B44"/>
<path d="M98.8016 89.3205C98.8016 89.3205 97.8973 96.2109 90.6956 102.262C84.88 107.148 80.077 111.757 81.1785 112.889C82.9678 114.728 92.1003 113.404 92.1003 113.404" stroke="#0D1333" stroke-miterlimit="10"/>
<path d="M92.6639 87.7875C93.9159 88.3845 97.3366 88.7012 98.8013 89.3208C98.8013 89.3208 98.8822 91.1407 97.539 93.3208C97.539 93.3208 93.5881 93.5825 90.6952 92.1342C91.5862 90.6556 92.3753 88.6988 92.6639 87.7875Z" fill="#47273E"/>
<path d="M76.5625 80.3445L78.6092 79.2338C78.9983 79.5668 79.4298 79.8901 79.9796 80.3216C78.7727 81.36 77.7056 82.5999 76.9544 83.5598C76.2942 82.9958 76.221 80.7514 76.5625 80.3445Z" fill="#47273E"/>
<path d="M85.4264 84.1496C87.0536 85.1901 88.9427 86.2635 91.1698 87.3749L91.1684 87.3742C90.7054 88.6694 89.7791 90.3032 89.1444 91.354C88.0661 91.1592 84.5312 89.4142 82.6722 88.3092C80.6332 87.0972 79.447 86.2945 78.2215 84.5981C79.302 83.1798 80.5383 81.8812 81.1771 81.235C82.3213 82.0837 83.7254 83.0626 85.4264 84.1496Z" fill="#47273E"/>
<path d="M85.426 84.1504C84.5 83.5584 83.6696 83.0021 82.9138 82.478C81.6785 84.0352 80.6944 85.642 80.133 86.6286C80.8397 87.1956 81.6484 87.7013 82.6721 88.3096C83.3999 88.7421 84.3844 89.2722 85.3776 89.7696L87.8527 85.6084C86.9859 85.1156 86.1744 84.6292 85.426 84.1504Z" fill="#ED8D1B"/>
<path d="M79.9806 93.1908C79.9806 93.1908 64.42 89.4588 62.7347 91.3553C61.4059 92.8502 63.0387 109.501 63.0387 109.501" stroke="#0D1333" stroke-miterlimit="10"/>
<path d="M78.2211 63.289C80.625 57.1168 79.3145 52.8208 79.3145 52.8208C75.6647 52.6563 65.8632 66.0881 63.806 67.621C62.4604 68.6235 52.9254 75.3301 51.6888 77.0238L55.4888 83.0159C63.4862 79.4148 69.7914 74.0206 69.7914 74.0206C69.7914 74.0206 75.8171 69.4612 78.2211 63.289Z" fill="#5084D8"/>
<path d="M45.6949 79.9231C44.9681 80.311 46.5126 82.1375 47.4765 83.1637C48.4403 84.1895 49.5831 85.3595 50.2685 84.8884C50.4513 83.1037 49.1159 80.1535 45.6949 79.9231Z" fill="#47273E"/>
<path d="M52.5192 77.7698C50.1727 79.3763 47.9389 80.9671 47.9389 80.9671C47.5537 80.8296 44.6142 79.8328 42.212 80.4713C39.6364 81.1559 35.9446 85.4636 35.863 86.7727C35.7814 88.0822 37.2296 87.3251 37.9024 86.1591C38.5755 84.9931 37.8761 87.6827 39.2844 87.9164C39.5373 87.9584 39.7544 87.8731 39.9404 87.705C39.9404 87.705 40.1705 88.7538 41.2713 88.0965C41.2713 88.0965 43.0515 89.0198 43.6931 88.0932C44.3347 87.1663 42.718 87.4833 43.1737 87.0561C43.6293 86.6292 44.4156 86.5087 45.2558 86.4598C47.2241 86.3449 47.4234 85.2788 48.363 84.84C49.9247 84.1108 52.5465 82.9984 55.4446 81.678" fill="#FECEAA"/>
<path d="M55.8935 82.7861C55.4508 83.1577 51.6669 84.5724 50.2671 84.8884C50.4502 83.1037 49.1148 80.1535 45.6934 79.9231C45.6934 79.9231 48.8451 78.1708 50.5851 77.4376C51.0449 77.2438 51.4386 77.092 51.6879 77.0244C51.6879 77.0244 52.3415 76.7354 54.6635 79.2016C57.0006 81.6837 55.8935 82.7861 55.8935 82.7861Z" fill="white"/>
<path d="M41.0205 82.6113C41.0205 82.6113 39.8473 85.2066 41.3732 85.1134C42.3066 85.0565 42.8673 82.9402 44.0696 82.017" stroke="#0D1333" stroke-miterlimit="10" stroke-linecap="round" stroke-linejoin="round"/>
<path d="M39.941 87.706C40.3563 87.3088 41.7383 86.1695 41.5555 85.6411C41.4641 85.3771 40.9111 85.0118 40.5892 85.2832C40.1732 85.6341 39.2377 86.4688 39.2377 86.4688" stroke="#0D1333" stroke-miterlimit="10" stroke-linecap="round" stroke-linejoin="round"/>
<path d="M41.2718 88.0984C41.2718 88.0984 42.8926 86.4816 42.4955 86.143C42.0983 85.8044 41.4294 86.1456 41.4294 86.1456" stroke="#0D1333" stroke-miterlimit="10" stroke-linecap="round" stroke-linejoin="round"/>
<path d="M42.0291 88.3901C42.0291 88.3901 43.4226 88.8399 43.7452 88.0129C44.0674 87.1858 43.4006 87.3347 42.5597 86.8369" stroke="#0D1333" stroke-miterlimit="10" stroke-linecap="round" stroke-linejoin="round"/>
<path d="M38.1455 85.8714C39.0179 84.7567 39.9516 84.194 39.9516 84.194" stroke="#0D1333" stroke-miterlimit="10" stroke-linecap="round" stroke-linejoin="round"/>
<path d="M88.5482 92.0137L88.5486 92.0133C88.5683 92.0232 88.5705 92.0246 88.5482 92.0137Z" fill="#47273E"/>
<path d="M76.9077 55.5904C75.5824 58.5413 75.553 69.0932 75.9179 72.7829C76.3627 77.2794 75.4871 79.8328 80.5819 84.5846C82.7306 86.5887 96.4147 92.5781 100.205 89.0438C103.995 85.5096 102.118 72.9294 101.185 69.6142C100.079 65.6834 99.8252 61.9321 97.1144 55.1549C95.868 52.0388 92.5341 51.3436 84.7118 51.4229C82.0644 51.4495 78.4199 52.2226 76.9077 55.5904Z" fill="#598EF6"/>
<path d="M87.2321 35.9447C85.391 36.7608 81.0082 37.9474 79.0137 36.575C78.7573 37.2912 77.8523 42.3487 78.8483 45.5856C79.3688 47.0319 80.2759 48.3291 81.792 49.1741C82.2487 49.4288 82.7208 49.591 83.1887 49.6982C86.6423 50.4909 90.0886 47.8203 90.6475 47.0749L90.3127 44.5338L89.8252 40.8334C88.2954 39.1493 87.2384 36.8487 87.2321 35.9447Z" fill="#FECEAA"/>
<path d="M83.1367 53.8316C83.2667 52.5012 83.3787 51.3535 83.1889 49.6981C86.6425 50.4908 90.0888 47.8202 90.6477 47.0748L91.3286 52.5385C91.3286 52.5385 91.2417 54.6177 87.2348 55.4814C83.1325 56.3657 83.1367 53.8316 83.1367 53.8316Z" fill="#FECEAA"/>
<path d="M83.1889 49.6981C83.3044 50.7062 83.3097 51.8 83.267 52.8018C84.892 52.7346 89.1116 52.2075 90.8529 48.6513L90.6477 47.0748C90.0887 47.8202 86.6425 50.4908 83.1889 49.6981Z" fill="#EAB48F"/>
<path d="M81.3246 38.9298C80.9271 39.2894 80.6959 39.948 80.6959 39.948" stroke="#0D1333" stroke-miterlimit="10" stroke-linecap="round" stroke-linejoin="round"/>
<path d="M86.3259 38.7587C86.7494 39.0903 87.0296 39.7316 87.0296 39.7316" stroke="#0D1333" stroke-miterlimit="10" stroke-linecap="round" stroke-linejoin="round"/>
<path d="M83.6487 46.8074C83.6487 46.8074 84.6384 47.1504 85.4516 46.3546" stroke="#0D1333" stroke-miterlimit="10" stroke-linecap="round" stroke-linejoin="round"/>
<path d="M79.6718 79.0702C79.6718 79.0702 85.7966 82.1992 88.7778 79.9199C91.7589 77.6405 94.3622 64.9268 97.129 64.4983L79.6718 79.0702Z" fill="#598EF6"/>
<path d="M89.3235 43.1788C89.7592 44.3824 91.1391 45.0223 92.4052 44.6078C93.6713 44.1936 94.3441 42.8818 93.9084 41.6782C93.4723 40.4746 92.0928 39.8346 90.8267 40.2492C89.5607 40.6637 88.8875 41.9752 89.3235 43.1788Z" fill="#FECEAA"/>
<path d="M91.3801 41.1948C91.3801 41.1948 92.7072 41.9326 92.0102 43.2115" stroke="#0D1333" stroke-miterlimit="10" stroke-linecap="round" stroke-linejoin="round"/>
<path d="M97.1282 66.0229C94.6076 64.9615 89.3251 77.5996 86.2014 79.2344C83.0777 80.8691 68.9845 75.6435 68.097 74.9766C67.2099 74.3097 68.1478 70.3063 69.4079 69.6171C70.668 68.9276 78.8988 72.0017 81.046 71.9791C83.1933 71.9564 85.0232 66.2047 86.6434 61.9646C87.9049 58.6627 92.0222 52.4086 96.9254 54.7393" fill="#598EF6"/>
<path d="M66.496 67.916C66.496 67.916 64.9855 72.0229 66.303 74.5134C66.303 74.5134 67.7068 73.7523 67.8388 71.341C67.9712 68.9295 66.496 67.916 66.496 67.916Z" fill="#47273E"/>
<path d="M70.5859 70.1995C68.7913 69.7767 67.9529 68.3367 64.5973 67.9961C62.0158 67.734 58.0025 68.042 55.394 70.0241C54.6624 70.5798 53.4793 71.5889 53.4842 72.5262C53.4842 72.5262 53.4289 73.556 56.0083 71.7771C58.5878 69.9981 59.5726 70.0544 59.5726 70.0544C59.5726 70.0544 56.4801 72.12 58.2617 73.5087C58.7541 73.8926 58.9173 73.5337 59.0634 73.7971C59.6472 74.8515 61.5122 75.6299 62.3853 75.0403C63.4847 74.2981 62.7744 73.7644 62.7744 73.7644C62.7744 73.7644 65.1489 74.142 66.2049 73.5417C67.2608 72.9414 69.5566 73.7891 69.5566 73.7891C69.5566 73.7891 72.1244 70.5618 70.5859 70.1995Z" fill="#FECEAA"/>
<path d="M59.1311 73.6532C59.1311 73.6532 59.3647 71.2533 60.8094 70.5874" stroke="#0D1333" stroke-miterlimit="10" stroke-linecap="round" stroke-linejoin="round"/>
<path d="M60.1215 74.5136C60.1215 74.5136 60.3551 72.1137 61.7998 71.4478" stroke="#0D1333" stroke-miterlimit="10" stroke-linecap="round" stroke-linejoin="round"/>
<path d="M62.7734 73.7643C62.7734 73.7643 62.6743 73.2689 61.7987 73.756" stroke="#0D1333" stroke-miterlimit="10" stroke-linecap="round" stroke-linejoin="round"/>
<path d="M97.1282 66.0239C94.6076 64.9624 89.3251 77.6005 86.2014 79.2353C83.0777 80.8701 68.9845 75.6444 68.097 74.9776C67.2099 74.3107 68.1478 70.3073 69.4079 69.6181C70.668 68.9285 78.8988 72.0027 81.046 71.98C83.1933 71.9574 85.0232 66.2057 86.6434 61.9656C87.5613 59.5633 89.9905 55.5986 93.1342 54.5138" stroke="#0D1333" stroke-width="0.5" stroke-miterlimit="10" stroke-linecap="round" stroke-linejoin="round"/>
<path d="M71.9347 76.605C71.3442 76.5917 67.5568 75.1856 66.3037 74.5134C67.7134 73.3221 68.8422 70.2949 66.4967 67.916C66.4967 67.916 70.0617 68.6658 71.8622 69.2518C72.3382 69.4066 72.7353 69.5494 72.9668 69.661C72.9668 69.661 73.6526 69.8711 73.5941 73.1806C73.5352 76.5118 71.9347 76.605 71.9347 76.605Z" fill="white"/>
<path d="M100.875 106.977L116.819 122.134C116.819 122.134 116.607 123.171 115.655 123.028L99.2718 108.501C99.2718 108.501 98.7209 107.025 100.875 106.977Z" fill="white"/>
<path d="M96.1757 112.015C96.976 112.044 98.3948 112.239 99.401 113.196C100.875 114.597 100.174 117.836 100.174 117.836L99.823 119.122C99.823 119.122 100.424 119.98 101.727 119.313C101.727 119.313 114.353 123.79 114.853 123.79C115.355 123.79 115.655 123.028 115.655 123.028L99.2718 108.5L95.5642 112.025C95.5642 112.025 95.8035 112.002 96.1757 112.015Z" fill="url(#paint40_linear_1_738)"/>
<path d="M101.727 119.314C101.727 119.314 98.931 121.944 100.279 122.415C101.626 122.887 101.727 119.314 101.727 119.314Z" stroke="white" stroke-miterlimit="10" stroke-linecap="round" stroke-linejoin="round"/>
<path d="M101.727 119.314C101.727 119.314 102.237 122.687 103.322 122.465C104.407 122.244 101.727 119.314 101.727 119.314Z" stroke="white" stroke-miterlimit="10" stroke-linecap="round" stroke-linejoin="round"/>
<path d="M102.853 119.712L103.354 117.289" stroke="white" stroke-width="2" stroke-miterlimit="10" stroke-linecap="round" stroke-linejoin="round"/>
<path d="M104.8 120.349L105.301 117.926" stroke="white" stroke-width="2" stroke-miterlimit="10" stroke-linecap="round" stroke-linejoin="round"/>
</g>
<defs>
<linearGradient id="paint0_linear_1_738" x1="23.227" y1="103.051" x2="22.5675" y2="100.825" gradientUnits="userSpaceOnUse">
<stop stop-color="#00192A"/>
<stop offset="0.2981" stop-color="#28233C"/>
<stop offset="0.5857" stop-color="#462B4A"/>
<stop offset="0.8295" stop-color="#593052"/>
<stop offset="1" stop-color="#603255"/>
</linearGradient>
<linearGradient id="paint1_linear_1_738" x1="14.6591" y1="76.8446" x2="20.0356" y2="76.8446" gradientUnits="userSpaceOnUse">
<stop stop-color="#9D5933"/>
<stop offset="0.9811" stop-color="#B57733"/>
</linearGradient>
<linearGradient id="paint2_linear_1_738" x1="26.8859" y1="75.6663" x2="31.8702" y2="75.6663" gradientUnits="userSpaceOnUse">
<stop stop-color="#9D5933"/>
<stop offset="0.9811" stop-color="#B57733"/>
</linearGradient>
<linearGradient id="paint3_linear_1_738" x1="34.4207" y1="128.833" x2="11.6725" y2="52.0008" gradientUnits="userSpaceOnUse">
<stop stop-color="#00192A"/>
<stop offset="0.2981" stop-color="#28233C"/>
<stop offset="0.5857" stop-color="#462B4A"/>
<stop offset="0.8295" stop-color="#593052"/>
<stop offset="1" stop-color="#603255"/>
</linearGradient>
<linearGradient id="paint4_linear_1_738" x1="34.5892" y1="128.757" x2="11.8686" y2="51.9652" gradientUnits="userSpaceOnUse">
<stop stop-color="#00192A"/>
<stop offset="0.2981" stop-color="#28233C"/>
<stop offset="0.5857" stop-color="#462B4A"/>
<stop offset="0.8295" stop-color="#593052"/>
<stop offset="1" stop-color="#603255"/>
</linearGradient>
<linearGradient id="paint5_linear_1_738" x1="35.7438" y1="128.883" x2="12.5017" y2="51.324" gradientUnits="userSpaceOnUse">
<stop stop-color="#00192A"/>
<stop offset="0.2981" stop-color="#28233C"/>
<stop offset="0.5857" stop-color="#462B4A"/>
<stop offset="0.8295" stop-color="#593052"/>
<stop offset="1" stop-color="#603255"/>
</linearGradient>
<linearGradient id="paint6_linear_1_738" x1="35.5629" y1="128.989" x2="12.2721" y2="51.3431" gradientUnits="userSpaceOnUse">
<stop stop-color="#00192A"/>
<stop offset="0.2981" stop-color="#28233C"/>
<stop offset="0.5857" stop-color="#462B4A"/>
<stop offset="0.8295" stop-color="#593052"/>
<stop offset="1" stop-color="#603255"/>
</linearGradient>
<linearGradient id="paint7_linear_1_738" x1="35.6623" y1="128.829" x2="12.5101" y2="51.3975" gradientUnits="userSpaceOnUse">
<stop stop-color="#00192A"/>
<stop offset="0.2981" stop-color="#28233C"/>
<stop offset="0.5857" stop-color="#462B4A"/>
<stop offset="0.8295" stop-color="#593052"/>
<stop offset="1" stop-color="#603255"/>
</linearGradient>
<linearGradient id="paint8_linear_1_738" x1="35.3195" y1="128.633" x2="12.4976" y2="51.6923" gradientUnits="userSpaceOnUse">
<stop stop-color="#00192A"/>
<stop offset="0.2981" stop-color="#28233C"/>
<stop offset="0.5857" stop-color="#462B4A"/>
<stop offset="0.8295" stop-color="#593052"/>
<stop offset="1" stop-color="#603255"/>
</linearGradient>
<linearGradient id="paint9_linear_1_738" x1="35.6893" y1="128.453" x2="12.703" y2="51.6927" gradientUnits="userSpaceOnUse">
<stop stop-color="#00192A"/>
<stop offset="0.2981" stop-color="#28233C"/>
<stop offset="0.5857" stop-color="#462B4A"/>
<stop offset="0.8295" stop-color="#593052"/>
<stop offset="1" stop-color="#603255"/>
</linearGradient>
<linearGradient id="paint10_linear_1_738" x1="35.0579" y1="128.55" x2="12.4131" y2="51.8719" gradientUnits="userSpaceOnUse">
<stop stop-color="#00192A"/>
<stop offset="0.2981" stop-color="#28233C"/>
<stop offset="0.5857" stop-color="#462B4A"/>
<stop offset="0.8295" stop-color="#593052"/>
<stop offset="1" stop-color="#603255"/>
</linearGradient>
<linearGradient id="paint11_linear_1_738" x1="34.9052" y1="128.724" x2="12.1211" y2="51.8356" gradientUnits="userSpaceOnUse">
<stop stop-color="#00192A"/>
<stop offset="0.2981" stop-color="#28233C"/>
<stop offset="0.5857" stop-color="#462B4A"/>
<stop offset="0.8295" stop-color="#593052"/>
<stop offset="1" stop-color="#603255"/>
</linearGradient>
<linearGradient id="paint12_linear_1_738" x1="34.7501" y1="128.783" x2="11.9525" y2="51.8697" gradientUnits="userSpaceOnUse">
<stop stop-color="#00192A"/>
<stop offset="0.2981" stop-color="#28233C"/>
<stop offset="0.5857" stop-color="#462B4A"/>
<stop offset="0.8295" stop-color="#593052"/>
<stop offset="1" stop-color="#603255"/>
</linearGradient>
<linearGradient id="paint13_linear_1_738" x1="36.4933" y1="130.025" x2="12.8184" y2="49.9276" gradientUnits="userSpaceOnUse">
<stop stop-color="#00192A"/>
<stop offset="0.2981" stop-color="#28233C"/>
<stop offset="0.5857" stop-color="#462B4A"/>
<stop offset="0.8295" stop-color="#593052"/>
<stop offset="1" stop-color="#603255"/>
</linearGradient>
<linearGradient id="paint14_linear_1_738" x1="35.7474" y1="129.448" x2="11.5902" y2="51.0479" gradientUnits="userSpaceOnUse">
<stop stop-color="#00192A"/>
<stop offset="0.2981" stop-color="#28233C"/>
<stop offset="0.5857" stop-color="#462B4A"/>
<stop offset="0.8295" stop-color="#593052"/>
<stop offset="1" stop-color="#603255"/>
</linearGradient>
<linearGradient id="paint15_linear_1_738" x1="36.151" y1="128.41" x2="13.7979" y2="51.3023" gradientUnits="userSpaceOnUse">
<stop stop-color="#00192A"/>
<stop offset="0.2981" stop-color="#28233C"/>
<stop offset="0.5857" stop-color="#462B4A"/>
<stop offset="0.8295" stop-color="#593052"/>
<stop offset="1" stop-color="#603255"/>
</linearGradient>
<linearGradient id="paint16_linear_1_738" x1="37.4455" y1="209.842" x2="-89.4422" y2="54.9816" gradientUnits="userSpaceOnUse">
<stop stop-color="#00192A"/>
<stop offset="0.2981" stop-color="#28233C"/>
<stop offset="0.5857" stop-color="#462B4A"/>
<stop offset="0.8295" stop-color="#593052"/>
<stop offset="1" stop-color="#603255"/>
</linearGradient>
<linearGradient id="paint17_linear_1_738" x1="36.1673" y1="129.608" x2="12.7114" y2="50.4502" gradientUnits="userSpaceOnUse">
<stop stop-color="#00192A"/>
<stop offset="0.2981" stop-color="#28233C"/>
<stop offset="0.5857" stop-color="#462B4A"/>
<stop offset="0.8295" stop-color="#593052"/>
<stop offset="1" stop-color="#603255"/>
</linearGradient>
<linearGradient id="paint18_linear_1_738" x1="35.6893" y1="129.577" x2="11.4123" y2="50.994" gradientUnits="userSpaceOnUse">
<stop stop-color="#00192A"/>
<stop offset="0.2981" stop-color="#28233C"/>
<stop offset="0.5857" stop-color="#462B4A"/>
<stop offset="0.8295" stop-color="#593052"/>
<stop offset="1" stop-color="#603255"/>
</linearGradient>
<linearGradient id="paint19_linear_1_738" x1="35.9969" y1="129.541" x2="12.6587" y2="50.5812" gradientUnits="userSpaceOnUse">
<stop stop-color="#00192A"/>
<stop offset="0.2981" stop-color="#28233C"/>
<stop offset="0.5857" stop-color="#462B4A"/>
<stop offset="0.8295" stop-color="#593052"/>
<stop offset="1" stop-color="#603255"/>
</linearGradient>
<linearGradient id="paint20_linear_1_738" x1="35.5463" y1="129.602" x2="11.2807" y2="51.0511" gradientUnits="userSpaceOnUse">
<stop stop-color="#00192A"/>
<stop offset="0.2981" stop-color="#28233C"/>
<stop offset="0.5857" stop-color="#462B4A"/>
<stop offset="0.8295" stop-color="#593052"/>
<stop offset="1" stop-color="#603255"/>
</linearGradient>
<linearGradient id="paint21_linear_1_738" x1="36.4506" y1="201.801" x2="-81.9475" y2="57.3926" gradientUnits="userSpaceOnUse">
<stop stop-color="#00192A"/>
<stop offset="0.2981" stop-color="#28233C"/>
<stop offset="0.5857" stop-color="#462B4A"/>
<stop offset="0.8295" stop-color="#593052"/>
<stop offset="1" stop-color="#603255"/>
</linearGradient>
<linearGradient id="paint22_linear_1_738" x1="36.0871" y1="202.166" x2="-82.3889" y2="57.6211" gradientUnits="userSpaceOnUse">
<stop stop-color="#00192A"/>
<stop offset="0.2981" stop-color="#28233C"/>
<stop offset="0.5857" stop-color="#462B4A"/>
<stop offset="0.8295" stop-color="#593052"/>
<stop offset="1" stop-color="#603255"/>
</linearGradient>
<linearGradient id="paint23_linear_1_738" x1="34.5463" y1="128.889" x2="11.4721" y2="51.9626" gradientUnits="userSpaceOnUse">
<stop stop-color="#00192A"/>
<stop offset="0.2981" stop-color="#28233C"/>
<stop offset="0.5857" stop-color="#462B4A"/>
<stop offset="0.8295" stop-color="#593052"/>
<stop offset="1" stop-color="#603255"/>
</linearGradient>
<linearGradient id="paint24_linear_1_738"  x1="34.6083" y1="128.968" x2="12.1348" y2="51.7015" gradientUnits="userSpaceOnUse">
<stop stop-color="#00192A"/>
<stop offset="0.2981" stop-color="#28233C"/>
<stop offset="0.5857" stop-color="#462B4A"/>
<stop offset="0.8295" stop-color="#593052"/>
<stop offset="1" stop-color="#603255"/>
</linearGradient>
<linearGradient id="paint25_linear_1_738" x1="34.6083" y1="128.968" x2="12.1348" y2="51.7015" gradientUnits="userSpaceOnUse">
<stop stop-color="#00192A"/>
<stop offset="0.2981" stop-color="#28233C"/>
<stop offset="0.5857" stop-color="#462B4A"/>
<stop offset="0.8295" stop-color="#593052"/>
<stop offset="1" stop-color="#603255"/>
</linearGradient>
<linearGradient id="paint26_linear_1_738" x1="35.6441" y1="200.92" x2="-80.5297" y2="56.0425" gradientUnits="userSpaceOnUse">
<stop stop-color="#00192A"/>
<stop offset="0.2981" stop-color="#28233C"/>
<stop offset="0.5857" stop-color="#462B4A"/>
<stop offset="0.8295" stop-color="#593052"/>
<stop offset="1" stop-color="#603255"/>
</linearGradient>
<linearGradient id="paint27_linear_1_738" x1="34.6948" y1="128.718" x2="11.7424" y2="52.0047" gradientUnits="userSpaceOnUse">
<stop stop-color="#00192A"/>
<stop offset="0.2981" stop-color="#28233C"/>
<stop offset="0.5857" stop-color="#462B4A"/>
<stop offset="0.8295" stop-color="#593052"/>
<stop offset="1" stop-color="#603255"/>
</linearGradient>
<linearGradient id="paint28_linear_1_738" x1="34.3792" y1="128.955" x2="11.2796" y2="52.0045" gradientUnits="userSpaceOnUse">
<stop stop-color="#00192A"/>
<stop offset="0.2981" stop-color="#28233C"/>
<stop offset="0.5857" stop-color="#462B4A"/>
<stop offset="0.8295" stop-color="#593052"/>
<stop offset="1" stop-color="#603255"/>
</linearGradient>
<linearGradient id="paint29_linear_1_738" x1="22.3742" y1="87.9422" x2="31.922" y2="87.9422" gradientUnits="userSpaceOnUse">
<stop stop-color="#00192A"/>
<stop offset="0.2981" stop-color="#28233C"/>
<stop offset="0.5857" stop-color="#462B4A"/>
<stop offset="0.8295" stop-color="#593052"/>
<stop offset="1" stop-color="#603255"/>
</linearGradient>
<linearGradient id="paint30_linear_1_738" x1="23.2793" y1="81.6394" x2="22.7705" y2="80.3652" gradientUnits="userSpaceOnUse">
<stop stop-color="#00192A"/>
<stop offset="0.2981" stop-color="#28233C"/>
<stop offset="0.5857" stop-color="#462B4A"/>
<stop offset="0.8295" stop-color="#593052"/>
<stop offset="1" stop-color="#603255"/>
</linearGradient>
<linearGradient id="paint31_linear_1_738" x1="29.9346" y1="79.8792" x2="29.5101" y2="78.8161" gradientUnits="userSpaceOnUse">
<stop stop-color="#00192A"/>
<stop offset="0.2981" stop-color="#28233C"/>
<stop offset="0.5857" stop-color="#462B4A"/>
<stop offset="0.8295" stop-color="#593052"/>
<stop offset="1" stop-color="#603255"/>
</linearGradient>
<linearGradient id="paint32_linear_1_738" x1="31.421" y1="85.1065" x2="30.9944" y2="83.6663" gradientUnits="userSpaceOnUse">
<stop stop-color="#00192A"/>
<stop offset="0.2981" stop-color="#28233C"/>
<stop offset="0.5857" stop-color="#462B4A"/>
<stop offset="0.8295" stop-color="#593052"/>
<stop offset="1" stop-color="#603255"/>
</linearGradient>
<linearGradient id="paint33_linear_1_738" x1="31.1974" y1="85.7848" x2="31.4972" y2="85.7848" gradientUnits="userSpaceOnUse">
<stop stop-color="#00192A"/>
<stop offset="0.2981" stop-color="#28233C"/>
<stop offset="0.5857" stop-color="#462B4A"/>
<stop offset="0.8295" stop-color="#593052"/>
<stop offset="1" stop-color="#603255"/>
</linearGradient>
<linearGradient id="paint34_linear_1_738" x1="15.2505" y1="99.9972" x2="27.0604" y2="99.9972" gradientUnits="userSpaceOnUse">
<stop stop-color="#00192A"/>
<stop offset="0.2981" stop-color="#28233C"/>
<stop offset="0.5857" stop-color="#462B4A"/>
<stop offset="0.8295" stop-color="#593052"/>
<stop offset="1" stop-color="#603255"/>
</linearGradient>
<linearGradient id="paint35_linear_1_738" x1="34.9385" y1="101.195" x2="34.2789" y2="98.9688" gradientUnits="userSpaceOnUse">
<stop stop-color="#00192A"/>
<stop offset="0.2981" stop-color="#28233C"/>
<stop offset="0.5857" stop-color="#462B4A"/>
<stop offset="0.8295" stop-color="#593052"/>
<stop offset="1" stop-color="#603255"/>
</linearGradient>
<linearGradient id="paint36_linear_1_738" x1="34.9385" y1="101.195" x2="34.2789" y2="98.9688" gradientUnits="userSpaceOnUse">
<stop stop-color="#00192A"/>
<stop offset="0.2981" stop-color="#28233C"/>
<stop offset="0.5857" stop-color="#462B4A"/>
<stop offset="0.8295" stop-color="#593052"/>
<stop offset="1" stop-color="#603255"/>
</linearGradient>
<linearGradient id="paint37_linear_1_738" x1="85.5431" y1="46.6172" x2="85.5431" y2="28.9999" gradientUnits="userSpaceOnUse">
<stop stop-color="#000028"/>
<stop offset="1" stop-color="#002D4F"/>
</linearGradient>
<linearGradient id="paint38_linear_1_738" x1="42.543" y1="118.305" x2="65.0905" y2="118.305" gradientUnits="userSpaceOnUse">
<stop stop-color="#000028"/>
<stop offset="1" stop-color="#002D4F"/>
</linearGradient>
<linearGradient id="paint39_linear_1_738" x1="78.1376" y1="105.198" x2="78.1376" y2="55.7114" gradientUnits="userSpaceOnUse">
<stop stop-color="#8D5F3E" stop-opacity="0"/>
<stop offset="1" stop-color="#5F3409"/>
</linearGradient>
<linearGradient id="paint40_linear_1_738" x1="112.831" y1="125.924" x2="97.6937" y2="110.001" gradientUnits="userSpaceOnUse">
<stop stop-color="#000028"/>
<stop offset="1" stop-color="#002D4F"/>
</linearGradient>
<clipPath id="clip0_1_738">
<rect width="166" height="193" rx="30" fill="white"/>
</clipPath>
</defs>
</svg>
