<svg width="166" height="193" viewBox="0 0 166 193" fill="none" xmlns="http://www.w3.org/2000/svg">
<g clip-path="url(#clip0_1_643)">
<rect width="166" height="193" rx="30" fill="#FFE7EA"/>
<mask id="mask0_1_643" style="mask-type:luminance" maskUnits="userSpaceOnUse" x="25" y="32" width="142" height="109">
<path d="M166.085 140.193L166.085 32.1115L25.9998 32.1115L25.9998 140.193L166.085 140.193Z" fill="white"/>
</mask>
<g mask="url(#mask0_1_643)">
<path d="M142.47 79.4321C142.738 77.1367 143.961 74.8955 145.999 73.504C148.037 72.1135 150.905 71.6791 153.235 72.6221C154.713 73.22 155.886 74.2975 156.914 75.4282C157.926 74.6426 158.972 73.823 160.393 73.823C161.939 73.823 163.236 74.7741 163.615 76.0622C164.334 75.0439 165.59 74.3668 167.026 74.3668C169.26 74.3668 171.07 76.003 171.07 78.0206C171.07 78.5342 170.951 79.0228 170.74 79.4663C170.995 79.3408 171.284 79.2636 171.595 79.2636C172.575 79.2636 173.368 79.9699 173.396 80.8487C173.791 80.6832 174.23 80.5889 174.695 80.5889C175.784 80.5889 176.741 81.0975 177.293 81.866C177.229 81.5992 177.193 81.3233 177.193 81.0393C177.193 78.8864 179.125 77.1417 181.506 77.1417C182.866 77.1417 184.077 77.7116 184.868 78.6005C184.825 78.4229 184.799 78.2383 184.799 78.0487C184.799 76.6451 186.058 75.5074 187.611 75.5074C188.773 75.5074 189.769 76.1435 190.198 77.0514C190.149 76.7645 190.116 76.4736 190.116 76.1746C190.116 73.0094 192.956 70.4431 196.459 70.4431C199.962 70.4431 202.802 73.0094 202.802 76.1746C202.802 76.3301 202.79 76.4826 202.776 76.6351C203.75 75.676 205.143 75.071 206.698 75.071C209.638 75.071 212.023 77.225 212.023 79.8826C212.023 84.4173 207.291 84.2798 203.783 85.268C199.361 86.5141 195.279 88.7453 192.029 91.7289C189.278 94.2561 187.105 97.304 184.044 99.5222C180.561 102.045 176.135 103.32 171.701 103.791C164.942 104.508 157.956 103.431 151.863 100.693C145.769 97.9551 140.593 93.5649 137.221 88.2226C136.176 86.5682 135.508 84.1484 136.219 82.2693C136.614 81.2229 137.633 80.2839 138.7 79.7863C138.994 79.6488 142.535 78.8794 142.47 79.4321Z" fill="white"/>
<path d="M156.184 82.1977C157.219 81.3439 159.06 81.4944 159.907 82.5027C159.949 81.5947 161.155 80.9506 162.104 81.2516C163.052 81.5526 163.566 82.601 163.31 83.4798C164.21 83.1518 165.325 83.3855 165.974 84.0376C166.174 83.3484 166.806 82.8086 167.528 82.5227C168.513 82.1325 169.715 81.99 170.76 82.3161C172.03 82.7133 172.671 83.7557 172.899 84.9004C174.558 84.2694 176.705 85.087 177.363 86.5999C177.439 86.7725 177.495 86.9721 177.406 87.1387C177.353 87.237 177.257 87.3092 177.161 87.3754C175.668 88.4148 173.734 88.7629 171.864 88.9806C167.766 89.4572 163.545 89.4421 159.566 88.4339" fill="#D6DFFF"/>
<path d="M128.984 87.5608C130.789 87.2167 132.382 86.0639 133.147 84.547C135.091 80.6956 131.472 76.3274 126.489 75.7556C127.666 73.73 127.256 70.9149 124.615 69.41C122.486 68.1961 119.547 68.3225 117.469 69.5716C117.128 69.7762 115.885 70.4043 115.38 71.576C113.96 68.6907 108.591 69.0148 108.19 72.2703C107.13 69.8364 105.291 68.7409 102.717 67.9955C100.142 67.25 97.1919 67.3153 94.877 68.5773C93.0029 69.5996 91.6884 71.3132 90.8679 73.1471C90.638 73.6598 90.0019 73.099 89.6321 73.5394C89.2924 73.9427 89.2658 75.3392 88.8272 75.6552C87.4227 76.6675 86.2048 77.8905 85.2377 79.2589C84.6049 80.1548 84.0642 81.1801 84.1752 82.2386C84.2863 83.302 85.039 84.221 85.8784 84.9724C87.9645 86.8384 90.698 88.0002 93.4737 88.861C102.745 91.7353 113.013 91.6279 121.947 95.2737" fill="white"/>
<path d="M101.312 80.2681C101.755 80.3674 102.11 80.6222 102.326 80.9503C102.302 80.6022 102.337 80.246 102.435 79.8899C102.953 78.0058 105.065 76.858 107.15 77.3266C107.929 77.5021 108.594 77.8783 109.095 78.379C109.075 78.1934 109.082 78.0017 109.135 77.8101C109.385 76.9012 110.403 76.3484 111.409 76.5741C111.932 76.6915 112.345 76.9995 112.589 77.3938C112.594 77.3737 112.597 77.3526 112.602 77.3326C113.185 75.2147 115.559 73.9256 117.903 74.4523C119.862 74.8927 121.176 76.4638 121.215 78.2044C122.022 77.8483 122.965 77.7359 123.905 77.9466C126.025 78.4231 127.317 80.3634 126.789 82.2796C126.262 84.1958 124.115 85.3626 121.994 84.886C120.306 84.5068 119.148 83.2006 119.01 81.7168C118.067 82.2023 116.927 82.3759 115.791 82.1201C114.101 81.7398 107.357 84.6182 105.272 84.1486C103.948 83.8507 101.4 83.34 100.52 83.1424C99.6411 82.9447 99.1059 82.1401 99.3247 81.3456C99.5434 80.551 100.433 80.0704 101.312 80.2681Z" fill="#D6DFFF"/>
<path d="M60.6191 89.1247C61.3575 88.9732 61.987 88.7434 62.7597 88.7274C65.1934 88.6792 67.5794 88.7946 70.013 88.5568C72.2791 88.3351 74.5818 87.9338 76.5325 86.8683C78.4832 85.8029 80.0354 83.9589 80.1075 81.9013C80.193 79.4534 77.9092 77.1308 75.208 76.9212C75.6498 75.9861 75.7287 74.6508 75.1924 73.7268C74.775 73.0065 73.9978 72.4828 73.1373 72.2651C72.7332 72.1628 72.2691 72.1056 71.8516 72.1718C71.7217 72.1929 70.6948 72.4477 70.6936 72.4989C70.7203 70.8796 69.026 69.137 66.6823 68.826C64.3219 68.513 62.7375 69.9075 61.5984 71.5538C60.3349 70.8997 58.8261 70.8977 57.778 71.912C57.0352 72.6303 56.7377 73.6646 56.8276 74.6438C55.8883 74.2114 54.7026 74.2485 53.7988 74.7411C52.8962 75.2337 52.3055 76.1637 52.2911 77.1158C50.8966 75.934 48.9159 75.339 47.0162 75.5317C46.4367 75.5909 45.8549 75.7233 45.362 76.0042C44.8446 76.3002 44.4527 76.7406 44.0741 77.176C43.0149 78.3919 41.9501 79.6701 41.536 81.1719C41.3373 81.8943 41.6626 82.2354 41.8058 82.8825C42.1844 84.589 42.9982 86.2764 44.4571 87.4121C46.1891 88.7605 48.595 89.1628 50.8822 89.1899C52.5686 89.2099 54.2496 89.0524 55.935 89.0454C57.5437 89.0384 58.9937 89.4577 60.6191 89.1247Z" fill="white"/>
<path d="M53.4729 87.8321C55.8288 88.9939 58.5689 89.5115 61.2425 89.2998C61.6421 89.2677 62.0685 89.2106 62.3683 88.9688C62.6081 88.7762 62.7335 88.4922 62.8057 88.2093C63.0511 87.2412 62.7258 86.1707 61.9664 85.4524C61.2069 84.7341 60.0389 84.391 58.9575 84.5685C59.4905 83.0627 58.9498 81.4284 57.4909 80.5696C56.0165 79.7018 53.8226 79.6918 52.5092 80.8294C52.2638 79.9085 51.2335 79.4219 50.2465 79.2493C49.4415 79.1089 48.5755 79.1219 47.8416 79.452C46.9246 79.8633 46.3306 80.7191 46.063 81.613C45.7954 82.5059 45.811 83.4459 45.8298 84.3709" fill="#F2F5FF"/>
<path d="M69.2408 73.0122C68.6801 75.0658 70.0679 77.1405 72.3406 77.6472C74.6133 78.1538 76.9093 76.8997 77.47 74.8471C78.0307 72.7934 76.6429 70.7187 74.3702 70.2121C72.0975 69.7054 69.8014 70.9595 69.2408 73.0122Z" fill="white"/>
<path d="M75.7024 76.8978C75.3571 78.1609 76.2109 79.438 77.6099 79.7501C79.0088 80.0621 80.421 79.2906 80.7663 78.0265C81.1116 76.7624 80.2578 75.4863 78.8589 75.1742C77.4611 74.8622 76.0477 75.6337 75.7024 76.8978Z" fill="white"/>
<path d="M57.2431 74.8756C58.4421 75.4224 58.9806 76.4146 59.085 77.2342C60.4573 76.0404 62.3714 75.4143 64.2 75.5257C67.6551 75.7374 70.4352 78.4341 70.0821 81.6305" stroke="#FFA5E6" stroke-width="0.75" stroke-miterlimit="10" stroke-linejoin="round"/>
<path d="M71.8675 76.1782C72.4016 74.9212 71.4889 73.4374 69.8924 73.0822C68.3635 72.7421 66.9513 73.5477 66.6515 74.9523" stroke="#FFA5E6" stroke-width="0.75" stroke-miterlimit="10" stroke-linejoin="round"/>
<path d="M50.1851 88.8634L58.8274 117.486C62.0693 128.223 72.8622 135.671 85.1783 135.671H170.704C183.02 135.671 193.813 128.223 197.055 117.486L205.697 88.8634" fill="#BA0087"/>
<mask id="mask1_1_643" style="mask-type:luminance" maskUnits="userSpaceOnUse" x="50" y="88" width="156" height="48">
<path d="M50.1846 88.8644L58.8269 117.487C62.0688 128.224 72.8617 135.672 85.1778 135.672H170.703C183.019 135.672 193.812 128.224 197.054 117.487L205.696 88.8644" fill="white"/>
</mask>
<g mask="url(#mask1_1_643)">
<path d="M51.7746 99.924C51.7746 102.14 53.762 103.936 56.2145 103.936C58.6671 103.936 60.6545 102.139 60.6545 99.924C60.6545 97.7079 58.6671 95.912 56.2145 95.912C53.762 95.911 51.7746 97.7079 51.7746 99.924Z" fill="#FC8FDF"/>
<path d="M117.434 93.4516C117.434 95.6677 119.422 97.4635 121.874 97.4635C124.326 97.4635 126.314 95.6667 126.314 93.4516C126.314 91.2354 124.326 89.4396 121.874 89.4396C119.421 89.4396 117.434 91.2354 117.434 93.4516Z" fill="#FC8FDF"/>
<path d="M139.213 129.191C139.213 130.923 140.768 132.328 142.684 132.328C144.601 132.328 146.155 130.924 146.155 129.191C146.155 127.459 144.6 126.055 142.684 126.055C140.768 126.055 139.213 127.46 139.213 129.191Z" fill="#FC8FDF"/>
<path d="M116.906 113.136C116.906 115.352 118.893 117.148 121.346 117.148C123.798 117.148 125.786 115.352 125.786 113.136C125.786 110.92 123.798 109.124 121.346 109.124C118.893 109.124 116.906 110.92 116.906 113.136Z" fill="#FC8FDF"/>
<path d="M77.7415 121.229C82.6881 121.229 86.698 117.605 86.698 113.135C86.698 108.666 82.6881 105.042 77.7415 105.042C72.795 105.042 68.7851 108.666 68.7851 113.135C68.7851 117.605 72.795 121.229 77.7415 121.229Z" fill="#FC8FDF"/>
<path d="M110.427 128.406C110.427 131.354 113.073 133.744 116.336 133.744C119.599 133.744 122.244 131.353 122.244 128.406C122.244 125.457 119.599 123.067 116.336 123.067C113.073 123.067 110.427 125.457 110.427 128.406Z" fill="#FC8FDF"/>
<path d="M157.069 114.986C160.332 114.986 162.977 112.596 162.977 109.648C162.977 106.7 160.332 104.31 157.069 104.31C153.806 104.31 151.161 106.7 151.161 109.648C151.161 112.596 153.806 114.986 157.069 114.986Z" fill="#FC8FDF"/>
<path d="M89.3441 99.0145C89.3441 101.963 91.9888 104.353 95.2518 104.353C98.5149 104.353 101.161 101.963 101.161 99.0145C101.161 96.0659 98.5149 93.6762 95.2518 93.6762C91.9899 93.6762 89.3441 96.0659 89.3441 99.0145Z" fill="#FC8FDF"/>
</g>
<path d="M59.3119 85.5802L60.9029 86.1721C63.5287 87.1493 66.341 87.6519 69.1799 87.6519H186.703C189.542 87.6519 192.354 87.1493 194.98 86.1721L196.571 85.5802C199.197 84.6031 202.009 84.1004 204.848 84.1004H216.267C218.128 84.1004 219.636 85.4628 219.636 87.1443C219.636 88.8257 218.128 90.1881 216.267 90.1881H204.848C202.009 90.1881 199.197 90.6908 196.571 91.6679L194.98 92.2598C192.354 93.237 189.542 93.7396 186.703 93.7396H69.1799C66.3398 93.7396 63.5287 93.237 60.9029 92.2598L59.3119 91.6679C56.6861 90.6908 53.8738 90.1881 51.0349 90.1881H39.6159C37.7551 90.1881 36.2474 88.8257 36.2474 87.1443C36.2474 85.4628 37.7551 84.1004 39.6159 84.1004H51.0349C53.8738 84.1004 56.6861 84.6031 59.3119 85.5802Z" fill="#BA0087"/>
<path d="M177.082 93.74H69.1804C66.3404 93.74 63.5292 93.2373 60.9034 92.2602L59.3124 91.6683C56.6867 90.6911 53.4258 90.1885 50.5869 90.1885" stroke="#472439" stroke-width="0.75" stroke-miterlimit="10" stroke-linecap="round" stroke-linejoin="round"/>
<path d="M124.558 60.0718C125.15 60.1069 125.413 53.2617 125.446 52.5855C125.706 47.3506 124.853 41.4826 121.355 37.1526C120.13 35.6377 118.223 34.0154 115.898 34.187C115.09 34.2462 114.288 34.502 113.706 35.0297C113.05 35.6256 112.805 36.4764 112.858 37.2991C112.975 39.0808 114.034 40.7623 114.988 42.2812C115.442 43.0035 115.881 43.7279 116.292 44.4653C116.461 44.8756 116.626 45.2849 116.786 45.6982C118.36 49.7092 119.554 53.8105 118.99 58.0191C120.439 59.2692 122.445 59.9353 124.558 60.0718Z" fill="#FFE4AB"/>
<path d="M118.989 58.0202C118.602 60.9116 117.384 63.8541 114.888 66.8528C115.57 65.1152 112.451 60.6969 113.769 59.7067C113.754 59.6475 113.738 59.5933 113.72 59.5341C115.155 58.0513 115.966 56.1743 116.466 54.2731C117.199 51.466 118.877 43.4431 113.397 43.7009C112.373 43.7491 111.393 44.0791 110.448 44.4393C107.989 45.3763 105.636 46.5421 103.44 47.9125C101.244 49.282 100.369 50.1056 97.6133 49.5107C97.4623 49.4776 97.308 49.4465 97.1537 49.4174C96.9705 49.3913 96.7851 49.3582 96.5974 49.3171C95.747 49.1806 94.8843 49.1054 94.0216 49.0964C94.8266 54.8871 93.1257 60.8785 87.9685 64.6758C83.6873 68.0286 76.5528 69.5756 71.701 65.9649C71.1359 65.4543 70.5963 64.9226 70.1033 64.3598C68.6822 69.9769 70.1344 76.5552 77.1579 77.8815C76.0055 79.9422 75.608 82.3018 76.0243 84.5782C67.22 86.8295 74.2635 97.188 80.7185 92.2109C81.8454 93.1549 83.8039 92.9021 84.7365 91.8527C84.9131 93.2502 87.3168 91.6802 87.5299 90.9037C91.1005 90.9247 94.67 90.9478 98.244 90.9709C99.936 92.5771 103.15 92.8299 105.211 91.5437C106.176 92.9984 108.338 93.5703 110.034 92.8871C110.445 92.7215 111.376 93.0867 111.966 92.871C112.593 92.6413 113.095 92.1908 113.465 91.6882C114.294 90.5625 114.818 89.0938 114.394 87.7605C114.043 86.6579 112.793 86.08 112.62 84.9985C112.519 84.3685 112.598 83.6692 112.724 83.0472C112.993 81.7119 113.644 80.4609 114.363 79.279C116.015 76.5602 118.055 74.0491 119.745 71.3494C120.784 69.69 121.723 67.9785 122.508 66.2087C122.742 65.68 124.65 60.0769 124.558 60.0709C122.445 59.9354 120.439 59.2693 118.989 58.0202Z" fill="#FAD177"/>
<path d="M87.968 64.676C93.1252 60.8787 94.8272 54.8864 94.0211 49.0966C93.8557 49.0946 93.6914 49.0916 93.526 49.0956C92.0116 49.1257 90.6526 49.534 89.4125 48.6502C88.149 47.7503 87.011 46.6979 85.7442 45.7929C83.2672 44.0222 80.6281 42.4351 77.8613 41.0556C77.3051 40.7777 76.6911 40.4998 76.0627 40.5911C75.0346 40.7406 74.5006 41.7639 74.1975 42.6638C73.4236 44.9612 73.0228 47.361 72.9995 49.7618C72.9884 50.9627 73.0706 52.1646 73.2482 53.3544C73.2826 53.5892 74.072 56.0351 74.0809 56.019C73.1905 57.4326 72.4599 58.9485 71.786 60.2076C71.0543 61.4466 70.477 62.8702 70.0995 64.361C70.5925 64.9238 71.1331 65.4566 71.6972 65.9662C76.5523 69.5759 83.6869 68.0289 87.968 64.676Z" fill="#FFE4AB"/>
<path d="M111.496 55.6461C112.276 56.1999 112.783 56.8972 113.14 57.6657C113.299 57.4179 113.454 57.1721 113.609 56.9403C115.622 53.9276 117.034 49.6808 115.175 46.331C114.991 45.9999 114.779 45.4833 114.379 45.4211C114.05 45.3699 113.308 45.8023 113.014 45.9347C112.128 46.333 111.303 46.8396 110.561 47.4316C108.475 49.0959 107.069 51.3924 107.008 53.9396C107.007 53.9948 107.007 54.053 107.042 54.0981C107.087 54.1573 107.174 54.1734 107.251 54.1844C108.785 54.4122 110.249 54.7633 111.496 55.6461Z" fill="#FF6C94"/>
<path d="M81.1524 48.7769C80.8337 47.3684 80.1998 46.018 79.3094 44.8271C78.5921 43.868 77.7072 43.0113 76.6869 42.311C76.1329 41.9308 75.7854 41.697 75.3724 42.326C75.0981 42.7424 75.0415 43.2791 74.8761 43.7346C74.4597 44.8853 74.1555 46.0681 73.9679 47.267C73.5416 49.9878 73.9457 52.4498 74.4342 55.1104C75.6011 53.7891 77.0933 52.812 78.8419 52.1719C79.3904 51.9712 81.0236 51.8137 81.3589 51.4325C81.6975 51.0473 81.3023 49.5233 81.2146 49.0689C81.1957 48.9715 81.1746 48.8742 81.1524 48.7769Z" fill="#FF6C94"/>
<path d="M95.0576 68.9083C94.558 69.4501 94.0528 69.9968 93.4 70.3811C92.7494 70.7623 91.9189 70.961 91.1795 70.7372C90.7509 70.6058 90.3856 70.3429 90.0381 70.0771C89.453 69.6286 88.8768 69.1461 88.4971 68.5401C88.1174 67.9342 87.9575 67.1837 88.2373 66.5366L88.8224 66.0521C90.6521 65.7039 92.584 65.8123 94.3504 66.3671C94.9521 66.5557 95.6094 66.8697 95.7404 67.4325C95.8648 67.9723 95.4484 68.4829 95.0576 68.9083Z" fill="#FF6C94"/>
<path d="M86.6458 62.3734C86.6358 65.3952 82.2126 65.337 82.3014 62.3162C82.3114 59.2945 86.7347 59.3527 86.6458 62.3734Z" fill="#472439"/>
<path d="M102.781 64.1752C102.771 67.197 98.3481 67.1388 98.437 64.1171C98.4469 61.0953 102.87 61.1545 102.781 64.1752Z" fill="#472439"/>
<path d="M99.4807 59.0389C100.903 58.766 102.453 59.0951 103.593 59.9107" stroke="#472439" stroke-width="0.75" stroke-miterlimit="10" stroke-linecap="round" stroke-linejoin="round"/>
<path d="M81.5025 58.2328C82.7183 57.1021 84.5757 56.5674 86.2911 56.8523" stroke="#472439" stroke-width="0.75" stroke-miterlimit="10" stroke-linecap="round" stroke-linejoin="round"/>
<path d="M77.0019 48.5034C78.6096 49.2458 79.8919 50.545 80.5248 52.0719" stroke="#472439" stroke-width="0.75" stroke-miterlimit="10" stroke-linecap="round" stroke-linejoin="round"/>
<path d="M76.3409 51.1882C77.0315 51.2584 77.722 51.3287 78.4126 51.3989" stroke="#472439" stroke-width="0.75" stroke-miterlimit="10" stroke-linecap="round" stroke-linejoin="round"/>
<path d="M107.664 54.1772C109.239 52.7656 111.355 51.8557 113.561 51.64" stroke="#472439" stroke-width="0.75" stroke-miterlimit="10" stroke-linecap="round" stroke-linejoin="round"/>
<path d="M75.9466 52.7185C76.7227 52.6824 77.4988 52.6472 78.2748 52.6121" stroke="#472439" stroke-width="0.75" stroke-miterlimit="10" stroke-linecap="round" stroke-linejoin="round"/>
<path d="M108.927 54.2005C109.961 54.2075 111.633 53.9477 112.668 53.9547" stroke="#472439" stroke-width="0.75" stroke-miterlimit="10" stroke-linecap="round" stroke-linejoin="round"/>
<path d="M110.48 55.1992C111.472 55.4329 112.463 55.6667 113.455 55.9005" stroke="#472439" stroke-width="0.75" stroke-miterlimit="10" stroke-linecap="round" stroke-linejoin="round"/>
<path d="M105.396 80.3391C107.372 80.1184 109.271 79.3639 110.786 78.1962C111.057 80.4685 111.632 82.6235 112.463 84.7825" stroke="#472439" stroke-width="0.75" stroke-miterlimit="10" stroke-linecap="round" stroke-linejoin="round"/>
<path d="M71.5516 88.8391C72.1256 86.9701 73.9042 85.5184 75.936 84.8954C77.9678 84.2724 80.2138 84.4028 82.2734 84.9485C84.0398 85.4161 85.7662 86.2257 86.8632 87.561C87.9601 88.8963 88.2865 90.8316 87.3029 92.2371" stroke="#472439" stroke-width="0.75" stroke-miterlimit="10" stroke-linecap="round" stroke-linejoin="round"/>
<path d="M98.4844 90.8725C97.8859 88.4426 99.3981 85.8211 101.757 84.5349C104.117 83.2488 107.133 83.1876 109.74 83.9942C111.327 84.4848 112.844 85.3195 113.755 86.5916C114.665 87.8637 114.85 89.6244 113.913 90.8815" stroke="#472439" stroke-width="0.75" stroke-miterlimit="10" stroke-linecap="round" stroke-linejoin="round"/>
<path d="M86.7183 49.5056C87.7619 49.1514 88.8899 49.0019 90.0024 49.0702" stroke="#472439" stroke-width="0.75" stroke-miterlimit="10" stroke-linecap="round" stroke-linejoin="round"/>
<path d="M102.602 50.673C99.8444 49.7199 96.92 49.1631 93.9711 49.0296" stroke="#472439" stroke-width="0.75" stroke-miterlimit="10" stroke-linecap="round" stroke-linejoin="round"/>
<path d="M75.2069 54.56C73.0352 57.2056 71.2932 59.9173 70.8313 62.3181" stroke="#472439" stroke-width="0.75" stroke-miterlimit="10" stroke-linecap="round" stroke-linejoin="round"/>
<path d="M110.111 78.8209C112.729 77.1044 114.627 74.513 115.352 71.6648C116.078 68.8165 115.624 65.7356 114.101 63.1582" stroke="#472439" stroke-width="0.75" stroke-miterlimit="10" stroke-linecap="round" stroke-linejoin="round"/>
<path d="M75.2264 77.1013C72.6084 75.3847 70.7098 72.7933 69.9848 69.9451C69.2587 67.0969 69.7128 64.0159 71.2361 61.4386" stroke="#472439" stroke-width="0.75" stroke-miterlimit="10" stroke-linecap="round" stroke-linejoin="round"/>
<path d="M112.784 56.7384C112.805 58.0235 113.055 59.3067 113.522 60.5206" stroke="#472439" stroke-width="0.75" stroke-miterlimit="10" stroke-linecap="round" stroke-linejoin="round"/>
<path d="M74.9014 90.9195C74.827 91.8013 75.431 92.6962 76.3325 93.0394" stroke="#472439" stroke-width="0.75" stroke-miterlimit="10" stroke-linecap="round" stroke-linejoin="round"/>
<path d="M80.5198 90.2791C80.8107 91.1199 80.6242 92.084 80.0324 92.7843" stroke="#472439" stroke-width="0.75" stroke-miterlimit="10" stroke-linecap="round" stroke-linejoin="round"/>
<path d="M85.2367 90.4678C85.4365 91.476 84.7804 92.5716 83.7367 92.9709" stroke="#472439" stroke-width="0.75" stroke-miterlimit="10" stroke-linecap="round" stroke-linejoin="round"/>
<path d="M100.569 90.023C100.169 90.7494 100.492 91.7335 101.266 92.1449" stroke="#472439" stroke-width="0.75" stroke-miterlimit="10" stroke-linecap="round" stroke-linejoin="round"/>
<path d="M105.626 89.9613C105.328 90.3817 105.261 90.9294 105.452 91.398C105.643 91.8665 106.087 92.2447 106.616 92.3892" stroke="#472439" stroke-width="0.75" stroke-miterlimit="10" stroke-linecap="round" stroke-linejoin="round"/>
<path d="M111.091 91.0487C111.073 91.9868 110.267 92.8656 109.25 93.0552" stroke="#472439" stroke-width="0.75" stroke-miterlimit="10" stroke-linecap="round" stroke-linejoin="round"/>
<path d="M75.9621 77.5058C77.9827 78.21 80.281 78.2442 82.3261 77.6001" stroke="#472439" stroke-width="0.75" stroke-miterlimit="10" stroke-linecap="round" stroke-linejoin="round"/>
<path d="M95.147 51.0285C85.5743 50.4967 75.8529 54.901 70.598 62.1504C69.5877 59.3093 71.2942 55.9343 73.5502 53.7553C75.8063 51.5762 78.9072 50.273 82.0348 49.3169C84.6906 48.5053 87.4251 47.9064 90.1974 47.5281C91.562 47.3425 93.0386 47.2262 94.2466 47.8281C95.4545 48.43 96.0585 50.0924 95.147 51.0285Z" fill="#BA0087"/>
<path d="M94.1924 50.6423C98.5235 51.5542 102.936 52.4952 106.741 54.575C110.545 56.6547 113.712 60.0999 114.075 64.1048C115.626 60.1962 114.367 56.2925 111.035 53.4333C107.703 50.574 103.172 49.1374 98.6678 48.3187C97.6664 48.1361 96.6361 47.9806 95.6268 48.1271C94.6176 48.2736 93.6206 48.7732 93.1709 49.6029C93.7405 49.8206 93.5895 50.5158 94.1924 50.6423Z" fill="#BA0087"/>
<path d="M94.5847 44.0177C95.2619 46.1687 95.4596 48.432 95.7205 50.6482C95.7571 50.9572 95.7926 51.2742 95.7027 51.5742C95.6128 51.8741 95.3674 52.1571 95.0299 52.2172C94.3948 52.3306 92.7183 51.3294 92.1465 51.0134C91.0862 50.4254 90.1769 49.5767 89.5175 48.6276C88.1962 46.7295 87.8887 44.406 88.2051 42.2159C88.3483 41.2247 88.2373 40.398 88.7325 38.8851C90.8009 39.481 91.9711 39.8853 93.2846 41.4474C93.9196 42.2008 94.2927 43.1078 94.5847 44.0177Z" fill="#BA0087"/>
<path d="M95.5768 50.7717C94.3733 48.2575 95.7467 45.6671 97.794 43.6466C99.8413 41.6261 102.522 40.2215 104.742 38.3575C105.046 38.1017 106.222 41.8247 106.079 43.3667C105.848 45.8477 103.985 47.8061 102.641 48.3579C100.361 49.2949 98.1804 51.0335 95.6024 51.1579" fill="#BA0087"/>
<path d="M95.9604 50.7237C99.2246 50.2973 102.329 48.9278 104.708 46.8642L95.9604 50.7237Z" fill="#BA0087"/>
<path d="M95.9604 50.7237C99.2246 50.2973 102.329 48.9278 104.708 46.8642" stroke="white" stroke-width="0.75" stroke-miterlimit="10" stroke-linecap="round" stroke-linejoin="round"/>
<path d="M95.2093 49.6397C96.6915 47.6211 99.3172 46.1574 101.762 45.1642L95.2093 49.6397Z" fill="#BA0087"/>
<path d="M95.2093 49.6397C96.6915 47.6211 99.3172 46.1574 101.762 45.1642" stroke="white" stroke-width="0.75" stroke-miterlimit="10" stroke-linecap="round" stroke-linejoin="round"/>
<path d="M92.8452 48.4288C92.0236 47.1547 90.3327 45.2556 91.2986 42.4956L92.8452 48.4288Z" fill="#BA0087"/>
<path d="M92.8452 48.4288C92.0236 47.1547 90.3327 45.2556 91.2986 42.4956" stroke="white" stroke-width="0.75" stroke-miterlimit="10" stroke-linecap="round" stroke-linejoin="round"/>
<path d="M92.591 48.8648C92.1558 49.6855 92.9541 50.6958 93.5425 51.2666C93.8823 51.5957 94.323 51.9809 94.7993 52.1495C96.1539 52.626 95.3045 49.7206 95.2501 49.228C95.1979 48.7565 95.2734 48.0261 95.0691 47.5837C94.4119 46.1661 92.9441 48.1997 92.591 48.8648Z" fill="#BA0087" stroke="white" stroke-width="0.75" stroke-miterlimit="10" stroke-linecap="round" stroke-linejoin="round"/>
<path d="M89.0453 49.9971C82.5115 50.582 75.9454 52.7179 71.3544 59.6092L89.0453 49.9971Z" fill="#BA0087"/>
<path d="M89.0453 49.9971C82.5115 50.582 75.9454 52.7179 71.3544 59.6092" stroke="white" stroke-width="0.75" stroke-miterlimit="10" stroke-linecap="round" stroke-linejoin="round"/>
<path d="M99.536 51.2913C104.327 51.1097 109.136 53.4352 111.628 57.1372L99.536 51.2913Z" fill="#BA0087"/>
<path d="M99.536 51.2913C104.327 51.1097 109.136 53.4352 111.628 57.1372" stroke="white" stroke-width="0.75" stroke-miterlimit="10" stroke-linecap="round" stroke-linejoin="round"/>
<path d="M89.714 48.9399C90.6876 50.6996 92.665 51.9748 94.8245 52.2336L89.714 48.9399Z" fill="#BA0087"/>
<path d="M89.714 48.9399C90.6876 50.6996 92.665 51.9748 94.8245 52.2336" stroke="white" stroke-width="0.75" stroke-miterlimit="10" stroke-linecap="round" stroke-linejoin="round"/>
</g>
<path d="M37.4531 153.493H41.6797C43.8672 153.493 45.3906 155.001 45.3906 157.196C45.3906 159.399 43.8359 160.915 41.625 160.915H39.2031V164.767H37.4531V153.493ZM39.2031 154.97V159.446H41.2109C42.7344 159.446 43.6016 158.626 43.6016 157.204C43.6016 155.782 42.7344 154.97 41.2188 154.97H39.2031ZM49.7969 157.759C48.6172 157.759 47.7891 158.657 47.7031 159.899H51.8125C51.7734 158.642 50.9766 157.759 49.7969 157.759ZM51.8047 162.353H53.4062C53.1719 163.853 51.75 164.923 49.8672 164.923C47.4531 164.923 45.9922 163.29 45.9922 160.696C45.9922 158.118 47.4766 156.399 49.7969 156.399C52.0781 156.399 53.5 158.009 53.5 160.501V161.079H47.6953V161.181C47.6953 162.61 48.5547 163.556 49.9062 163.556C50.8672 163.556 51.5781 163.071 51.8047 162.353ZM55.3047 154.603H57V156.548H58.5625V157.884H57V162.415C57 163.126 57.3125 163.446 58 163.446C58.1719 163.446 58.4453 163.431 58.5547 163.407V164.743C58.3672 164.79 57.9922 164.821 57.6172 164.821C55.9531 164.821 55.3047 164.188 55.3047 162.603V157.884H54.1094V156.548H55.3047V154.603ZM73.1172 160.079C73.1172 163.134 71.3125 164.954 68.2578 164.954C65.0312 164.954 63 162.696 63 159.079C63 155.524 65.0234 153.306 68.2344 153.306C70.7422 153.306 72.6406 154.79 73.0312 157.04H71.2344C70.8125 155.642 69.7109 154.837 68.2422 154.837C66.0859 154.837 64.7891 156.415 64.7891 159.063C64.7891 161.759 66.125 163.423 68.2734 163.423C70.1016 163.423 71.3672 162.251 71.3906 160.54V160.345H68.4766V158.931H73.1172V160.079ZM74.625 164.767V156.548H76.2344V157.946H76.2734C76.5469 156.985 77.2812 156.415 78.25 156.415C78.4922 156.415 78.7031 156.454 78.8281 156.478V158.048C78.6953 157.993 78.3984 157.954 78.0703 157.954C76.9844 157.954 76.3125 158.681 76.3125 159.845V164.767H74.625ZM83.0469 164.923C80.6953 164.923 79.1484 163.306 79.1484 160.657C79.1484 158.017 80.7031 156.399 83.0469 156.399C85.3906 156.399 86.9453 158.017 86.9453 160.657C86.9453 163.306 85.3984 164.923 83.0469 164.923ZM83.0469 163.532C84.375 163.532 85.2266 162.485 85.2266 160.657C85.2266 158.837 84.3672 157.79 83.0469 157.79C81.7266 157.79 80.8672 158.837 80.8672 160.657C80.8672 162.485 81.7266 163.532 83.0469 163.532ZM91.7812 164.923C89.4297 164.923 87.8828 163.306 87.8828 160.657C87.8828 158.017 89.4375 156.399 91.7812 156.399C94.125 156.399 95.6797 158.017 95.6797 160.657C95.6797 163.306 94.1328 164.923 91.7812 164.923ZM91.7812 163.532C93.1094 163.532 93.9609 162.485 93.9609 160.657C93.9609 158.837 93.1016 157.79 91.7812 157.79C90.4609 157.79 89.6016 158.837 89.6016 160.657C89.6016 162.485 90.4609 163.532 91.7812 163.532ZM96.9844 164.767V156.548H98.5938V157.931H98.6328C99 157.017 99.8594 156.407 100.969 156.407C102.109 156.407 102.938 156.993 103.266 158.017H103.305C103.727 157.017 104.695 156.407 105.867 156.407C107.492 156.407 108.555 157.485 108.555 159.118V164.767H106.859V159.524C106.859 158.462 106.289 157.853 105.289 157.853C104.289 157.853 103.594 158.595 103.594 159.634V164.767H101.938V159.399C101.938 158.454 101.336 157.853 100.383 157.853C99.3828 157.853 98.6719 158.634 98.6719 159.688V164.767H96.9844ZM110.242 164.767V156.548H111.93V164.767H110.242ZM111.086 155.345C110.547 155.345 110.109 154.915 110.109 154.384C110.109 153.845 110.547 153.415 111.086 153.415C111.633 153.415 112.07 153.845 112.07 154.384C112.07 154.915 111.633 155.345 111.086 155.345ZM113.656 164.767V156.548H115.266V157.923H115.305C115.75 156.985 116.625 156.407 117.891 156.407C119.703 156.407 120.742 157.563 120.742 159.446V164.767H119.047V159.774C119.047 158.54 118.469 157.86 117.297 157.86C116.109 157.86 115.344 158.704 115.344 159.978V164.767H113.656ZM125.875 163.399C127.195 163.399 128.062 162.329 128.062 160.634C128.062 158.946 127.195 157.837 125.875 157.837C124.578 157.837 123.734 158.923 123.734 160.634C123.734 162.353 124.578 163.399 125.875 163.399ZM125.891 167.86C123.953 167.86 122.516 166.829 122.305 165.407H124C124.242 166.095 124.992 166.548 125.953 166.548C127.273 166.548 128.055 165.798 128.055 164.673V163.321H128.023C127.562 164.212 126.594 164.798 125.422 164.798C123.359 164.798 122.008 163.188 122.008 160.626C122.008 158.04 123.352 156.415 125.461 156.415C126.625 156.415 127.578 157.001 128.078 157.954H128.109V156.548H129.75V164.618C129.75 166.579 128.234 167.86 125.891 167.86Z" fill="black"/>
<circle cx="19.5" cy="21.5" r="42.5" fill="#FFCBCB"/>
<circle cx="165.5" cy="191.5" r="44.5" fill="#FFCBCB"/>
</g>
<defs>
<clipPath id="clip0_1_643">
<rect width="166" height="193" rx="30" fill="white"/>
</clipPath>
</defs>
</svg>
