<svg width="342" height="127" viewBox="0 0 342 127" fill="none" xmlns="http://www.w3.org/2000/svg">
<g clip-path="url(#clip0_1_415)">
<rect width="342" height="127" rx="20" fill="url(#paint0_linear_1_415)"/>
<path opacity="0.6" d="M342 0V127C324.64 117.18 310.628 102.013 302.917 84.2654C299.314 75.9764 295.73 65.9162 286.624 63.457C279.13 61.445 271.581 65.7614 264.539 68.9085C257.479 72.0555 247.831 73.6548 242.925 67.911C234.217 57.696 252.374 40.6366 243.758 30.3527C238.327 23.8695 227.248 26.535 219.337 23.0784C210.757 19.3123 207.951 8.34056 211.499 0H342Z" fill="#FFE8F0"/>
<circle cx="32.5" cy="64.5" r="68.5" fill="#FFD7E5"/>
<path d="M23.4565 50H18L20.2485 39.4312H24.8774C26.877 39.4312 27.9609 40.4053 27.9609 41.7017C27.9609 43.1006 26.9429 44.1553 25.5146 44.4409L25.5073 44.4922C26.6353 44.7339 27.4336 45.5469 27.4336 46.6309C27.4336 48.5938 25.7783 50 23.4565 50ZM22.5044 41.1743L21.9917 43.6206H23.5078C24.5698 43.6206 25.2729 43.02 25.2729 42.1924C25.2729 41.5698 24.8115 41.1743 23.9253 41.1743H22.5044ZM21.0396 48.0957H22.8413C23.9985 48.0957 24.7456 47.4585 24.7456 46.5063C24.7456 45.7886 24.2329 45.3564 23.2368 45.3564H21.6182L21.0396 48.0957ZM33.498 50.1831C30.561 50.1831 28.7739 48.2715 28.7739 45.6567C28.7739 41.8774 31.3154 39.248 34.5454 39.248C37.541 39.248 39.2842 41.167 39.2842 43.7744C39.2842 47.561 36.7207 50.1831 33.498 50.1831ZM34.4868 41.4307C32.8242 41.4307 31.5059 43.2544 31.5059 45.5029C31.5059 47.019 32.3115 48.0005 33.5713 48.0005C35.2339 48.0005 36.5596 46.1841 36.5596 43.9282C36.5596 42.3975 35.7466 41.4307 34.4868 41.4307ZM44.9971 50.1831C42.0601 50.1831 40.2729 48.2715 40.2729 45.6567C40.2729 41.8774 42.8145 39.248 46.0444 39.248C49.04 39.248 50.7832 41.167 50.7832 43.7744C50.7832 47.561 48.2197 50.1831 44.9971 50.1831ZM45.9858 41.4307C44.3232 41.4307 43.0049 43.2544 43.0049 45.5029C43.0049 47.019 43.8105 48.0005 45.0703 48.0005C46.7329 48.0005 48.0586 46.1841 48.0586 43.9282C48.0586 42.3975 47.2456 41.4307 45.9858 41.4307ZM53.6909 50H51.0029L53.2515 39.4312H55.9395L54.98 43.9429H55.0312L59.5137 39.4312H62.6118L57.7705 44.3311L60.3706 50H57.4116L55.5439 45.8545L54.3135 47.085L53.6909 50ZM20.5854 68H18L20.2485 57.4312H22.3579L25.478 63.8911H25.5293L26.8916 57.4312H29.4771L27.2285 68H25.1191L21.999 61.54H21.9478L20.5854 68ZM34.4209 68.1831C31.4839 68.1831 29.6968 66.2715 29.6968 63.6567C29.6968 59.8774 32.2383 57.248 35.4683 57.248C38.4639 57.248 40.207 59.167 40.207 61.7744C40.207 65.561 37.6436 68.1831 34.4209 68.1831ZM35.4097 59.4307C33.7471 59.4307 32.4287 61.2544 32.4287 63.5029C32.4287 65.019 33.2344 66.0005 34.4941 66.0005C36.1567 66.0005 37.4824 64.1841 37.4824 61.9282C37.4824 60.3975 36.6694 59.4307 35.4097 59.4307ZM47.5532 61.4229L44.4111 68H41.8623L41.3423 57.4312H44.0742L44.0376 64.4771H44.0889L47.3481 57.4312H49.4795L49.8384 64.4771H49.8896L52.7754 57.4312H55.5439L50.5562 68H48.0366L47.6045 61.4229H47.5532ZM56.9941 57.4312H59.6968L57.9536 64.5356H55.7124L56.9941 57.4312ZM56.2837 68.2417C55.5073 68.2417 54.8921 67.6631 54.8921 66.9233C54.8921 66.1909 55.5073 65.6123 56.2837 65.6123C57.0381 65.6123 57.6606 66.1909 57.6606 66.9233C57.6606 67.6631 57.0381 68.2417 56.2837 68.2417Z" fill="#FF6694"/>
<path d="M34.6309 84.8623V83.1191H39.0605V84.8623H34.6309ZM40.6328 88V86.585L44.1191 83.3242C45.3906 82.1348 45.6572 81.6494 45.6572 80.9658V80.9521C45.6504 80.1455 45.0352 79.5713 44.1602 79.5713C43.1484 79.5713 42.4648 80.2344 42.4375 81.123L42.4307 81.1846H40.5166V81.1299C40.5166 79.2705 42.0615 77.9648 44.1465 77.9648C46.2314 77.9648 47.667 79.1543 47.667 80.8359V80.8496C47.667 82.0459 47.0996 82.8252 45.3975 84.3906L43.333 86.2773V86.3594H47.8037V88H40.6328ZM52.9375 88.1709C50.4355 88.1709 48.918 86.209 48.918 83.0713V83.0576C48.918 79.9199 50.4355 77.9648 52.9375 77.9648C55.4395 77.9648 56.957 79.9199 56.957 83.0576V83.0713C56.957 86.209 55.4395 88.1709 52.9375 88.1709ZM52.9375 86.5166C54.168 86.5166 54.8721 85.2383 54.8721 83.0713V83.0576C54.8721 80.8906 54.168 79.6191 52.9375 79.6191C51.707 79.6191 51.0029 80.8906 51.0029 83.0576V83.0713C51.0029 85.2383 51.707 86.5166 52.9375 86.5166ZM60.3955 83.2148C58.9736 83.2148 58.1055 82.2236 58.1055 80.6309V80.624C58.1055 79.0381 58.9736 78.0469 60.3955 78.0469C61.8105 78.0469 62.6787 79.0381 62.6787 80.624V80.6309C62.6787 82.2236 61.8105 83.2148 60.3955 83.2148ZM61.4141 88H59.8896L66.124 78.1357H67.6416L61.4141 88ZM60.3955 82.0801C60.9424 82.0801 61.2432 81.5674 61.2432 80.6309V80.624C61.2432 79.6943 60.9424 79.1816 60.3955 79.1816C59.8418 79.1816 59.5342 79.6943 59.5342 80.624V80.6309C59.5342 81.5674 59.8418 82.0801 60.3955 82.0801ZM67.1426 88.0889C65.7207 88.0889 64.8525 87.0977 64.8525 85.5049V85.498C64.8525 83.9121 65.7207 82.9209 67.1426 82.9209C68.5576 82.9209 69.4258 83.9121 69.4258 85.498V85.5049C69.4258 87.0977 68.5576 88.0889 67.1426 88.0889ZM67.1426 86.9541C67.6895 86.9541 67.9902 86.4414 67.9902 85.5049V85.498C67.9902 84.5684 67.6895 84.0557 67.1426 84.0557C66.5889 84.0557 66.2812 84.5684 66.2812 85.498V85.5049C66.2812 86.4414 66.5889 86.9541 67.1426 86.9541Z" fill="black"/>
<path d="M127.255 38L131.526 25.3174H135.473L139.744 38H136.36L135.569 35.2139H131.43L130.639 38H127.255ZM133.469 28.0771L132.098 32.8936H134.901L133.53 28.0771H133.469ZM140.808 38V25.3174H143.928V38H140.808ZM145.536 38V25.3174H148.656V38H145.536ZM150.625 34.1768V31.5049H156.355V34.1768H150.625ZM158.474 38V25.3174H161.207L166.278 32.6387H166.34V25.3174H169.557V38H166.85L161.752 30.5996H161.69V38H158.474ZM175.841 38.2021C172.817 38.2021 170.98 36.3125 170.98 33.2188V33.21C170.98 30.1338 172.826 28.2266 175.735 28.2266C178.627 28.2266 180.464 30.1162 180.464 33.0166V33.9307H174.03C174.065 35.2227 174.769 35.9873 175.902 35.9873C176.904 35.9873 177.449 35.416 177.59 35.0205L177.599 34.9766H180.411L180.385 35.082C180.095 36.4092 178.891 38.2021 175.841 38.2021ZM175.806 30.4414C174.892 30.4414 174.232 31.0391 174.074 32.0938H177.528C177.37 31.0215 176.72 30.4414 175.806 30.4414ZM183.461 38L180.974 28.4287H184.12L185.342 35.1875H185.403L186.862 28.4287H189.842L191.318 35.1875H191.38L192.593 28.4287H195.669L193.199 38H189.842L188.321 31.5576H188.26L186.766 38H183.461ZM133.873 59.2285C129.962 59.2285 127.606 56.8115 127.606 52.6367V52.6279C127.606 48.5146 129.971 46.0889 133.794 46.0889C136.905 46.0889 139.146 47.917 139.48 50.3779L139.498 50.4834H136.308L136.281 50.3955C135.947 49.3672 135.042 48.7607 133.803 48.7607C131.975 48.7607 130.894 50.1318 130.894 52.5928V52.6016C130.894 55.1152 132.089 56.5566 133.943 56.5566C135.402 56.5566 136.404 55.7656 136.51 54.4912L136.519 54.333H133.979V52.0479H139.63V53.6387C139.63 57.1104 137.485 59.2285 133.873 59.2285ZM141.019 59V49.4287H144.139V51.125H144.2C144.464 49.9121 145.22 49.2266 146.345 49.2266C146.644 49.2266 146.916 49.2705 147.153 49.3496V52.0127C146.89 51.9072 146.529 51.8369 146.16 51.8369C144.851 51.8369 144.139 52.5576 144.139 53.9199V59H141.019ZM152.462 59.2021C149.43 59.2021 147.566 57.374 147.566 54.2188V54.2012C147.566 51.0986 149.491 49.2266 152.462 49.2266C155.441 49.2266 157.357 51.0811 157.357 54.2012V54.2188C157.357 57.3828 155.477 59.2021 152.462 59.2021ZM152.471 56.8379C153.534 56.8379 154.202 55.8975 154.202 54.2188V54.2012C154.202 52.5488 153.517 51.5908 152.462 51.5908C151.407 51.5908 150.73 52.5488 150.73 54.2012V54.2188C150.73 55.9062 151.39 56.8379 152.471 56.8379ZM163.167 59.2021C160.135 59.2021 158.271 57.374 158.271 54.2188V54.2012C158.271 51.0986 160.196 49.2266 163.167 49.2266C166.146 49.2266 168.062 51.0811 168.062 54.2012V54.2188C168.062 57.3828 166.182 59.2021 163.167 59.2021ZM163.176 56.8379C164.239 56.8379 164.907 55.8975 164.907 54.2188V54.2012C164.907 52.5488 164.222 51.5908 163.167 51.5908C162.112 51.5908 161.436 52.5488 161.436 54.2012V54.2188C161.436 55.9062 162.095 56.8379 163.176 56.8379ZM169.267 59V49.4287H172.387V51.1514H172.448C172.817 49.9824 173.837 49.2266 175.146 49.2266C176.509 49.2266 177.484 49.9736 177.757 51.2744H177.818C178.188 50.0352 179.348 49.2266 180.771 49.2266C182.644 49.2266 183.918 50.5449 183.918 52.4873V59H180.798V53.2871C180.798 52.2852 180.332 51.7666 179.453 51.7666C178.609 51.7666 178.082 52.373 178.082 53.3223V59H175.103V53.2607C175.103 52.2939 174.628 51.7666 173.775 51.7666C172.932 51.7666 172.387 52.3906 172.387 53.3398V59H169.267ZM189.956 59.2021C186.933 59.2021 185.096 57.3125 185.096 54.2188V54.21C185.096 51.1338 186.941 49.2266 189.851 49.2266C192.742 49.2266 194.579 51.1162 194.579 54.0166V54.9307H188.146C188.181 56.2227 188.884 56.9873 190.018 56.9873C191.02 56.9873 191.564 56.416 191.705 56.0205L191.714 55.9766H194.526L194.5 56.082C194.21 57.4092 193.006 59.2021 189.956 59.2021ZM189.921 51.4414C189.007 51.4414 188.348 52.0391 188.189 53.0938H191.644C191.485 52.0215 190.835 51.4414 189.921 51.4414ZM195.792 59V49.4287H198.912V51.125H198.974C199.237 49.9121 199.993 49.2266 201.118 49.2266C201.417 49.2266 201.689 49.2705 201.927 49.3496V52.0127C201.663 51.9072 201.303 51.8369 200.934 51.8369C199.624 51.8369 198.912 52.5576 198.912 53.9199V59H195.792ZM207.086 59.2021C204.238 59.2021 202.709 57.9453 202.498 56.082L202.489 56.0029H205.513L205.53 56.0732C205.68 56.7236 206.172 57.1016 207.086 57.1016C207.912 57.1016 208.413 56.8027 208.413 56.3105V56.3018C208.413 55.8711 208.105 55.6338 207.253 55.458L205.565 55.124C203.693 54.7637 202.718 53.7881 202.718 52.3291V52.3203C202.718 50.4131 204.353 49.2266 206.972 49.2266C209.74 49.2266 211.208 50.6416 211.234 52.3555L211.243 52.4258H208.396L208.387 52.3555C208.316 51.793 207.833 51.3271 206.972 51.3271C206.207 51.3271 205.715 51.6436 205.715 52.1445V52.1533C205.715 52.5664 206.005 52.8125 206.91 52.9971L208.598 53.3311C210.628 53.7354 211.507 54.5264 211.507 55.959V55.9678C211.507 57.9453 209.714 59.2021 207.086 59.2021ZM129.329 69.4004C128.433 69.4004 127.738 68.6973 127.738 67.8623C127.738 67.0273 128.433 66.333 129.329 66.333C130.234 66.333 130.92 67.0273 130.92 67.8623C130.92 68.6973 130.234 69.4004 129.329 69.4004ZM127.773 80V70.4287H130.885V80H127.773ZM132.405 80V70.4287H135.525V72.1162H135.587C136.062 70.9121 137.046 70.2266 138.496 70.2266C140.597 70.2266 141.783 71.5713 141.783 73.8389V80H138.672V74.5068C138.672 73.4082 138.153 72.7666 137.134 72.7666C136.141 72.7666 135.525 73.5049 135.525 74.5684V80H132.405ZM149.904 80V69.9102H146.406V67.3174H156.619V69.9102H153.121V80H149.904ZM160.46 80.2021C157.428 80.2021 155.564 78.374 155.564 75.2188V75.2012C155.564 72.0986 157.489 70.2266 160.46 70.2266C163.439 70.2266 165.355 72.0811 165.355 75.2012V75.2188C165.355 78.3828 163.475 80.2021 160.46 80.2021ZM160.469 77.8379C161.532 77.8379 162.2 76.8975 162.2 75.2188V75.2012C162.2 73.5488 161.515 72.5908 160.46 72.5908C159.405 72.5908 158.729 73.5488 158.729 75.2012V75.2188C158.729 76.9062 159.388 77.8379 160.469 77.8379ZM168.273 80L165.786 70.4287H168.933L170.154 77.1875H170.216L171.675 70.4287H174.654L176.131 77.1875H176.192L177.405 70.4287H180.481L178.012 80H174.654L173.134 73.5576H173.072L171.578 80H168.273ZM181.36 80V70.4287H184.48V72.1162H184.542C185.017 70.9121 186.001 70.2266 187.451 70.2266C189.552 70.2266 190.738 71.5713 190.738 73.8389V80H187.627V74.5068C187.627 73.4082 187.108 72.7666 186.089 72.7666C185.096 72.7666 184.48 73.5049 184.48 74.5684V80H181.36ZM193.217 75.7109L192.944 67.3174H196.144L195.871 75.7109H193.217ZM194.544 80.1143C193.621 80.1143 192.874 79.4199 192.874 78.5322C192.874 77.6533 193.621 76.959 194.544 76.959C195.458 76.959 196.205 77.6533 196.205 78.5322C196.205 79.4199 195.458 80.1143 194.544 80.1143Z" fill="black"/>
<circle cx="157.5" cy="109" r="4" fill="#FF6694"/>
<circle cx="169.5" cy="109" r="4" fill="#FFD7E5"/>
<circle cx="181.5" cy="109" r="4" fill="#FFD7E5"/>
<path d="M327.363 58.0846C333.782 51.6653 333.782 41.2574 327.363 34.8381C320.944 28.4187 310.536 28.4187 304.116 34.8381C297.697 41.2574 297.697 51.6653 304.116 58.0846C310.536 64.504 320.944 64.504 327.363 58.0846Z" fill="#FFF4DD"/>
<path d="M315.207 25.24C318.196 22.2503 318.196 17.403 315.207 14.4133C312.217 11.4236 307.37 11.4236 304.38 14.4133C301.39 17.403 301.39 22.2503 304.38 25.24C307.37 28.2297 312.217 28.2297 315.207 25.24Z" fill="#FFC100"/>
<path d="M318.06 113.5C327.3 113.5 334.791 106.01 334.791 96.7694C334.791 87.5292 327.3 80.0386 318.06 80.0386C308.82 80.0386 301.329 87.5292 301.329 96.7694C301.329 106.01 308.82 113.5 318.06 113.5Z" fill="#FBEED1"/>
<path d="M336.316 126.957H232.684C232.306 126.957 232 126.509 232 125.957C232 125.404 232.306 124.957 232.684 124.957H336.316C336.694 124.957 337 125.404 337 125.957C337 126.509 336.694 126.957 336.316 126.957Z" fill="#6A4A7D"/>
<path d="M312.332 46.91C312.232 45.815 311.843 44.6948 311.229 43.6682C310.006 41.6001 308.075 39.9797 306.647 38.0671C305.185 36.1566 304.04 34.0094 303.252 31.8743C303.13 31.5481 303.02 31.2227 302.915 30.8978C302.899 30.5478 302.882 30.1987 302.86 29.851C302.677 26.9017 302.052 23.74 299.88 21.7372C297.272 19.3329 292.268 19.3675 289.87 21.9819C287.355 20.3625 284.108 19.9832 281.249 20.8637C278.39 21.7443 275.951 23.8389 274.538 26.4756C273.063 29.2276 272.699 32.4189 272.361 35.5231C272.298 36.098 272.236 36.6729 272.173 37.2478C272.139 37.3529 272.108 37.4572 272.073 37.5622C271.247 40.0534 270.017 42.5773 268.927 45.2021C268.386 46.5158 267.879 47.8558 267.498 49.2204C267.109 50.5803 266.858 51.9732 266.783 53.329C266.707 54.6852 266.805 56.0121 267.095 57.2269C267.371 58.4447 267.866 59.5363 268.452 60.4407C268.014 59.4528 267.676 58.3427 267.532 57.1467C267.375 55.9538 267.387 54.6852 267.541 53.3953C267.838 50.8058 268.789 48.1797 269.865 45.5909C270.507 44.0452 271.183 42.4928 271.771 40.9367C271.352 44.7871 270.932 48.6374 270.513 52.4875C270.317 54.29 270.132 56.1814 270.822 57.8587C271.491 59.4861 272.935 60.7144 274.556 61.399C276.177 62.0837 277.968 62.2718 279.727 62.2574C285.302 62.2109 290.838 60.1341 295.067 56.5021C297.683 56.6637 301.32 55.9841 303.819 55.1948C306.319 54.4055 308.628 52.4518 309.052 49.865C309.391 47.7916 308.491 45.713 307.365 43.9391C306.24 42.1653 304.859 40.53 304.056 38.5885C303.361 36.9085 303.138 35.1054 303.027 33.2793C303.71 35.1303 304.69 36.9651 305.946 38.6043C307.466 40.6236 309.414 42.1626 310.671 44.0253C311.302 44.9422 311.75 45.9514 311.95 46.9659C312.154 47.9777 312.084 49.001 311.726 49.8734C312.217 49.0683 312.438 48.0026 312.332 46.91Z" fill="#562D3C"/>
<path d="M279.255 23.8874C282.036 21.9025 286.126 21.9987 288.811 24.1126C289.947 22.1489 292.681 21.0408 294.946 21.1771C297.211 21.3134 299.33 22.0105 300.62 24.7101C301.383 26.3076 302.211 29.1223 302.915 30.8978C302.899 30.5478 302.882 30.1987 302.86 29.851C302.677 26.9017 302.052 23.74 299.88 21.7372C297.272 19.3329 292.268 19.3675 289.87 21.9819C287.355 20.3625 284.108 19.9832 281.249 20.8637C278.39 21.7443 275.951 23.8389 274.538 26.4756C273.063 29.2276 272.699 32.4189 272.361 35.5231C272.298 36.098 272.236 36.6729 272.173 37.2478C272.777 35.5958 273.729 33.5674 274.333 31.9157C275.428 28.9193 276.658 25.7401 279.255 23.8874Z" fill="#B3757E"/>
<path d="M286.955 27.1948C285.711 27.4869 284.299 27.977 282.883 28.6967C281.465 29.413 280.046 30.3571 278.766 31.4656C277.488 32.5764 276.354 33.8487 275.445 35.151C274.532 36.452 273.848 37.7802 273.384 38.9708C274.029 37.8664 274.832 36.6368 275.806 35.421C276.777 34.2038 277.915 33.0022 279.16 31.9193C280.407 30.8395 281.758 29.8815 283.099 29.0922C284.44 28.2998 285.771 27.6781 286.955 27.1948Z" fill="#B3757E"/>
<path d="M285.891 26.8198C284.981 26.8729 283.931 27.0338 282.842 27.3401C281.752 27.6444 280.627 28.0931 279.565 28.6643C278.505 29.2372 277.512 29.9313 276.659 30.6742C275.805 31.4157 275.093 32.2051 274.549 32.9358C275.843 31.6527 277.687 30.1525 279.768 29.041C281.841 27.913 284.108 27.1957 285.891 26.8198Z" fill="#B3757E"/>
<path d="M286.237 25.7216C285.379 25.2012 284.032 24.8528 282.693 24.9707C281.352 25.0706 280.079 25.6324 279.317 26.2844C280.247 25.9071 281.47 25.5439 282.731 25.4469C283.992 25.3389 285.257 25.4998 286.237 25.7216Z" fill="#B3757E"/>
<path d="M299.906 40.1846C298.954 39.537 297.889 38.754 296.827 37.8361C295.763 36.9202 294.704 35.871 293.734 34.7431C292.766 33.6134 291.889 32.407 291.145 31.2172C290.399 30.0283 289.786 28.8569 289.29 27.8178C289.618 28.9205 290.114 30.1663 290.795 31.4215C291.473 32.6773 292.334 33.9406 293.323 35.0952C294.315 36.2484 295.433 37.2905 296.572 38.1512C297.709 39.0142 298.865 39.6938 299.906 40.1846Z" fill="#B3757E"/>
<path d="M301.062 36.1005C299.312 35.1399 297.125 33.7319 295.189 32.0139C293.241 30.3093 291.569 28.3173 290.396 26.7016C291.3 28.4802 292.891 30.6281 294.879 32.3656C296.853 34.119 299.184 35.427 301.062 36.1005Z" fill="#B3757E"/>
<path d="M299.304 30.0262C298.627 28.9548 297.423 27.7427 295.986 26.8763C294.556 25.9981 292.926 25.4858 291.663 25.3764C292.829 25.8779 294.298 26.5495 295.672 27.3916C297.052 28.2254 298.323 29.2214 299.304 30.0262Z" fill="#B3757E"/>
<path d="M278.321 61.2789C277.622 61.0787 276.925 60.7222 276.299 60.218C275.673 59.7124 275.115 59.0688 274.667 58.3306C273.765 56.8472 273.341 55.0077 273.133 53.1537C272.918 51.2916 272.874 49.41 272.971 47.6425C273.064 45.874 273.295 44.2213 273.557 42.7924C273.075 44.1621 272.67 45.8074 272.461 47.5988C272.248 49.3891 272.234 51.3223 272.455 53.2321C272.668 55.1343 273.172 57.0856 274.239 58.6104C274.766 59.3677 275.416 60.0005 276.124 60.46C276.833 60.9191 277.6 61.1911 278.321 61.2789Z" fill="#B3757E"/>
<path d="M285.26 60.4953C283.965 60.4523 282.53 59.9598 281.28 59.0439C280.02 58.1388 278.983 56.818 278.188 55.3679C277.394 53.9131 276.787 52.3432 276.314 50.8423C275.843 49.3373 275.53 47.8842 275.315 46.6088C275.33 49.1909 276.014 52.6236 277.656 55.6617C278.481 57.1701 279.629 58.5501 281.024 59.4219C282.402 60.3055 283.974 60.6589 285.26 60.4953Z" fill="#B3757E"/>
<path d="M304.825 52.3648C305.787 51.9619 306.705 50.9898 307.12 49.7248C307.331 49.0981 307.426 48.3986 307.37 47.7039C307.323 47.0071 307.137 46.3154 306.861 45.6684C306.305 44.3705 305.364 43.2809 304.354 42.4694C303.34 41.6504 302.271 41.0728 301.329 40.6342C302.192 41.2149 303.185 41.8921 304.114 42.7471C305.043 43.597 305.892 44.6489 306.412 45.8616C306.937 47.0657 307.102 48.4232 306.769 49.6185C306.456 50.8178 305.71 51.8131 304.825 52.3648Z" fill="#B3757E"/>
<path d="M301.665 53.7414C302.025 53.2358 302.359 52.5832 302.573 51.8372C302.791 51.093 302.888 50.2603 302.841 49.4342C302.791 48.6082 302.596 47.7926 302.294 47.079C301.993 46.3634 301.585 45.7542 301.168 45.2944C301.508 45.8144 301.842 46.4459 302.089 47.1578C302.338 47.8684 302.501 48.6557 302.549 49.4514C302.595 50.2475 302.525 51.0486 302.361 51.7831C302.199 52.5189 301.942 53.185 301.665 53.7414Z" fill="#B3757E"/>
<path d="M264.672 73.0401C264.457 69.2032 262.85 65.4588 260.216 62.6599C259.909 62.3331 259.388 62.0086 259.062 62.3166C258.821 62.5441 258.906 62.9393 259.01 63.2544C259.593 65.0289 260.176 66.8035 260.759 68.5777C259.982 66.4699 258.899 64.4749 257.555 62.6748C257.347 62.3964 257.119 62.1109 256.797 61.9787C256.476 61.8464 256.038 61.9312 255.893 62.2466C255.774 62.5031 255.881 62.802 255.989 63.0632C256.717 64.8351 257.444 66.6066 258.172 68.3785C257.322 67.305 256.472 66.2316 255.622 65.1582C255.456 64.9482 255.283 64.7324 255.049 64.6025C254.815 64.4722 254.501 64.4476 254.291 64.6153C253.923 64.9101 254.117 65.4958 254.34 65.9115C255.223 67.5615 256.106 69.2116 256.989 70.8616C256.167 69.8629 255.346 68.8642 254.524 67.8652C254.173 67.4377 253.605 66.9674 253.138 67.2643C252.836 67.4555 252.78 67.8928 252.911 68.2246C253.042 68.5565 253.311 68.8103 253.564 69.0624C255.142 70.6374 256.349 72.5813 257.062 74.6938C257.545 76.1264 257.813 77.6522 258.574 78.9585C259.336 80.2646 260.79 81.336 262.275 81.0505C263.113 78.3756 264.828 75.8389 264.672 73.0401Z" fill="#F4C1B1"/>
<path d="M271.616 86.4008C269.8 83.2785 267.984 80.1561 266.169 77.0335C266.811 75.3114 265.803 73.2925 264.491 72.005C263.18 70.7175 261.424 70.0005 259.699 69.3667C259.42 69.264 259.132 69.1614 258.834 69.1637C258.536 69.1661 258.221 69.2953 258.078 69.5569C257.816 70.0349 258.233 70.5899 258.62 70.9736C259.557 71.902 260.493 72.8303 261.43 73.759C260.251 74.683 259.489 76.0759 259.581 77.571C259.675 79.0659 260.541 80.4917 261.826 81.2622L264.806 89.2592L271.616 86.4008Z" fill="#FFE0CB"/>
<path d="M323.022 87.4859L334.626 83.1343L326.964 64.6458C324.761 59.3332 319.441 56.1668 313.905 56.539C313.676 59.2776 312.733 61.9593 311.158 64.2129C308.867 67.4907 305.268 69.8261 301.342 70.5828C298.011 71.2247 294.405 70.7117 291.569 68.8503C289.132 67.2504 287.352 64.6071 286.934 61.7426C283.175 62.2286 280.037 65.0931 279.336 68.9714L276.38 85.3101L285.675 88.56L287.474 95.7418C288.649 100.431 288.301 105.373 286.481 109.851L280.307 125.039H328.18L321.787 109.755C319.771 104.934 319.474 99.5659 320.947 94.5519L323.022 87.4859Z" fill="white"/>
<path d="M284.743 70.6667L283.696 87.6776L280.794 85.9548L284.743 70.6667Z" fill="#A34262"/>
<path d="M305.132 92.8125C308.608 92.551 311.615 91.2833 314.226 88.9746C310.089 90.1975 305.586 89.9864 301.531 88.5215C300.093 88.0021 298.509 88.0267 297.125 88.6757C294.83 89.7521 292.264 90.256 289.733 90.1042C291.042 91.1241 292.687 91.8835 294.331 91.6617C292.567 93.5985 290.14 95.1462 287.543 96.0405C288.63 100.64 288.262 105.466 286.481 109.85L280.307 125.038H328.18L321.787 109.754C321.392 108.809 321.065 107.842 320.802 106.861C319.204 106.422 317.647 105.842 316.159 105.099C311.14 102.59 306.602 98.2271 305.132 92.8125Z" fill="#322A2D"/>
<path d="M314.835 77.9798C314.747 76.6152 314.72 75.0725 314.863 73.4538C315.001 71.8361 315.306 70.1457 315.785 68.5034C316.269 66.8628 316.926 65.2757 317.684 63.8395C318.439 62.4008 319.296 61.1174 320.107 60.0167C318.994 60.8057 317.838 61.9302 316.854 63.3292C315.866 64.7237 315.054 66.3852 314.538 68.1372C314.025 69.8902 313.811 71.7271 313.888 73.434C313.96 75.1436 314.325 76.7145 314.835 77.9798Z" fill="#322A2D"/>
<path d="M332.954 81.2684C329.591 81.7251 324.391 83.3001 321.341 84.7862C324.703 84.3294 329.903 82.7545 332.954 81.2684Z" fill="#322A2D"/>
<path d="M330.107 78.2868C328.014 79.1515 324.924 81.0496 323.207 82.5263C325.301 81.6616 328.39 79.7635 330.107 78.2868Z" fill="#322A2D"/>
<path d="M298.927 72.6172C297.766 72.4226 296.474 72.1267 295.162 71.6552C293.85 71.1869 292.52 70.5477 291.282 69.7608C290.046 68.9694 288.906 68.034 287.928 67.0414C286.948 66.0504 286.134 65.0032 285.469 64.0331C285.795 65.1601 286.4 66.4153 287.294 67.589C288.183 68.7648 289.353 69.8537 290.681 70.7029C292.01 71.5488 293.491 72.151 294.932 72.461C296.373 72.7767 297.767 72.7959 298.927 72.6172Z" fill="#322A2D"/>
<path d="M283.698 87.7574C283.696 87.7574 283.695 87.7574 283.693 87.7574C283.648 87.7547 283.615 87.716 283.617 87.6719L284.664 70.6614C284.667 70.6173 284.7 70.5856 284.75 70.5856C284.794 70.5883 284.828 70.6267 284.825 70.6711L283.778 87.6817C283.776 87.7244 283.74 87.7574 283.698 87.7574Z" fill="#6A4A7D"/>
<path d="M333.729 91.3949L333.694 90.6309C333.591 88.3585 333.163 86.1123 332.423 83.9614L323.022 87.4867L333.729 91.3949Z" fill="#F4C1B1"/>
<path d="M291.571 68.8491C294.406 70.7106 298.012 71.2235 301.343 70.5816C305.27 69.825 308.869 67.4896 311.159 64.2118C312.734 61.9582 313.678 59.2765 313.906 56.5379C312.988 56.5995 312.064 56.7554 311.147 57.0183L303.763 59.1365L297.638 50.4148L289.284 56.7005L291.949 62.0054L288.952 61.7098C288.267 61.6422 287.592 61.6563 286.936 61.7411C287.353 64.6059 289.134 67.2496 291.571 68.8491Z" fill="#FFE0CB"/>
<path d="M297.638 50.4146L289.283 56.7003L290.507 59.1362C293.851 60.4073 298.525 57.224 297.638 50.4146Z" fill="#EEA297"/>
<path d="M299.09 47.7049C299.689 48.4303 300.852 48.4582 301.672 47.9971C302.492 47.5359 303.034 46.7089 303.482 45.8812C303.901 45.105 304.274 44.2709 304.294 43.389C304.314 42.5071 303.907 41.5656 303.114 41.1795C302.266 40.7669 301.207 41.0947 300.504 41.7228C299.801 42.3509 299.259 43.1968 298.851 44.0467C298.282 43.5075 298.116 42.7101 298.087 41.9261C293.559 38.8519 289.745 34.2169 288.008 29.0269C282.214 31.0273 277.343 35.5569 274.929 41.1913C275.579 44.3426 276.561 47.6086 277.952 50.5098C279.344 53.411 281.562 56.0425 284.536 57.2718C287.483 58.49 291.02 58.1662 293.697 56.4327C296.374 54.6982 298.996 50.8929 299.09 47.7049Z" fill="#FFE0CB"/>
<path d="M302.279 42.3208C300.93 42.8085 299.91 44.1031 299.75 45.5286C299.723 45.7632 299.719 46.0056 299.793 46.2298C299.867 46.4539 300.029 46.6589 300.252 46.7363C300.645 46.8727 301.055 46.5842 301.33 46.2725C301.667 45.8915 301.941 45.4159 301.928 44.9076C301.915 44.399 301.533 43.8793 301.025 43.8554C301.33 43.2858 301.74 42.6756 302.279 42.3208Z" fill="#F4C1B1"/>
<path d="M287.673 29.7327C289.822 39.8328 298.088 41.9255 298.088 41.9255C293.56 38.851 289.746 34.2163 288.009 29.0259C282.215 31.0263 277.344 35.556 274.93 41.1903C275.144 42.2288 275.398 43.2793 275.687 44.3255C279.637 35.6085 287.673 29.7327 287.673 29.7327Z" fill="#F4C1B1"/>
<path d="M285.676 38.0067C288.081 38.2814 290.486 38.5564 292.891 38.8314C292.199 37.6213 291.06 36.7727 289.678 36.5846C288.297 36.3961 286.667 37.0262 285.676 38.0067Z" fill="#562D3C"/>
<path d="M275.657 41.2269C277.207 40.5268 278.757 39.8263 280.307 39.1262C279.448 38.6523 278.394 38.6068 277.471 38.939C276.548 39.2713 276.017 40.3144 275.657 41.2269Z" fill="#562D3C"/>
<path d="M292.701 48.4116C289.776 49.8358 286.768 51.0903 283.698 52.1661C284.829 53.0217 286.152 53.7528 287.57 53.775C288.987 53.7973 290.425 53.2823 291.437 52.2893C292.45 51.2966 292.921 49.8122 292.701 48.4116Z" fill="white"/>
<path d="M303.031 72.4393L309.669 81.4255C310.257 82.2216 311.213 82.6592 312.2 82.5841L314.858 82.3822L315.933 79.1585L308.314 69.0288L303.031 72.4393Z" fill="#C86CFF"/>
<path d="M300.275 74.0895L300.329 75.1531C300.382 76.1956 301.177 77.0485 302.213 77.1741L303.521 77.3326L306.377 80.6387C307.059 81.4277 308.086 81.83 309.122 81.7142L313.24 81.2544L321.294 95.734C323.372 99.4706 328.39 100.295 331.555 97.4204C334.464 94.778 334.453 90.2006 331.53 87.5731L318.633 75.9785L316.735 70.9018C315.998 68.9317 314.401 67.4069 312.399 66.7623L310.854 66.2651L308.315 68.3066C308.638 71.812 304.271 72.5835 303.029 72.4398L300.275 74.0895Z" fill="#FFE0CB"/>
<path d="M310.7 71.8887C312.158 70.747 313.369 69.1592 313.775 67.3806C313.344 67.1272 312.883 66.9185 312.398 66.7623L310.853 66.2651L308.315 68.3066C308.637 71.812 304.27 72.5835 303.028 72.4398L300.274 74.0891L300.328 75.1528C300.363 75.8354 300.719 76.4319 301.25 76.8011C302.336 76.1235 303.512 75.5688 304.687 75.0542C306.768 74.1423 308.912 73.2893 310.7 71.8887Z" fill="#F4C1B1"/>
<path d="M327.107 99.2263C326.741 99.2263 326.373 99.1966 326.004 99.136C323.969 98.8018 322.227 97.5759 321.224 95.7731L313.195 81.3402L309.13 81.794C308.065 81.9121 307.015 81.5005 306.316 80.6913L303.48 77.4087L302.204 77.2539C301.126 77.1233 300.303 76.2414 300.249 75.1572L300.192 74.0451L303.012 72.3567L303.039 72.3597C303.878 72.4576 306.067 72.1227 307.312 70.9073C308.019 70.2162 308.33 69.3437 308.235 68.3141L308.231 68.271L308.265 68.2441L310.837 66.1753L312.423 66.6859C314.462 67.342 316.06 68.8684 316.81 70.8736C316.826 70.9153 316.805 70.9618 316.763 70.9776C316.721 70.9927 316.675 70.9722 316.659 70.9305C315.927 68.9715 314.365 67.4803 312.374 66.8394L310.871 66.3557L308.4 68.343C308.486 69.4047 308.158 70.3061 307.424 71.0227C306.138 72.2782 303.962 72.6189 303.048 72.5229L300.358 74.1336L300.41 75.1488C300.461 76.1545 301.223 76.9728 302.223 77.094L303.562 77.2566L306.439 80.5866C307.103 81.3557 308.101 81.7448 309.113 81.6344L313.285 81.1689L313.311 81.2157L321.365 95.6953C322.344 97.4547 324.044 98.651 326.031 98.9772C328.018 99.3044 330.012 98.7143 331.502 97.3611L331.61 97.4803C330.359 98.616 328.762 99.2263 327.107 99.2263Z" fill="#6A4A7D"/>
<path d="M306.283 77.7482C306.28 77.7482 306.277 77.7478 306.273 77.7475L302.81 77.3271C302.766 77.3217 302.734 77.2816 302.74 77.2372C302.745 77.1931 302.782 77.1628 302.83 77.1669L306.293 77.5873C306.337 77.5927 306.368 77.6327 306.363 77.6772C306.358 77.7182 306.323 77.7482 306.283 77.7482Z" fill="#6A4A7D"/>
<path d="M287.312 73.3853C292.778 61.9135 302.359 49.6427 310.346 57.0247C320.284 66.2116 302.124 71.4825 293.69 78.571L287.312 73.3853Z" fill="#C86CFF"/>
<path d="M288.031 73.33C287.681 73.2351 287.426 73.2458 287.312 73.3862C286.956 73.8234 288.096 75.3392 289.857 76.7711C291.618 78.203 293.334 79.0091 293.69 78.5719C293.804 78.4315 293.762 78.1797 293.598 77.8563C292.856 77.655 291.681 76.972 290.485 75.9992C289.288 75.0265 288.38 74.016 288.031 73.33Z" fill="#7D01C8"/>
<path d="M291.144 75.1866C289.947 74.2138 288.773 73.5309 288.03 73.3296C288.379 74.0152 289.287 75.0257 290.483 75.9988C291.68 76.9716 292.854 77.6546 293.597 77.8559C293.249 77.1702 292.34 76.1597 291.144 75.1866Z" fill="#6A4A7D"/>
<path d="M307.657 58.5845C307.539 58.5845 307.422 58.5919 307.307 58.6053C308.998 58.8056 310.317 60.4395 310.317 62.4258C310.317 64.4121 308.998 66.0459 307.307 66.2462C307.422 66.2597 307.539 66.2671 307.657 66.2671C309.513 66.2671 311.017 64.5474 311.017 62.4258C311.017 60.3042 309.513 58.5845 307.657 58.5845Z" fill="#6A4A7D"/>
<path d="M310.316 62.4244C310.316 60.4382 308.998 58.8043 307.306 58.604C305.615 58.8043 304.296 60.4382 304.296 62.4244C304.296 64.4107 305.615 66.0446 307.306 66.2449C308.998 66.0446 310.316 64.4107 310.316 62.4244Z" fill="#634269"/>
<path d="M302.78 57.9958C302.621 57.915 302.458 57.8477 302.291 57.7935C301.696 57.5996 301.044 57.7369 300.535 58.1018C296.864 60.7324 293.776 64.1738 291.558 68.1076C291.29 68.5823 291.51 69.1871 292.023 69.3716C292.031 69.3746 292.04 69.3776 292.049 69.3807C292.985 69.7169 294.03 69.4133 294.629 68.62C297.191 65.2297 300 61.726 302.908 58.6959C303.116 58.4795 303.047 58.1321 302.78 57.9958Z" fill="#37104A"/>
<path d="M292.006 70.8305C291.802 70.7776 291.594 70.7308 291.387 70.6901C290.865 70.5881 290.336 70.8382 290.06 71.2926L289.625 72.0096C289.432 72.326 289.569 72.738 289.912 72.8773C290.064 72.9389 290.218 73.0032 290.372 73.0669C290.958 73.3099 291.644 73.0891 291.955 72.536C292.114 72.2553 292.256 71.9615 292.395 71.6706C292.557 71.3313 292.371 70.9244 292.006 70.8305Z" fill="#37104A"/>
<path d="M307.001 59.1988C306.13 59.8316 305.289 60.4991 304.474 61.1965C304.379 61.5156 304.321 61.8529 304.304 62.2033C305.27 61.3402 306.274 60.5199 307.326 59.7552C307.659 59.5138 307.338 58.9541 307.001 59.1988Z" fill="#6A4A7D"/>
<path d="M308.156 59.8608C306.816 60.8342 305.544 61.8851 304.337 63.012C304.371 63.2648 304.426 63.5092 304.501 63.7431C305.753 62.5485 307.077 61.4371 308.481 60.4172C308.813 60.1758 308.492 59.6164 308.156 59.8608Z" fill="#6A4A7D"/>
<path d="M308.784 60.9682C307.361 62.0022 306.013 63.1231 304.74 64.3308C304.841 64.5308 304.956 64.7189 305.085 64.8943C306.35 63.6835 307.689 62.5569 309.109 61.5249C309.442 61.2836 309.12 60.7238 308.784 60.9682Z" fill="#6A4A7D"/>
<path d="M309.33 62.0678C307.96 63.0635 306.658 64.1392 305.427 65.2958C305.581 65.452 305.747 65.5917 305.925 65.7139C307.103 64.6091 308.345 63.5768 309.656 62.6245C309.988 62.3829 309.667 61.8234 309.33 62.0678Z" fill="#6A4A7D"/>
<path d="M309.099 63.812C308.159 64.495 307.252 65.2164 306.377 65.9747C306.606 66.0824 306.848 66.1595 307.098 66.2076C307.85 65.5678 308.623 64.9515 309.425 64.3688C309.757 64.1271 309.436 63.5673 309.099 63.812Z" fill="#6A4A7D"/>
<path d="M301.495 90.481C303.146 96.2752 307.777 101.133 313.486 103.059C319.195 104.986 325.822 103.927 330.646 100.317C329.562 104.058 327.178 107.274 323.91 109.393C324.592 109.277 325.254 109.216 325.936 109.1C324.43 111.003 322.34 112.427 320.002 113.075C317.663 113.723 315.12 113.608 312.85 112.751C313.105 113.313 313.619 113.959 314.215 114.122C312.245 113.784 310.417 113.053 308.871 111.787C307.324 110.52 306.036 108.967 304.859 107.351C302.414 103.992 300.346 100.073 300.514 95.9215C300.587 94.1099 301.694 92.2828 301.495 90.481Z" fill="#949AA3"/>
<path d="M304.627 96.6465C303.215 94.8056 302.132 92.7143 301.496 90.481C301.694 92.2831 300.588 94.1099 300.514 95.9211C300.388 99.0401 301.524 102.027 303.133 104.745C304.135 102.171 304.645 99.408 304.627 96.6465Z" fill="#3A3F50"/>
<path d="M267.095 114.831C276.175 115.154 288.478 110.264 289.982 109.136L293.743 113.058C293.85 116.389 292.668 120.418 291.647 121.976C288.692 120.74 287.188 123.611 287.672 125.039H294.656C297.821 121.665 299.545 117.526 300.367 115.026C300.804 113.698 300.926 112.289 300.733 110.904L300.313 107.87C300.124 106.508 300.244 105.12 300.661 103.809C308.073 80.5158 293.117 76.3551 283.857 80.0176C274.347 83.7785 267.336 85.2289 264.436 83.2948C252.858 97.4243 260.917 114.401 260.917 114.401L267.095 114.831Z" fill="#949AA3"/>
<path d="M288.665 88.5591C288.665 88.5591 283.858 95.7048 285.42 106.727C281.009 108.97 276.154 110.5 271.24 111.093C271.524 108.006 271.183 104.862 270.243 101.909C269.354 106.762 266.604 111.352 262.779 114.531L267.096 114.831C276.175 115.153 288.478 110.264 289.982 109.136C287.246 106.282 285.124 101.423 288.665 88.5591Z" fill="#3A3F50"/>
<path d="M276.38 113.905C276.343 113.905 276.31 113.879 276.302 113.841C276.292 113.798 276.32 113.755 276.363 113.746C282.906 112.33 288.711 109.897 289.859 109.123C287.748 106.891 285.598 103.087 287.401 93.5747C287.41 93.5313 287.453 93.503 287.495 93.5105C287.539 93.5189 287.568 93.5613 287.56 93.605C285.751 103.142 287.935 106.885 290.04 109.08L290.103 109.145L290.03 109.2C289.077 109.915 283.119 112.448 276.397 113.903C276.392 113.904 276.386 113.905 276.38 113.905Z" fill="#6A4A7D"/>
<path d="M256.864 72.0642C256.433 69.9938 255.697 67.9782 254.679 66.1245C253.572 67.6857 252.765 69.4579 252.313 71.3176C253.757 71.529 255.421 71.8525 256.864 72.0642Z" fill="#797C99"/>
<path d="M255.554 71.8552C256.002 71.9306 256.443 72.0023 256.865 72.0642C256.434 69.9938 255.698 67.9782 254.68 66.1245C254.499 66.4214 254.346 66.795 254.214 67.2114C254.914 68.6712 255.368 70.2469 255.554 71.8552Z" fill="#F6DCC5"/>
<path d="M254.212 67.2124C253.785 68.5625 253.592 70.3674 253.509 71.5081C254.183 71.6205 254.876 71.7427 255.552 71.8565C255.367 70.2479 254.913 68.6722 254.212 67.2124Z" fill="#EBA7AC"/>
<path d="M260.809 100.137C261.696 93.6099 266.128 86.8405 265.75 83.6226C265.614 81.7342 264.871 79.9254 263.837 78.3393C262.804 76.7532 261.486 75.3725 260.111 74.0712C259.142 73.1539 258.126 72.2609 256.936 71.6591C254.943 70.6523 252.594 70.5409 250.395 70.9236C248.195 71.3063 246.107 72.1515 244.039 72.9913L242.328 66.9625C239.803 70.8307 239.642 77.8149 239.642 77.8149C232.336 98.1763 236.096 109.673 260.917 114.401C264.355 105.268 260.809 100.137 260.809 100.137Z" fill="#949AA3"/>
<path d="M244.04 73.0718C244.008 73.0718 243.978 73.053 243.965 73.0214C243.948 72.98 243.968 72.9332 244.009 72.9167C246.053 72.0873 248.166 71.2296 250.381 70.8445C252.118 70.5419 254.673 70.4248 256.972 71.5874C257.012 71.6073 257.028 71.6558 257.008 71.6955C256.988 71.7359 256.94 71.7517 256.9 71.7312C254.64 70.5897 252.122 70.7052 250.409 71.0034C248.21 71.3858 246.105 72.2401 244.07 73.0661C244.06 73.0698 244.05 73.0718 244.04 73.0718Z" fill="#6A4A7D"/>
<path d="M264.562 88.6852C264.552 88.6852 264.542 88.6835 264.533 88.6798C264.491 88.6637 264.47 88.6172 264.486 88.5755C265.188 86.7534 265.818 84.8934 265.669 83.6318C265.544 81.8902 264.905 80.1254 263.769 78.3828C263.19 77.4935 262.477 76.6029 261.59 75.6597C261.56 75.6274 261.561 75.5762 261.594 75.5456C261.626 75.5153 261.677 75.517 261.708 75.5493C262.601 76.4995 263.319 77.3972 263.904 78.2943C265.055 80.0601 265.702 81.8505 265.829 83.6163C265.982 84.9092 265.346 86.7918 264.636 88.633C264.624 88.6657 264.594 88.6852 264.562 88.6852Z" fill="#6A4A7D"/>
<path d="M260.917 114.482C260.912 114.482 260.907 114.482 260.902 114.481C253.661 113.102 248.224 111.162 244.278 108.55C244.241 108.526 244.231 108.476 244.256 108.439C244.28 108.401 244.331 108.392 244.367 108.416C248.295 111.016 253.713 112.947 260.932 114.323C260.976 114.331 261.004 114.373 260.996 114.417C260.989 114.455 260.955 114.482 260.917 114.482Z" fill="#6A4A7D"/>
<path d="M242.328 66.9623C242.328 66.9623 242.039 67.8964 241.75 69.3717C242.331 70.6899 242.67 72.114 242.926 73.555C243.242 73.3669 243.61 73.1757 244.039 72.9909L242.328 66.9623Z" fill="#CEC0B4"/>
<path d="M241.173 75.1281C241.173 75.1281 241.563 74.367 242.926 73.5548C242.67 72.1135 242.331 70.6897 241.75 69.3715C241.457 70.8684 241.164 72.923 241.173 75.1281Z" fill="#EBA7AC"/>
<path d="M245.554 121.277C243.11 120.807 241.659 123.104 242.142 125.038H248.509C252.299 120.21 254.41 116.47 255.712 113.228C252.492 112.376 249.718 111.372 247.358 110.21C247.604 113.31 247.548 116.853 245.554 121.277Z" fill="#3A3F50"/>
<path d="M248.09 123.105C247.986 122.407 247.716 121.72 247.229 121.211C246.871 120.837 246.426 120.548 245.942 120.367C245.821 120.666 245.692 120.969 245.554 121.277C246.65 121.591 247.534 122.178 248.09 123.105Z" fill="#6A4A7D"/>
<path d="M281.585 113.058C281.693 116.389 280.511 120.419 279.49 121.977C276.535 120.741 275.031 123.612 275.514 125.039H282.498C285.663 121.665 287.387 117.526 288.209 115.027C288.646 113.699 288.768 112.289 288.576 110.904L288.444 109.95C286.835 110.682 284.21 111.687 281.143 112.598L281.585 113.058Z" fill="#3A3F50"/>
<path d="M252.242 75.6151C252.56 76.3341 252.468 77.072 252.035 77.2635C251.603 77.4547 250.995 77.0269 250.677 76.3079C250.358 75.5889 250.451 74.8507 250.883 74.6595C251.315 74.4683 251.924 74.8962 252.242 75.6151Z" fill="black"/>
<path d="M259.053 74.968C259.326 75.5847 259.266 76.2091 258.919 76.3626C258.571 76.5161 258.069 76.1408 257.796 75.5241C257.523 74.9074 257.583 74.2831 257.93 74.1296C258.278 73.9761 258.78 74.3514 259.053 74.968Z" fill="black"/>
<path d="M259.054 77.3357C257.765 77.3314 256.477 77.6959 255.381 78.3745C255.197 78.4883 255.162 78.7468 255.324 78.8902C255.977 79.4688 256.978 79.8754 257.882 80.0242C258.299 80.0928 258.723 79.8835 258.901 79.4994C259.158 78.946 259.316 78.2769 259.369 77.6905C259.385 77.5037 259.242 77.3364 259.054 77.3357Z" fill="black"/>
<path d="M252.073 79.694C252.446 80.7425 251.409 82.068 249.758 82.6547C248.107 83.2414 246.466 82.8671 246.093 81.8186C245.721 80.7701 246.758 79.4446 248.409 78.8579C250.06 78.2712 251.701 78.6455 252.073 79.694Z" fill="#FFC3C7"/>
<path d="M263.017 77.6576C263.082 78.3029 262.523 78.8879 261.768 78.9643C261.013 79.0407 260.348 78.5799 260.283 77.9347C260.217 77.2894 260.776 76.7044 261.531 76.628C262.286 76.5512 262.951 77.0124 263.017 77.6576Z" fill="#FFC3C7"/>
<path d="M256.44 101.307C256.056 100.789 255.228 101.096 255.279 101.739C255.41 103.386 255.657 104.996 256.041 106.595C256.257 107.497 255.176 108.155 254.474 107.548C251.195 104.715 248.502 101.177 246.471 97.3309C246.164 96.7506 245.283 96.9462 245.257 97.6019C245.183 99.4953 245.389 101.412 245.882 103.24C246.127 104.152 245.028 104.838 244.318 104.216C242.082 102.26 240.236 99.8578 238.938 97.1859C237.631 94.4981 236.884 91.5431 236.733 88.5591C234.553 102.334 240.854 110.579 260.917 114.401C261.976 111.587 262.372 109.155 262.413 107.134C260.132 105.508 258.097 103.549 256.44 101.307Z" fill="#3A3F50"/>
<path d="M293.588 123.547C293.675 122.336 292.868 121.4 292.23 120.856C292.037 121.302 291.839 121.683 291.647 121.976C292.581 122.399 293.326 123.104 293.588 123.547Z" fill="#797C99"/>
<path d="M260.809 100.138C257.693 106.02 262.744 111.5 258.338 121.278C255.894 120.808 254.443 123.105 254.927 125.039H261.293C268.949 115.288 269.755 109.969 270.883 104.248C272.011 98.526 263.549 94.8998 260.809 100.138Z" fill="#949AA3"/>
<path d="M260.876 123.106C260.771 122.408 260.502 121.721 260.014 121.212C259.656 120.838 259.211 120.549 258.727 120.368C258.606 120.667 258.478 120.97 258.339 121.278C259.435 121.592 260.319 122.179 260.876 123.106Z" fill="#797C99"/>
<path d="M261.332 125.119H254.864L254.849 125.058C254.583 123.997 254.891 122.805 255.633 122.02C256.314 121.301 257.255 121.006 258.29 121.187C258.417 120.905 258.538 120.62 258.651 120.338C260.616 115.455 260.227 111.673 259.885 108.336C259.579 105.359 259.314 102.788 260.738 100.1C260.759 100.06 260.809 100.046 260.847 100.066C260.887 100.087 260.902 100.136 260.881 100.175C259.479 102.821 259.742 105.369 260.045 108.32C260.39 111.675 260.781 115.479 258.801 120.398C258.679 120.702 258.548 121.009 258.411 121.311L258.385 121.37L258.323 121.357C257.319 121.166 256.406 121.44 255.75 122.132C255.059 122.862 254.764 123.965 254.99 124.959H261.254C263.152 122.539 264.686 120.325 265.941 118.191C265.963 118.153 266.012 118.14 266.051 118.163C266.09 118.185 266.102 118.235 266.08 118.273C264.815 120.422 263.27 122.651 261.356 125.089L261.332 125.119Z" fill="#6A4A7D"/>
<path d="M255.713 125.119C255.675 125.119 255.641 125.092 255.634 125.053C255.271 123.044 256.208 122.082 256.564 121.904C256.603 121.885 256.652 121.9 256.672 121.94C256.692 121.98 256.676 122.028 256.636 122.048C256.308 122.213 255.447 123.112 255.793 125.024C255.8 125.068 255.771 125.11 255.727 125.118C255.723 125.119 255.718 125.119 255.713 125.119Z" fill="#6A4A7D"/>
<path d="M257.344 125.119C257.307 125.119 257.273 125.093 257.265 125.054C257.004 123.745 257.398 122.805 257.762 122.555C257.799 122.53 257.849 122.539 257.874 122.575C257.9 122.612 257.89 122.662 257.853 122.687C257.536 122.906 257.179 123.8 257.424 125.023C257.432 125.066 257.404 125.109 257.36 125.117C257.355 125.118 257.349 125.119 257.344 125.119Z" fill="#6A4A7D"/>
<path d="M294.692 125.118H287.615L287.596 125.064C287.31 124.217 287.682 123.03 288.461 122.303C288.939 121.858 289.979 121.217 291.617 121.875C292.673 120.211 293.765 116.222 293.663 113.06C293.662 113.015 293.697 112.978 293.741 112.976C293.79 112.975 293.823 113.01 293.825 113.055C293.929 116.282 292.797 120.37 291.716 122.02L291.68 122.076L291.618 122.05C290.439 121.556 289.357 121.688 288.572 122.421C287.785 123.155 287.532 124.27 287.732 124.957H294.623C297.675 121.693 299.39 117.742 300.292 115C300.721 113.699 300.846 112.286 300.656 110.914L300.235 107.88C300.046 106.517 300.167 105.1 300.587 103.784C300.6 103.741 300.645 103.719 300.688 103.732C300.73 103.745 300.753 103.791 300.74 103.833C300.328 105.127 300.209 106.518 300.395 107.858L300.815 110.892C301.009 112.288 300.881 113.726 300.445 115.051C299.536 117.815 297.804 121.802 294.716 125.093L294.692 125.118Z" fill="#6A4A7D"/>
<path d="M288.572 125.118C288.534 125.118 288.5 125.091 288.493 125.052C288.251 123.723 288.841 122.68 289.239 122.469C289.278 122.448 289.328 122.462 289.348 122.502C289.369 122.541 289.355 122.59 289.315 122.611C289.029 122.763 288.411 123.703 288.652 125.024C288.659 125.067 288.631 125.109 288.587 125.117C288.582 125.118 288.577 125.118 288.572 125.118Z" fill="#6A4A7D"/>
<path d="M290.083 125.119C290.047 125.119 290.013 125.094 290.005 125.057C289.696 123.742 290.415 122.923 290.446 122.889C290.476 122.857 290.527 122.854 290.56 122.883C290.593 122.913 290.596 122.964 290.566 122.997C290.559 123.005 289.873 123.79 290.161 125.02C290.172 125.063 290.145 125.107 290.101 125.117C290.095 125.118 290.089 125.119 290.083 125.119Z" fill="#6A4A7D"/>
</g>
<defs>
<linearGradient id="paint0_linear_1_415" x1="171" y1="0" x2="171" y2="270" gradientUnits="userSpaceOnUse">
<stop offset="0.05" stop-color="#FFB5B1"/>
<stop offset="1" stop-color="#CD7ED9"/>
</linearGradient>
<clipPath id="clip0_1_415">
<rect width="342" height="127" rx="20" fill="white"/>
</clipPath>
</defs>
</svg>
