<svg width="166" height="140" viewBox="0 0 166 140" fill="none" xmlns="http://www.w3.org/2000/svg">
<g clip-path="url(#clip0_1_1892)">
<rect width="166" height="140" rx="30" transform="matrix(-1 0 0 1 166 0)" fill="#FFE7EA"/>
<path d="M187 7.5C187 24.3447 173.345 38 156.5 38C139.655 38 126 24.3447 126 7.5C126 -9.34468 139.655 -23 156.5 -23C173.345 -23 187 -9.34468 187 7.5Z" fill="#FFCBCB"/>
<ellipse cx="3" cy="117" rx="46" ry="48" fill="#FFCBCB"/>
<path d="M158.2 65.7073C157.786 66.554 151.246 64.2268 151.246 64.2268C151.246 64.2268 152.732 61.2121 155.187 61.5009C157.641 61.7897 158.2 65.7073 158.2 65.7073Z" fill="#B7A088"/>
<path d="M143.962 43.9426C143.962 43.9426 139.738 50.0332 137.61 52.9549L139.031 53.7602C139.031 53.7602 140.278 52.0097 142.289 50.4663C144.299 48.9229 146.456 45.5313 146.456 45.5313L143.962 43.9426Z" fill="#FFD3C7"/>
<path d="M151.165 29.1945C148.733 29.2358 147.62 30.1428 146.775 32.2034C145.93 34.2641 143.998 43.4871 143.998 43.4871L141.255 47.4625C141.255 47.4625 143.441 49.4362 144.311 49.2635C144.311 49.2635 146.593 46.9197 147.034 45.3652C147.773 42.7632 149.919 35.6152 149.919 35.6152L151.165 29.1945Z" fill="#F50000"/>
<path d="M147.429 41.9062C147.429 41.9062 151.639 53.6447 154.809 54.992C157.978 56.3397 164.331 55.9334 164.331 55.9334C164.331 55.9334 160.036 46.1368 159.464 42.3347C158.893 38.5326 160.725 37.2378 158.124 35.3106C155.524 33.3831 147.872 33.4795 147.872 33.4795C147.872 33.4795 145.448 36.3279 147.429 41.9062Z" fill="#626BA0"/>
<path d="M160.656 22.165C160.745 23.7145 160.39 27.3287 162.157 29.0607C163.925 30.7927 166.222 32.7369 165.692 34.3982C165.692 34.3982 165.586 33.3023 164.702 32.5247C164.702 32.5247 165.656 34.0092 165.197 35.2818C164.738 36.5544 163.573 36.8371 160.656 35.6352C157.739 34.4334 152.407 32.039 152.139 28.1462C151.871 24.2531 150.634 21.2546 152.601 19.4299C155.11 17.1045 160.507 19.5766 160.656 22.165Z" fill="#0B0C0D"/>
<path d="M154.702 57.8868L145.8 52.9406C144.683 63.0802 150.707 69.1882 151.209 71.5655C151.463 72.7688 155.87 88.9505 155.692 89.753C155.475 90.7275 153.993 92.6088 153.443 93.0527C153.44 93.055 153.438 93.0555 153.429 93.0584C153.361 93.0755 153.011 93.1806 152.699 93.4451C152.604 93.5236 152.518 93.6244 152.437 93.735H155.436C155.591 93.5822 155.789 93.3455 156.019 92.9758C156.491 92.2196 157.401 92.3902 157.401 92.3902C157.682 92.6357 157.727 93.7558 157.735 94.0194H158.087C158.21 93.7047 158.639 92.2597 158.509 91.7194C158.401 91.2846 158.061 90.2826 157.936 89.7969C157.268 87.211 156.718 86.5393 156.3 79.4502C156.072 75.5759 156.3 72.6507 154.697 70.6993C154.697 70.6993 153.96 66.4316 154.702 57.8868Z" fill="#FFD3C7"/>
<path d="M146.035 93.7351C146.191 93.5823 146.388 93.3456 146.618 92.9759C147.09 92.2197 148 92.3903 148 92.3903C148.281 92.6361 148.326 93.7559 148.333 94.0195H148.686C148.809 93.7048 149.238 92.2598 149.108 91.7195C149 91.2847 148.675 90.2783 148.534 89.797C148.495 89.6627 148.463 89.5466 148.456 89.4071C148.849 87.7623 150.199 82.1485 152.545 77.6236C154.408 74.0297 155.008 72.6011 155.378 69.3794C155.747 66.1574 159.071 64.7295 159.071 58.2993C159.071 53.7654 154.559 46.9001 152.86 53.8668C151.161 60.8338 150.934 69.3791 150.65 71.0848C150.365 72.7906 147.81 84.7433 146.29 89.7531C146 90.7083 144.591 92.6089 144.042 93.0528C144.039 93.0551 144.036 93.0556 144.028 93.0585C143.96 93.0756 143.61 93.181 143.297 93.4452C143.203 93.524 143.116 93.6245 143.036 93.7351H146.035Z" fill="#FFD3C7"/>
<path d="M149.128 94.0183C149.128 94.0183 149.333 91.2517 148.793 90.5292C148.252 89.8067 146.764 91.2003 146.764 91.2003L145.438 90.5965C145.438 90.5965 145.505 91.4622 144.432 92.1699C143.358 92.8777 142.486 92.6764 142.419 94.0183H149.128Z" fill="#6B0567"/>
<path d="M158.678 94.0184C158.678 94.0184 158.883 91.2518 158.343 90.5293C157.802 89.8068 156.314 91.2004 156.314 91.2004L154.988 90.5966C154.988 90.5966 155.055 91.4623 153.982 92.17C152.908 92.8778 152.036 92.6765 151.969 94.0184H158.678Z" fill="#6B0567"/>
<path d="M153.899 62.0929C153.833 62.1278 153.771 62.159 153.709 62.1899C151.971 63.0822 150.411 63.3963 149.216 63.474C147.742 63.5673 146.823 63.2996 146.823 63.2996C143.184 54.5284 147.583 44.7951 147.583 44.7951C147.583 44.7951 157.867 59.9748 153.899 62.0929Z" fill="#FFF68E"/>
<path d="M153.707 62.19C151.969 63.0823 150.41 63.3965 149.215 63.4742C149.165 61.9766 149.654 59.8508 149.654 59.8508H148.49C148.49 59.8508 150.755 58.2293 150.096 58.2293C149.452 58.2293 147.458 56.0685 147.334 55.9328L150.755 58.2293L153.707 62.19Z" fill="#FFE500"/>
<path d="M147.582 44.7959C147.582 44.7959 146.349 47.8839 147.582 52.0863C148.815 56.2889 150.755 58.2285 150.755 58.2285C150.755 58.2285 150.704 62.7231 151.246 64.2259C151.246 64.2259 156.466 63.9385 158.201 65.7063C158.201 65.7063 163.382 54.6193 155.71 45.1739L147.582 44.7959Z" fill="#FFF68E"/>
<path d="M147.301 39.4398L147.582 44.7963C151.347 46.4422 155.71 45.1746 155.71 45.1746C155.973 42.8674 157.275 40.462 157.89 39.5957C159.542 37.2683 163.472 33.1736 161.54 30.7393C161.223 30.338 160.824 30.0405 160.368 29.8182C158.979 29.1511 157.07 29.1916 155.364 29.1569C152.782 29.1049 151.165 29.1945 151.165 29.1945C151.015 29.3013 150.871 29.4053 150.729 29.5121C144.593 34.1496 147.301 39.4398 147.301 39.4398Z" fill="#FF859F"/>
<path d="M158.093 19.1925C158.093 19.1925 153.313 17.6938 152.422 21.0561C151.53 24.4185 152.466 27.9287 154.691 27.6498C157.821 27.2573 161.819 21.0021 158.093 19.1925Z" fill="#FFD3C7"/>
<path d="M155.792 23.9348C155.817 24.1346 155.635 24.322 155.385 24.3532C155.135 24.3844 154.912 24.2478 154.887 24.048C154.862 23.8481 155.044 23.6607 155.294 23.6296C155.544 23.5981 155.767 23.7347 155.792 23.9348Z" fill="#FFD3C7"/>
<path d="M155.384 21.8936C155.354 21.8924 155.324 21.8768 155.306 21.8497C155.102 21.5444 154.72 21.588 154.716 21.5889C154.662 21.5958 154.613 21.5571 154.606 21.5031C154.599 21.4491 154.638 21.3998 154.692 21.3928C154.712 21.3902 155.199 21.3345 155.47 21.7402C155.5 21.7856 155.488 21.8468 155.442 21.8771C155.425 21.8889 155.404 21.8941 155.384 21.8936Z" fill="#0E3944"/>
<path d="M153.185 21.4261C153.165 21.4253 153.145 21.4183 153.128 21.4048C152.843 21.1778 152.501 21.3297 152.487 21.336C152.437 21.3588 152.378 21.3369 152.356 21.2875C152.333 21.2381 152.354 21.1798 152.404 21.157C152.423 21.148 152.87 20.9465 153.251 21.2506C153.293 21.2846 153.301 21.3467 153.267 21.3892C153.246 21.4146 153.216 21.4273 153.185 21.4261Z" fill="#0E3944"/>
<path d="M156.297 20.9788C156.297 20.9788 157.054 22.3481 157.033 24.1474C157.033 24.1474 158.106 23.1185 158.539 23.9591C158.972 24.7997 157.327 26.0714 157.327 26.0714C157.327 26.0714 160.018 26.171 160.267 22.6885C160.371 21.2216 158.506 19.9525 156.297 20.9788Z" fill="#0E3944"/>
<path d="M157.254 25.3234C156.908 26.3119 155.544 28.039 154.055 27.5819C154.055 27.5819 154.429 29.5711 153.66 29.5749C153.66 29.5749 153.221 30.7276 154.704 30.8605C156.559 31.0265 157.562 29.8839 157.562 29.8839C156.721 28.1036 157.785 25.4947 157.785 25.4947C157.39 25.7661 157.254 25.3234 157.254 25.3234Z" fill="#FFD3C7"/>
<path d="M152.997 24.4378L153.081 24.2377C153.044 24.2221 152.728 24.0762 152.848 23.7676C152.884 23.674 152.936 23.6139 153.001 23.5891C153.117 23.5449 153.251 23.6139 153.252 23.6148L153.354 23.4231C153.345 23.4184 153.134 23.3087 152.927 23.3858C152.8 23.4326 152.705 23.5348 152.645 23.6893C152.487 24.0985 152.806 24.3578 152.997 24.4378Z" fill="#FFD3C7"/>
<path d="M156.309 21.0835C156.309 21.0835 156.241 20.5331 155.842 20.1664C155.443 19.7997 153.451 19.6047 153.093 19.8268C152.544 20.1664 152.14 21.0838 152.14 21.0838C152.14 21.0838 151.92 20.3968 152.603 19.1087C153.286 17.8205 156.521 16.8384 158.553 18.0324C160.585 19.2265 161.594 21.7809 160.727 24.9405C159.683 28.7487 158.808 21.8308 158.808 21.8308L156.309 21.0835Z" fill="#0B0C0D"/>
<path d="M156.573 20.8801C156.573 20.8801 156.006 22.5064 157.328 24.111C158.651 25.7157 160.639 28.3538 160.568 29.344C160.568 29.344 161.176 27.2941 160.271 24.6782C159.367 22.0623 156.573 20.8801 156.573 20.8801Z" fill="#0B0C0D"/>
<path d="M156.347 20.7191C156.347 20.7191 156.339 20.7581 156.323 20.8314C156.309 20.9039 156.29 21.0099 156.272 21.1447C156.236 21.4144 156.202 21.8011 156.213 22.2649C156.218 22.4964 156.233 22.7474 156.267 23.0104C156.298 23.2738 156.346 23.5498 156.415 23.8305C156.48 24.1118 156.566 24.3985 156.674 24.6815C156.722 24.8253 156.785 24.9645 156.848 25.1043C156.907 25.246 156.977 25.3855 157.047 25.5183C157.115 25.6543 157.187 25.7886 157.265 25.9209C157.34 26.0543 157.416 26.186 157.498 26.3121C157.656 26.5686 157.823 26.8131 157.99 27.045C158.324 27.5094 158.665 27.9211 158.969 28.2622C159.578 28.9448 160.039 29.3439 160.039 29.3439C160.039 29.3439 159.589 28.9315 159.002 28.2333C158.709 27.8845 158.382 27.4646 158.064 26.9939C157.904 26.7586 157.745 26.5114 157.597 26.2529C157.52 26.1253 157.448 25.9936 157.378 25.8608C157.306 25.73 157.238 25.5946 157.174 25.456C157.106 25.3176 157.043 25.1834 156.99 25.0436C156.933 24.905 156.875 24.7676 156.832 24.6258C156.735 24.3465 156.659 24.0647 156.603 23.7889C156.545 23.5137 156.505 23.2443 156.483 22.9876C156.457 22.7315 156.449 22.4875 156.451 22.2631C156.454 21.8141 156.497 21.4416 156.539 21.1852C156.56 21.0567 156.581 20.9573 156.596 20.8903C156.612 20.8248 156.621 20.7899 156.621 20.7899L156.347 20.7191Z" fill="#0B0C0D"/>
<path d="M153.301 17.953C153.301 17.953 153.981 17.7759 154.684 18.0728C155.07 17.9709 155.392 18.0679 155.553 18.1392C155.669 18.1121 156.306 17.9885 156.957 18.283L156.868 18.5565C156.855 18.5547 156.84 18.5527 156.829 18.5513C156.577 18.8963 156.074 19.4635 155.549 19.367C155.201 19.3029 155.115 18.9815 155.358 18.4597C155.329 18.3896 155.244 18.2339 155.056 18.2085C154.895 18.1866 154.714 18.2706 154.607 18.3312C154.349 18.6596 153.824 19.2281 153.323 19.175C152.89 19.1291 152.858 18.6627 153.301 17.953Z" fill="#F50000"/>
<path d="M156.957 18.2825L157.941 22.0145L157.822 21.9637L156.684 18.5539L156.957 18.2825Z" fill="#F50000"/>
<path d="M152.403 32.9976C156.004 33.3614 159.108 30.9503 160.22 29.9511C160.223 29.9511 160.223 29.9511 160.223 29.9511C160.275 29.9021 160.324 29.8587 160.367 29.8183C158.978 29.1513 157.069 29.1917 155.363 29.157C152.781 29.1051 151.164 29.1946 151.164 29.1946C151.014 29.3014 150.87 29.4054 150.728 29.5122C150.575 29.7432 150.437 29.9945 150.33 30.2515C149.836 31.4325 149.995 32.7521 152.403 32.9976Z" fill="#FFD3C7"/>
<path d="M150.331 30.2513C151.171 30.852 152.575 31.0887 152.575 31.0887L152.713 31.7933L153.695 31.0887C156.305 31.2129 158.979 30.3957 160.221 29.951C160.224 29.951 160.224 29.951 160.224 29.951C160.276 29.9019 160.325 29.8586 160.368 29.8182C158.979 29.1511 157.071 29.1916 155.364 29.1569C152.783 29.1049 151.165 29.1945 151.165 29.1945C151.015 29.3013 150.871 29.4053 150.729 29.5121C150.576 29.7431 150.438 29.9943 150.331 30.2513Z" fill="#FFD3C7"/>
<path d="M159.917 29.1945C158.896 29.3698 155.945 32.8107 156.095 36.9946C156.246 41.1785 163.021 58.5525 163.021 58.5525C163.021 58.5525 165.139 57.9749 165.77 56.4829C166.401 54.9909 165.005 54.1728 163.369 52.6328C161.732 51.0929 159.251 45.4138 159.072 44.0661C158.893 42.7184 159.727 38.6758 159.911 38.2426C160.096 37.8095 162.044 35.1904 162.418 33.0348C162.791 30.8792 159.917 29.1945 159.917 29.1945Z" fill="#AFB0E8"/>
<path d="M161.994 63.5137C161.962 63.7866 162.678 64.0906 162.678 64.0906C162.678 64.0906 162.929 64.5714 163.298 64.5714C163.668 64.5714 164.423 63.3211 163.832 62.6754C163.241 62.03 162.093 62.6618 161.994 63.5137Z" fill="#FFD3C7"/>
<path d="M163.997 60.7655C163.997 60.7655 165.363 62.5917 165.223 63.0057C165.082 63.4198 163.997 63.898 163.997 63.898C163.997 63.898 163.789 64.6439 163.298 64.5711C163.298 64.5711 163.515 64.1296 163.357 63.6702C163.2 63.2108 162.458 63.0762 162.458 63.0762L161.994 63.5131C161.994 63.5131 161.963 61.5345 162.266 60.9575C162.568 60.3809 163.997 60.7655 163.997 60.7655Z" fill="#FFD3C7"/>
<path d="M161.632 31.0356C160.596 29.9276 159.545 32.1089 158.886 34.6217C158.226 37.1345 159.222 46.45 159.222 46.45L162.266 60.9586C162.266 60.9586 163.253 61.4258 163.997 60.7663C163.997 60.7663 163.154 48.4581 162.628 46.0527C162.628 46.0527 163.586 33.1242 161.632 31.0356Z" fill="#FFD3C7"/>
<path d="M161.541 30.74C160.216 29.9655 159.101 32.2993 158.66 34.0318C158.22 35.7644 158.257 42.5714 158.535 44.7963C158.812 47.0213 161.069 55.2516 161.069 55.2516C161.069 55.2516 163.794 55.0538 164.761 53.8915C164.761 53.8915 163.737 51.4396 163.613 50.8933C163.49 50.3469 163.204 45.5824 163.022 45.2936C162.84 45.0048 162.777 43.3398 162.777 43.3398C162.993 42.684 163.713 32.0096 161.541 30.74Z" fill="#F50000"/>
<path d="M151.798 29.1414L151.209 28.7141C151.209 28.7141 147.61 30.8316 146.706 34.8742C145.803 38.9169 147.431 41.9053 147.431 41.9053C147.431 41.9053 146.217 38.5684 147.035 35.9811C147.853 33.3938 149.175 31.5552 151.798 29.1414Z" fill="#AFB0E8"/>
<path d="M137.956 52.4787C137.956 52.4787 136.899 52.969 136.466 53.1616C136.033 53.3542 136.033 54.8376 135.888 55.2508C135.744 55.664 136.321 55.2508 136.321 55.2508C136.321 55.2508 136.273 56.001 136.418 56.2898C136.562 56.5786 136.911 56.2898 136.911 56.2898C136.911 56.2898 137.072 56.338 137.611 56.1936C138.15 56.0493 138.294 55.6161 138.68 55.6161C139.064 55.6161 139.69 52.9399 139.69 52.9399L137.956 52.4787Z" fill="#FFD3C7"/>
<path d="M137.61 54.4483C137.61 54.4483 139.655 53.9805 140.328 52.2355C140.328 52.2355 139.316 53.5009 137.776 54.1434C137.776 54.1434 137.508 52.8425 137.955 52.4787C137.955 52.4787 137.244 52.8717 137.61 54.4483Z" fill="#626BA0"/>
<path d="M119.554 84.1791C119.554 84.1791 133.494 74.4409 136.321 55.2506C136.321 55.2506 136.68 54.682 137.777 54.2922" stroke="#626BA0" stroke-miterlimit="10"/>
<path d="M136.354 56.0832C136.354 56.0832 136.267 55.1101 136.354 54.7974C136.441 54.4846 136.754 54.1381 136.874 54.143C136.995 54.1476 136.874 54.9417 136.874 54.9417C136.874 54.9417 137.024 54.1962 137.284 54.143C137.543 54.0896 137.506 54.3991 137.506 54.3991C137.506 54.3991 137.479 54.0723 137.611 54.0035C137.742 53.9348 138.102 54.5571 138.102 54.5571L136.354 56.0832Z" fill="#FFD3C7"/>
<path d="M118.117 81.4117C117.971 81.2471 116.691 81.0695 116.601 81.1027C116.511 81.1359 116.529 80.807 116.168 81.0978C115.807 81.3886 115.572 81.623 115.5 81.7313C115.428 81.8396 115.193 82.2006 115.013 82.3088C114.832 82.4171 114.992 82.4423 114.868 82.8324C114.745 83.2225 114.76 83.6808 114.868 83.789C114.977 83.8973 114.995 83.9516 115.248 83.789C115.5 83.6265 116.258 82.7423 116.547 82.6519C116.836 82.5615 117.341 82.8145 117.612 82.3449C117.883 81.8754 118.286 81.6014 118.117 81.4117Z" fill="#CEBEA7"/>
<path d="M118.203 87.4137C118.206 87.4637 118.205 87.5139 118.2 87.5647C118.187 87.7215 118.14 87.8821 118.185 88.0328C118.217 88.1408 118.293 88.2292 118.363 88.3175C118.821 88.8968 119.033 89.5996 119.474 90.1956C119.85 90.7024 121.329 91.6048 121.726 91.9297C122.123 92.2545 123.459 93.59 123.928 93.554C124.397 93.5179 124.325 93.0125 124.325 93.0125C123.729 93.0668 123.27 92.9614 123.378 92.2349C123.386 92.1777 123.398 92.1133 123.363 92.0674C123.339 92.0356 123.298 92.0221 123.262 92.0062C123.104 91.9378 122.981 91.7951 122.936 91.6296C122.89 91.4607 122.912 91.2528 122.776 91.1416C122.656 91.0423 122.428 91.0357 122.413 90.8803C122.544 90.8699 122.592 90.6842 122.53 90.5676C122.469 90.4509 122.346 90.3825 122.244 90.2984C121.568 89.7423 121.804 88.4452 121.51 87.6938C121.297 87.1515 120.329 86.7215 119.867 86.4397C119.541 86.2405 119.318 86.0886 119.08 85.8024C118.828 85.4998 118.624 85.1273 118.172 85.1166C118.062 85.114 117.954 85.1377 117.848 85.1625C117.543 85.2338 117.206 85.3427 117.066 85.6219C117.036 85.6814 117.016 85.7484 117.026 85.8142C117.047 85.9595 117.191 86.0476 117.316 86.125C117.777 86.41 118.177 86.883 118.203 87.4137Z" fill="#E8DAC3"/>
<path d="M129.55 87.912C129.52 88.08 129.481 88.2461 129.429 88.4089C129.303 88.7996 129.096 89.1444 128.803 89.4323C128.644 89.5891 127.931 89.9518 128.083 90.2322C128.105 90.2729 128.142 90.3041 128.161 90.3462C128.25 90.5437 127.891 90.7508 127.997 90.9396C127.667 91.052 127.306 91.1885 127.14 91.4955C127.091 91.5862 127.059 91.6916 126.978 91.7554C126.9 91.8172 126.793 91.825 126.698 91.8533C125.892 92.0924 125.666 93.3444 125.01 93.7813C124.866 93.8775 124.144 93.7813 124.144 93.7813C124.144 93.7813 123.807 93.1556 124.144 93.1556C124.513 93.1556 124.836 92.9139 125.033 92.6485C125.097 92.5622 125.559 91.4912 125.527 91.4712C125.617 91.5287 125.712 91.378 125.673 91.2786C125.634 91.1793 125.537 91.1112 125.5 91.0112C125.455 90.8877 125.512 90.7514 125.51 90.6197C125.5 89.7794 123.965 89.4641 124.115 88.5556C124.217 87.9414 125.052 87.8028 125.534 87.9001C126.306 88.0558 126.665 87.9117 127.204 87.236C127.478 86.8929 127.752 86.5499 128.025 86.2068C128.119 86.0893 128.215 85.9677 128.256 85.823C128.323 85.5839 128.231 85.3154 128.326 85.0855C128.399 84.9085 128.567 84.7927 128.727 84.687C129.164 84.3977 129.635 84.0977 130.16 84.0983C130.307 84.0986 130.455 84.1225 130.598 84.0905C130.739 84.059 130.863 83.975 130.974 83.8817C131.433 83.4956 131.722 82.9149 131.754 82.3163C131.764 82.1202 131.751 81.9115 131.85 81.7417C131.916 81.627 132.026 81.5453 132.114 81.446C132.406 81.113 132.402 80.5595 132.104 80.2317C132.381 80.2938 132.579 80.5537 132.652 80.8277C132.725 81.1021 132.696 81.3917 132.667 81.6741C133.267 81.1344 133.362 80.1229 132.874 79.4807C133.526 79.8884 133.761 80.8404 133.375 81.5049C133.614 81.3478 133.854 81.1904 134.093 81.0333C134.459 81.3492 134.456 81.9441 134.219 82.3648C133.983 82.7858 133.571 83.0737 133.173 83.3472C133.463 83.3853 133.753 83.4231 134.043 83.4613C133.523 83.9995 132.853 84.3916 132.128 84.5814C132.069 84.597 132.007 84.6125 131.961 84.653C131.8 84.7948 131.965 85.078 131.867 85.2686C131.763 85.471 131.47 85.4289 131.248 85.4774C130.555 85.6293 130.362 86.8199 129.655 86.7563C129.637 87.1427 129.617 87.5325 129.55 87.912Z" fill="#E8DAC3"/>
<path d="M114.045 84.0858C114.065 84.1956 114.14 84.2937 114.157 84.4064C114.166 84.4468 114.163 84.4901 114.157 84.5334C114.155 84.5738 114.149 84.6143 114.146 84.6547C114.077 85.4979 114.949 85.4806 115.416 85.9195C115.399 85.8617 115.46 85.804 115.52 85.7982C115.581 85.7953 115.636 85.8271 115.688 85.8617C115.838 85.957 115.977 86.0696 116.104 86.1967C116.124 86.1534 116.109 86.0985 116.075 86.0725C116.274 86.0696 116.476 86.1072 116.664 86.1823C116.638 86.1649 116.678 86.1158 116.701 86.1389C117.005 86.0148 117.366 86.0408 117.646 86.2082C117.906 86.3642 118.451 86.6558 118.446 86.9504C118.44 87.2276 118.703 87.4182 118.873 87.6347C119.09 87.9119 119.15 88.2527 119.295 88.5617C119.422 88.8302 119.707 89.1161 119.736 89.4164C119.754 89.633 119.604 89.8033 119.557 90.0055C119.482 90.3231 119.569 90.6754 119.468 90.9786C119.243 91.6658 118.518 92.2318 118.379 92.9768C118.353 93.1212 117.432 93.1559 117.106 93.41C116.782 93.6612 117.106 93.8229 117.106 93.8229H118.053C118.342 93.5977 118.625 93.3638 118.916 93.1414C119.13 92.9768 119.266 92.9422 119.471 92.818C119.601 92.74 119.736 92.7401 119.806 92.5726C119.829 92.5177 119.837 92.4542 119.875 92.4051C119.976 92.2751 120.227 92.3242 120.299 92.1741C120.317 92.1365 120.317 92.0961 120.328 92.0557C120.424 91.7092 121.07 91.842 121.197 91.507C121.307 91.2183 121.18 91.1085 121.385 90.8631C121.437 90.7996 121.723 90.6436 121.813 90.5628C122.156 90.2596 122.243 90.0661 122.815 90.2567C123.19 90.3837 123.583 90.5859 123.958 90.4617C124.094 90.4184 124.215 90.3347 124.354 90.2942C124.596 90.222 124.859 90.3029 125.11 90.2625C125.341 90.2278 125.549 90.0921 125.777 90.0343C125.956 89.9881 126.147 89.991 126.335 89.9939C127.028 90.0112 127.761 89.9824 128.443 90.0401C129.11 90.0979 128.783 90.7505 129.225 90.8256C129.471 90.866 129.716 90.9064 129.961 90.9497C129.886 91.0999 130.025 91.2818 130.184 91.3395C130.34 91.3973 130.516 91.38 130.68 91.4146C130.963 91.4782 131.203 91.7034 131.284 91.9806C131.758 92.0355 132.13 92.3964 132.465 92.7343C132.757 93.0317 132.985 93.1732 132.754 93.5803C132.731 93.6208 132.326 94.0193 132.326 94.0193C132.329 94.0193 133.288 94.0193 133.288 94.0193C133.288 94.0193 133.672 93.3002 133.626 93.1559C133.594 93.0664 133.32 92.6938 133.106 92.3098C133.1 92.1596 133.106 91.9922 133.144 91.8564C133.242 91.5157 132.757 91.2645 132.855 90.8949C132.953 90.5252 132.615 90.3231 132.615 90.3231C132.615 90.3231 132.298 89.9968 131.977 89.7109C131.844 89.4597 131.72 89.1854 131.7 89.0179C131.685 88.8995 131.538 88.5126 131.319 88.0217C131.353 87.6405 131.365 87.1121 131.267 86.754C131.122 86.2256 130.929 84.9752 130.256 84.4439C129.456 83.8144 128.437 83.4419 127.415 83.4563C126.901 83.4621 126.439 83.5892 125.956 83.7538C125.445 83.927 125.032 83.7104 124.527 83.8404C124.432 83.8664 124.339 83.9068 124.247 83.9414C123.895 84.0627 123.51 84.031 123.141 83.9992C123.158 84.2187 122.973 84.415 122.765 84.4843C122.555 84.5536 122.329 84.5247 122.11 84.4988C120.966 84.3515 120.256 84.1436 119.569 83.182C119.306 82.8095 119.081 82.4052 118.766 82.0703C118.599 81.8895 118.356 81.7457 118.152 81.6111C118.045 81.5404 117.914 81.4347 117.786 81.4047C117.604 81.3619 117.51 81.6045 117.334 81.5788C117.303 81.5742 117.274 81.5568 117.243 81.558C117.212 81.5592 117.185 81.5779 117.155 81.5849C117.087 81.6007 117.022 81.554 116.956 81.5303C116.849 81.4913 116.73 81.5144 116.617 81.5381C116.552 81.5519 116.484 81.5664 116.428 81.6039C116.307 81.6859 116.253 81.869 116.108 81.8915C116.043 81.9016 115.97 81.8748 115.913 81.9074C115.885 81.9233 115.865 81.951 115.84 81.9704C115.759 82.0307 115.63 81.9987 115.56 82.0706C115.531 82.1009 115.517 82.1454 115.483 82.1711C115.433 82.2095 115.351 82.1982 115.316 82.2505C115.291 82.2883 115.304 82.3449 115.272 82.3778C115.254 82.3969 115.226 82.4023 115.205 82.4179C115.151 82.4584 115.166 82.5407 115.177 82.6071C115.213 82.8066 115.201 83.1976 114.912 83.1595C114.847 83.1508 114.782 83.1268 114.718 83.141C114.69 83.1474 114.663 83.1612 114.635 83.1702C114.566 83.1921 114.492 83.1829 114.42 83.1791C114.224 83.1684 114.203 83.2686 114.187 83.4251C114.169 83.5998 114.073 83.7497 114.045 83.9212C114.036 83.9732 114.033 84.0281 114.045 84.0858Z" fill="white"/>
<path d="M114.346 83.273C114.324 83.1988 114.07 83.1185 114.036 83.273C114.003 83.4275 114.123 83.6779 114.123 83.6779C114.123 83.6779 114.377 83.3842 114.346 83.273Z" fill="#14141B"/>
<path d="M115.663 83.1814C115.663 83.3252 115.72 83.4419 115.79 83.4419C115.86 83.4419 115.916 83.3252 115.916 83.1814C115.916 83.0376 115.86 82.921 115.79 82.921C115.72 82.921 115.663 83.0376 115.663 83.1814Z" fill="#14141B"/>
<path d="M119.77 83.4416C119.77 83.4416 119.372 86.1129 117.992 86.7826L118.184 87.2665C118.184 87.2665 119.708 86.5146 120.242 83.8912L119.77 83.4416Z" fill="#FF335F"/>
<path d="M118.039 81.2069C118.162 81.1853 118.286 81.1636 118.41 81.142C118.554 81.1168 118.7 81.0914 118.845 81.1102C119.183 81.1541 119.332 81.3793 119.534 81.6106C119.719 81.8232 119.958 81.9849 120.157 82.1835C120.325 82.3519 120.445 82.8333 120.349 83.0738C120.253 83.3143 120.109 83.8439 119.555 84.1806C119.002 84.5176 117.654 85.0229 117.582 84.5416C117.53 84.1927 117.365 83.874 117.302 83.5295C117.238 83.1829 117.262 82.8003 117.239 82.4434C117.235 82.3857 117.231 82.3271 117.212 82.2725C117.174 82.1601 117.076 82.0747 117.043 81.9606C117.01 81.8503 117.043 81.7325 117.077 81.6225C117.099 81.5465 117.125 81.4668 117.183 81.4125C117.242 81.3574 117.326 81.338 117.405 81.3222C117.562 81.2907 117.72 81.2627 117.878 81.2349C117.932 81.2257 117.985 81.2165 118.039 81.2069Z" fill="#E8DAC3"/>
<path d="M30.5382 33.6631L28.2709 37.9045C28.2709 37.9045 23.6501 41.8291 20.1407 45.7236L21.0258 47.922C21.0258 47.922 28.3269 43.3199 30.1071 41.8395C31.8873 40.3593 33.8772 35.4772 33.8772 35.4772L30.5382 33.6631Z" fill="#FFD3C7"/>
<path d="M35.2687 24.7287C33.0605 26.0968 29.2073 34.0052 29.2073 34.0052C29.2073 34.0052 29.8801 37.7449 33.1108 37.4547C36.3414 37.1648 35.2687 24.7287 35.2687 24.7287Z" fill="#A0D858"/>
<path d="M56.3418 36.9291C56.805 37.8549 53.9566 43.0456 52.8091 41.659C51.6615 40.2724 52.8743 33.7227 52.8743 33.7227L56.3418 36.9291Z" fill="#7DC247"/>
<path d="M19.2184 46.1543C19.2184 46.1543 18.366 46.195 18.0224 46.305C17.6097 46.437 16.839 47.0942 16.839 47.0942C16.839 47.0942 16.785 47.1809 16.9421 47.2412C17.1864 47.335 17.5093 46.8571 17.8405 47.0359C18.172 47.2149 19.2184 46.1543 19.2184 46.1543Z" fill="#FFD3C7"/>
<path d="M21.6154 47.4102C21.6154 47.4102 20.7234 45.8105 20.076 45.7793C20.076 45.7793 18.6888 46.4039 18.2045 46.5506C17.6729 46.7117 16.2496 47.8679 16.156 48.2823C15.9086 49.3793 15.9715 49.3819 16.232 49.4137C16.4924 49.4454 16.4994 48.6661 16.6868 48.472C16.7792 48.3764 17.3864 48.1596 17.3864 48.1596C17.1638 48.3143 16.8932 48.6736 16.9238 49.0054C16.962 49.4168 16.9579 49.7885 17.1575 49.8702C17.5181 50.018 17.4124 49.0588 17.6365 48.9727C17.7174 48.9418 18.1944 48.6857 18.1944 48.6857C18.1216 48.8483 17.9059 49.0146 17.8684 49.1789C17.8205 49.3891 17.8404 50.1835 18.0402 50.1864C18.3518 50.1907 18.3082 49.4734 18.5031 49.3267C18.5805 49.2684 18.9718 49.0903 18.9718 49.0903C18.9718 49.0903 18.7933 49.4215 18.7838 49.565C18.7728 49.731 18.8921 50.3689 19.0214 50.3192C19.3593 50.1896 19.1343 49.6343 19.5039 49.2927C19.8109 49.0088 20.7029 48.5991 20.8929 48.1535C21.0835 47.7076 21.6154 47.4102 21.6154 47.4102Z" fill="#FFD3C7"/>
<path d="M52.8413 97.5125V96.728C52.8413 95.8239 51.9975 94.1834 51.9975 93.581C51.9975 92.9784 49.6658 94.0705 49.6658 94.0705C49.6658 94.0705 49.6473 94.9804 48.8636 95.8242C48.2656 96.4681 48.2644 97.2937 48.2976 97.5128H52.8413V97.5125Z" fill="#7DC247"/>
<path d="M36.9234 97.5121L37.3271 97.3239L37.5154 97.5121H39.0548C39.2075 97.0694 39.7288 95.3857 39.2586 94.2182C38.7132 92.8639 37.0256 93.2254 37.0256 93.2254C37.0256 93.2254 35.8807 94.8229 35.2177 95.109C34.5547 95.3952 32.0234 96.4197 31.7222 97.0827C31.6321 97.2808 31.7858 97.4148 31.7413 97.5121H36.9234Z" fill="#7DC247"/>
<path d="M46.7762 47.0479C47.6503 59.7188 50.0366 76.3255 52.6257 93.7939C52.6257 93.7939 52.118 94.6198 49.2385 94.1878L40.37 57.0956C40.3322 56.9972 40.2375 56.9319 40.1318 56.9319C39.9946 56.9319 39.8817 57.039 39.8768 57.1765C39.7746 59.972 38.878 68.5237 39.3599 94.3062C39.3599 94.3062 37.8462 95.1372 36.2323 94.3062C36.2323 94.3062 30.5145 56.1725 31.8316 48.8717L46.7762 47.0479Z" fill="#5D3660"/>
<path d="M46.1736 52.1591C46.1736 52.1591 43.4133 54.3375 36.5462 52.2203C32.6456 51.0179 31.1123 48.81 31.1123 48.81C31.1123 48.81 32.9422 26.8612 34.6161 25.228C35.833 24.0417 37.932 23.7587 40.5823 23.9961C41.5817 24.0868 42.6591 24.2502 43.7982 24.4682C44.642 24.6291 45.4283 24.8817 46.1482 25.1974C48.9746 26.4402 50.7614 28.666 50.8579 30.2259C50.98 32.1822 46.1736 52.1591 46.1736 52.1591Z" fill="#E8DAC3"/>
<path d="M44.1565 24.5413C44.1565 24.5413 45.3107 25.4564 45.1267 26.6154C45.1267 26.6154 45.9225 24.083 44.9711 23.5445C44.0196 23.0059 44.1565 24.5413 44.1565 24.5413Z" fill="#7DC247"/>
<path d="M41.8136 21.4727L41.0859 25.2393C41.0859 25.2393 41.8387 26.1495 44.5372 25.7328C44.5372 25.7328 44.6522 22.6609 46.4714 21.2936C46.4714 21.2936 46.221 21.1937 45.8138 21.0586C45.8138 21.0586 44.4858 22.8778 41.8136 21.4727Z" fill="#FFD3C7"/>
<path d="M47.3803 54.9231C47.3803 54.9231 44.8484 55.8488 41.0186 53.9026C41.0186 53.9026 41.4849 31.2994 42.1436 29.1239C42.1436 29.1239 43.5201 27.9726 44.6356 27.363C45.6133 26.8299 46.0523 25.5178 46.1478 25.1973C48.9743 26.4401 51.0288 28.1467 51.1255 29.7066C51.2471 31.6632 47.3803 54.9231 47.3803 54.9231Z" fill="#099906"/>
<path d="M40.5823 23.996C40.09 24.5769 39.1342 25.9021 38.6225 27.9182C38.2731 29.2953 32.3927 53.2205 32.3927 53.2205C30.067 52.3117 30.1508 49.6984 30.1508 49.6984C30.1508 49.6984 32.9422 26.8613 34.6165 25.2281C35.833 24.0419 37.9321 23.7589 40.5823 23.996Z" fill="#099906"/>
<path d="M44.9716 23.543C44.9716 23.543 47.0527 23.8785 47.265 26.0849C47.4772 28.2914 44.5125 29.5746 44.5125 29.5746C44.5125 29.5746 44.2307 28.3592 43.6321 28.2749C43.0335 28.1906 42.1455 29.1224 42.1455 29.1224C42.1455 29.1224 42.9006 27.9041 43.844 27.3705C44.7871 26.8369 45.8613 25.1029 44.9716 23.543Z" fill="#A0D858"/>
<path d="M41.5338 22.915C41.5338 22.915 38.3803 23.0326 36.7363 25.9361C36.7363 25.9361 37.5232 25.7186 37.9682 26.1122C38.4132 26.5055 38.6219 27.9176 38.6219 27.9176C38.6219 27.9176 39.5824 24.6782 41.3106 24.0724L41.5338 22.915Z" fill="#A0D858"/>
<path d="M41.6808 18.1519C40.2644 22.3233 44.5586 24.3374 46.109 23.1339C46.6059 22.7484 47.2132 21.9474 47.7243 21.023C47.841 20.8137 47.9516 20.5991 48.0552 20.3811C48.7563 18.9015 49.1184 17.289 48.3922 16.5925C45.8652 14.1666 43.0972 13.9804 41.6808 18.1519Z" fill="#FFD3C7"/>
<path d="M44.1179 18.826C43.9859 18.9779 44.033 19.2346 44.2227 19.3998C44.4127 19.565 44.6734 19.5756 44.8054 19.4238C44.9374 19.2719 44.8906 19.0152 44.7006 18.85C44.5109 18.6848 44.2498 18.6741 44.1179 18.826Z" fill="#FFD3C7"/>
<path d="M47.3451 20.6061C47.3168 20.7982 47.4846 20.9807 47.7222 21.0225C47.8389 20.8132 47.9495 20.5986 48.0531 20.3806C47.9919 20.3431 47.9218 20.3185 47.8455 20.3073C47.5957 20.2729 47.3719 20.4072 47.3451 20.6061Z" fill="#FFD3C7"/>
<path d="M46.4592 17.4446C46.434 17.4437 46.4086 17.4362 46.3855 17.4218C46.3815 17.4192 45.9905 17.172 45.631 17.2702C45.5536 17.2919 45.4745 17.2459 45.4534 17.1688C45.4323 17.092 45.4777 17.0123 45.5548 16.9913C46.0399 16.8584 46.5221 17.1657 46.5423 17.1787C46.6093 17.222 46.6281 17.3112 46.5851 17.3782C46.5571 17.4227 46.5083 17.4461 46.4592 17.4446Z" fill="#0E3944"/>
<path d="M48.441 18.9401C48.426 18.9395 48.4107 18.9369 48.3959 18.9314C48.3209 18.904 48.2824 18.8211 48.3099 18.746C48.3477 18.643 48.1303 18.4919 48.0055 18.4342C47.9333 18.4004 47.9016 18.3146 47.9351 18.2425C47.9686 18.1703 48.054 18.1379 48.1265 18.1717C48.3494 18.2742 48.696 18.5318 48.581 18.8454C48.5594 18.9054 48.5016 18.9421 48.441 18.9401Z" fill="#0E3944"/>
<path d="M47.1653 18.7666C47.1653 18.7666 46.7928 19.8269 47.0992 20.8725C47.0992 20.8725 46.9744 21.3311 46.2188 20.8965" stroke="#FFD3C7" stroke-width="0.7508" stroke-miterlimit="10"/>
<path d="M48.7854 17.8006C48.7854 17.8006 48.3144 16.418 45.6361 15.8604C45.6361 15.8604 44.7462 17.2695 43.8141 17.4688C42.8819 17.668 42.1511 18.8782 42.1511 18.8782C42.1511 18.8782 42.2917 18.204 41.9816 18.0226C41.6711 17.8416 41.4115 20.0856 41.4115 20.0856C41.4115 20.0856 40.2034 19.4757 41.2937 15.9441C42.2796 12.7507 44.7392 14.4535 44.7392 14.4535C44.7392 14.4535 45.8244 13.3603 48.6176 15.0235L48.3615 15.068C48.3615 15.068 49.6846 15.7449 49.7946 17.0804L49.5676 16.9796C49.5676 16.9796 49.6306 17.6888 48.7854 17.8006Z" fill="black"/>
<path d="M42.5726 18.413C42.5726 18.413 42.2489 17.3593 41.4367 17.5672C40.6244 17.7751 41.0338 19.6324 41.7136 19.8643C42.3936 20.0962 42.5726 18.413 42.5726 18.413Z" fill="#FFD3C7"/>
<path d="M47.3089 21.7125L46.9907 21.8759C47.0895 21.199 46.4325 21.7572 44.7225 20.6386C44.0497 20.1985 43.6387 20.9856 43.6387 20.9856C43.6387 20.9856 42.1092 20.3515 43.0364 17.8682L42.5143 18.2591C42.5143 18.2591 41.3697 20.0925 41.3711 20.8314L41.538 20.8118C41.538 20.8118 41.2166 21.6276 42.1816 22.642C43.1597 23.6697 43.9959 23.9426 43.9959 23.9426L43.7667 24.0581C43.7667 24.0581 45.6035 24.8187 46.5321 23.6639L46.4516 23.9859C46.4513 23.9865 47.4949 22.9767 47.3089 21.7125Z" fill="black"/>
<path d="M54.802 35.0869L57.0456 38.9101C57.0456 38.9101 58.1889 39.7542 59.8221 41.9326C61.4553 44.1107 64.9274 47.7076 64.9274 47.7076L63.4054 49.5126C63.4054 49.5126 55.3705 43.1437 54.7716 42.5719C54.1727 42.0002 50.2363 36.9644 50.2363 36.9644L54.802 35.0869Z" fill="#FFD3C7"/>
<path d="M50.479 28.1943C48.7345 29.0188 48.2595 32.0008 48.4521 34.7331C48.6447 37.4654 49.7981 38.0192 49.7981 38.0192L52.8096 41.6585C52.8096 41.6585 52.6467 37.6141 56.3423 36.9285C56.3423 36.9285 54.1968 33.032 53.4616 31.9988C51.3675 29.0551 50.479 28.1943 50.479 28.1943Z" fill="#A0D858"/>
<path d="M96.6118 83.5223C96.5552 83.2936 96.6927 83.0525 96.8847 82.9159C97.3773 82.5651 98.0265 82.4915 98.5514 82.1337C98.9239 81.8799 99.4876 81.9679 99.7648 82.3234C100.244 82.9382 101.513 85.8056 100.21 85.872C99.619 85.902 99.0282 85.9321 98.4377 85.9624C98.2297 85.9731 98.0117 85.9817 97.8243 85.8908C97.6196 85.7917 97.4862 85.5907 97.3678 85.3967C97.0559 84.885 96.7764 84.3534 96.5312 83.8062" fill="#603231"/>
<path d="M68.4626 74.1242C67.2622 73.4159 65.6729 68.543 66.0555 67.2346C66.4381 65.9263 67.3763 64.7906 67.3763 64.7906C67.3763 64.7906 65.7384 65.7374 65.5346 66.8691C65.5346 66.8691 65.9053 63.9982 67.4225 63.7207C67.4225 63.7207 64.7055 64.451 64.0694 66.6049C63.4333 68.759 64.4913 70.6213 64.4913 70.6213C64.4913 70.6213 63.1968 69.3984 62.9551 68.0236C62.9551 68.0236 62.3576 69.8436 64.3327 71.9077C66.3079 73.9718 65.5819 76.3723 65.5819 76.3723L68.4626 74.1242Z" fill="#312C19"/>
<path d="M72.7198 78.8198C72.7198 78.8198 74.6141 85.5307 73.4899 87.4989C72.3658 89.4668 70.8911 92.1252 70.8911 92.1252C70.8911 92.1252 72.7591 95.3524 73.8463 95.664C74.9338 95.9755 75.5113 96.8357 75.3187 97.5126H72.1423C72.1423 97.5126 68.0996 92.3178 67.8109 92.2216C67.5221 92.1254 68.1126 87.0401 65.8441 84.4813C63.5759 81.9223 69.0624 76.584 72.7198 78.8198Z" fill="#312C19"/>
<path d="M90.9117 88.8468C90.9117 88.8468 89.3391 94.2397 88.9704 94.4332C88.6016 94.627 89.3391 94.2394 89.3391 94.2394L96.2946 96.6229C96.2946 96.6229 100.008 96.2094 100.152 97.5117H94.5097C94.5097 97.5117 85.714 95.8328 84.559 95.663C83.4039 95.4933 81.911 90.1451 81.911 90.1451L90.9117 88.8468Z" fill="#312C19"/>
<path d="M70.181 73.4474C70.4051 73.5017 70.6202 73.5502 70.8215 73.5857C72.2208 73.8335 73.8269 74.2328 74.4261 75.5213C74.5439 75.7748 74.6184 76.0578 74.809 76.2628C75.0539 76.5262 75.4365 76.6036 75.7365 76.802C76.1463 77.0725 76.3822 77.5542 76.7966 77.8181C77.1621 78.0506 77.6164 78.0829 78.025 78.2261C79.2999 78.6726 80.2063 80.2004 81.5482 80.0462C81.7003 80.0286 81.8915 79.9177 81.8372 79.7742C82.0298 80.0032 82.2862 80.1782 82.5698 80.2743C82.6091 80.1476 82.6481 80.0205 82.6873 79.8935C82.9478 80.3491 83.3313 80.734 83.7861 80.996C83.7096 80.9243 83.797 80.7837 83.9019 80.7768C84.0064 80.7699 84.0976 80.8423 84.177 80.9105C85.1057 81.7069 86.0635 82.5169 87.1753 83.0479C88.2209 83.5472 89.2495 83.4761 90.3364 83.7591C90.7265 83.8608 95.34 84.6404 95.388 84.8928C95.388 84.8934 96.295 89.6669 96.295 89.6669C94.1241 91.1878 91.4943 92.2646 88.8839 92.6389C87.242 92.8742 85.8207 93.735 84.1438 93.9221C82.2911 94.1292 80.3833 93.8343 78.6467 93.1708C77.6164 92.7772 76.6346 92.2681 75.6554 91.7602C75.1463 91.4959 74.3005 91.2456 73.8945 90.8457C73.3733 90.3322 73.4977 90.0556 72.7813 89.6831C72.0236 89.2889 71.2656 88.8945 70.5079 88.5003C70.533 88.5465 70.613 88.4986 70.6049 88.4466C70.5968 88.3946 70.5446 88.3632 70.4978 88.3392C70.0031 88.088 69.4707 87.9185 68.9633 87.716C69.1244 87.6574 69.7311 87.3932 69.8845 87.4784C68.1065 86.4905 66.2354 85.4108 65.2715 83.6199C64.3535 81.9142 64.4248 79.8686 64.5201 77.9336C64.5767 76.7843 64.6512 75.5759 65.2709 74.6062C65.3601 74.6062 66.0685 73.6599 66.2357 73.5361C66.5426 73.3088 66.9625 73.0486 67.3514 73.0027C68.1842 72.9042 69.257 73.2239 70.181 73.4474Z" fill="#FFD231"/>
<path d="M88.9697 83.3785C91.294 84.0033 95.1793 82.9615 96.2939 83.0914C97.4082 83.2214 100.873 83.986 101.307 84.47C101.74 84.9539 102.173 85.9274 102.173 85.9274L105.927 86.4139C105.927 86.4139 106.071 89.0371 104.05 89.6666C102.028 90.2961 93.4871 91.2293 93.4871 91.2293L88.9697 83.3785Z" fill="#FFD231"/>
<path d="M82.2477 85.4778C79.0006 84.4845 80.2264 87.7758 80.2264 87.7758C80.2264 87.7758 75.5354 87.2387 74.9209 88.4789C74.3067 89.7192 77.9163 97.5129 77.9163 97.5129H82.2477C82.2477 97.5129 83.1088 95.9784 80.8013 95.6642C78.4938 95.3501 78.6278 92.8277 78.6278 92.8277C78.6278 92.8277 82.8252 94.385 84.2691 94.4344C85.7129 94.4838 88.9692 92.6874 88.9692 92.6874C88.9692 92.6874 87.7342 87.1564 82.2477 85.4778Z" fill="#FFD231"/>
<path d="M69.662 73.1201C66.6256 73.1452 63.4166 74.5902 61.6245 77.0946C60.7646 78.2959 60.652 79.2142 60.7392 80.6268C60.8611 82.5964 60.2471 84.5369 60.2529 86.5048C60.2564 87.7078 60.4334 89.0569 59.6621 89.9801C59.1799 90.557 58.3197 91.0442 58.4744 91.78C58.5099 91.9489 58.6003 92.1002 58.689 92.248C59.7207 93.9665 60.8229 95.8368 61.9246 97.5119H64.8546C64.8546 97.5119 64.7342 96.3597 64.1535 96.0701C62.5936 95.2896 61.6352 93.8963 61.5056 92.149C61.8171 92.445 62.3514 92.2789 62.6554 91.9755C62.9595 91.672 63.1429 91.2616 63.4588 90.9706C63.9777 90.4921 64.7461 90.4222 65.375 90.1014C66.2023 89.6792 66.7345 88.8554 67.2274 88.0682C68.0564 86.7445 68.8913 85.409 69.4359 83.9452C70.2661 81.714 69.7281 79.7839 69.7059 77.5287C69.6908 76.0591 69.6764 74.5896 69.662 73.1201Z" fill="#FFD231"/>
<path d="M92.7559 83.9459C92.7169 84.3383 92.7709 84.7503 92.7946 85.2309C92.8001 85.3412 92.8076 85.4578 92.8688 85.5496C92.9124 85.6149 92.9788 85.6608 93.0455 85.7021C93.7207 86.1205 94.5927 86.2034 95.3346 85.9195C95.4553 85.8733 95.5823 85.8087 95.634 85.6903C95.6779 85.5898 95.6571 85.4746 95.6614 85.3648C95.6822 84.8384 96.2505 84.5312 96.7437 84.3458C96.8194 84.3172 96.9011 84.2843 96.9418 84.2144C96.9883 84.1347 96.9664 84.0348 96.9667 83.9424C96.9687 83.4399 97.5655 83.4238 97.902 83.325C97.7163 82.7723 97.3891 81.932 96.6889 81.9615C96.1359 81.9826 94.9915 81.9774 94.5315 81.8341C94.1151 81.7007 93.3692 82.6444 93.1712 82.904C92.8997 83.2589 92.7906 83.5944 92.7559 83.9459Z" fill="#312C19"/>
<path d="M101.044 86.8475C101.189 86.8475 101.307 86.5817 101.307 86.2539C101.307 85.926 101.189 85.6602 101.044 85.6602C100.899 85.6602 100.781 85.926 100.781 86.2539C100.781 86.5817 100.899 86.8475 101.044 86.8475Z" fill="black"/>
<path d="M105.292 86.3314C105.292 86.3314 105.676 86.1775 105.928 86.414C106.181 86.6505 105.885 87.1547 105.885 87.1547C105.885 87.1547 105.639 86.3765 105.292 86.3314Z" fill="#7DC247"/>
<path d="M75.6551 91.7606C75.6551 91.7606 74.0205 89.6162 75.3554 87.8992C76.6904 86.182 80.8774 86.7194 80.8774 86.7194C80.8774 86.7194 75.6797 85.7812 74.4524 86.8479C73.2252 87.9146 74.4524 91.2301 74.4524 91.2301L75.6551 91.7606Z" fill="#312C19"/>
<path d="M92.484 83.4854C92.484 83.4854 90.4332 89.4191 93.488 91.2291L92.6492 91.7596C92.6492 91.7596 89.2432 88.5144 91.8103 83.4854H92.484Z" fill="#099906"/>
<path d="M65.1736 50.3214C65.1736 50.3214 74.8968 69.8037 91.567 83.9961" stroke="#A0D858" stroke-miterlimit="10"/>
<path d="M62.8706 48.6418C63.3358 47.7755 63.993 47.4224 64.9277 47.7074C65.8625 47.9921 67.956 48.8667 68.0282 49.5121C68.1004 50.1578 68.2878 51.046 68.0282 51.4572C67.9075 51.6484 67.2341 51.8904 67.2341 51.8904C67.2341 51.8904 66.7048 52.5964 65.6667 52.3235C65.4597 52.2689 64.9277 51.8904 64.9277 51.8904C64.9277 51.8904 64.9277 52.6845 64.611 52.5883C63.9428 52.3853 64.1296 51.3129 63.4077 50.7353C62.6858 50.1578 62.8706 48.6418 62.8706 48.6418Z" fill="#FFD3C7"/>
<path d="M64.928 51.8911C64.928 51.8911 64.1541 50.7684 64.2263 49.5128C64.2985 48.2576 66.2061 48.162 66.6661 48.4072L66.2476 47.9928C66.2476 47.9928 64.5873 47.6079 63.9615 48.402C63.3358 49.1961 63.9615 50.6399 63.9615 50.6399C63.9615 50.6399 64.5708 51.3615 64.928 51.8911Z" fill="#099906"/>
<path d="M50.4072 109.431H54.3696C56.4204 109.431 57.8486 110.845 57.8486 112.903C57.8486 114.968 56.3911 116.389 54.3184 116.389H52.0479V120H50.4072V109.431ZM52.0479 110.815V115.012H53.9302C55.3584 115.012 56.1714 114.243 56.1714 112.91C56.1714 111.577 55.3584 110.815 53.9375 110.815H52.0479ZM61.9795 113.43C60.8735 113.43 60.0972 114.272 60.0166 115.437H63.8691C63.8325 114.258 63.0854 113.43 61.9795 113.43ZM63.8618 117.737H65.3633C65.1436 119.143 63.8105 120.146 62.0454 120.146C59.7822 120.146 58.4126 118.616 58.4126 116.184C58.4126 113.767 59.8042 112.156 61.9795 112.156C64.1182 112.156 65.4512 113.665 65.4512 116.001V116.543H60.0093V116.638C60.0093 117.979 60.8149 118.865 62.082 118.865C62.9829 118.865 63.6494 118.411 63.8618 117.737ZM67.1431 110.471H68.7324V112.295H70.1973V113.547H68.7324V117.795C68.7324 118.462 69.0254 118.762 69.6699 118.762C69.8311 118.762 70.0874 118.748 70.1899 118.726V119.978C70.0142 120.022 69.6626 120.051 69.311 120.051C67.751 120.051 67.1431 119.458 67.1431 117.971V113.547H66.0225V112.295H67.1431V110.471ZM74.7383 109.431H78.4663C81.6084 109.431 83.4688 111.365 83.4688 114.697C83.4688 118.037 81.6157 120 78.4663 120H74.7383V109.431ZM76.3789 110.845V118.579H78.3125C80.5537 118.579 81.7915 117.209 81.7915 114.712C81.7915 112.222 80.5464 110.845 78.3125 110.845H76.3789ZM87.541 118.879C88.647 118.879 89.5112 118.118 89.5112 117.114V116.506L87.6143 116.624C86.6694 116.689 86.1348 117.107 86.1348 117.766C86.1348 118.44 86.6914 118.879 87.541 118.879ZM87.1016 120.132C85.5928 120.132 84.5381 119.194 84.5381 117.81C84.5381 116.462 85.5708 115.635 87.4019 115.532L89.5112 115.408V114.814C89.5112 113.958 88.9326 113.445 87.9658 113.445C87.0503 113.445 86.479 113.884 86.3398 114.573H84.8457C84.9336 113.181 86.1201 112.156 88.0244 112.156C89.8921 112.156 91.0859 113.145 91.0859 114.69V120H89.5698V118.733H89.5332C89.0864 119.59 88.1123 120.132 87.1016 120.132ZM93.0854 110.471H94.6748V112.295H96.1396V113.547H94.6748V117.795C94.6748 118.462 94.9678 118.762 95.6123 118.762C95.7734 118.762 96.0298 118.748 96.1323 118.726V119.978C95.9565 120.022 95.605 120.051 95.2534 120.051C93.6934 120.051 93.0854 119.458 93.0854 117.971V113.547H91.9648V112.295H93.0854V110.471ZM97.4946 120V112.295H99.0767V120H97.4946ZM98.2856 111.167C97.7803 111.167 97.3701 110.764 97.3701 110.266C97.3701 109.761 97.7803 109.358 98.2856 109.358C98.7983 109.358 99.2085 109.761 99.2085 110.266C99.2085 110.764 98.7983 111.167 98.2856 111.167ZM100.695 120V112.295H102.204V113.584H102.241C102.658 112.705 103.479 112.163 104.665 112.163C106.364 112.163 107.338 113.247 107.338 115.012V120H105.749V115.32C105.749 114.163 105.207 113.525 104.108 113.525C102.995 113.525 102.277 114.316 102.277 115.51V120H100.695ZM112.15 118.718C113.388 118.718 114.201 117.715 114.201 116.125C114.201 114.543 113.388 113.503 112.15 113.503C110.935 113.503 110.144 114.521 110.144 116.125C110.144 117.737 110.935 118.718 112.15 118.718ZM112.165 122.9C110.349 122.9 109.001 121.934 108.803 120.601H110.393C110.62 121.245 111.323 121.67 112.224 121.67C113.461 121.67 114.194 120.967 114.194 119.912V118.645H114.165C113.732 119.48 112.824 120.029 111.726 120.029C109.792 120.029 108.525 118.521 108.525 116.118C108.525 113.694 109.785 112.17 111.762 112.17C112.854 112.17 113.747 112.72 114.216 113.613H114.245V112.295H115.783V119.861C115.783 121.699 114.362 122.9 112.165 122.9Z" fill="black"/>
</g>
<defs>
<clipPath id="clip0_1_1892">
<rect width="166" height="140" rx="30" transform="matrix(-1 0 0 1 166 0)" fill="white"/>
</clipPath>
</defs>
</svg>
