<svg width="166" height="140" viewBox="0 0 166 140" fill="none" xmlns="http://www.w3.org/2000/svg">
<g clip-path="url(#clip0_1_876)">
<rect width="166" height="140" rx="30" fill="#FFE7EA"/>
<path d="M45.9741 120V109.431H49.9072C51.98 109.431 53.4155 110.823 53.4155 112.896V112.91C53.4155 114.976 51.98 116.389 49.9072 116.389H47.6147V120H45.9741ZM49.4971 110.815H47.6147V115.012H49.4971C50.9253 115.012 51.7456 114.243 51.7456 112.917V112.903C51.7456 111.584 50.9253 110.815 49.4971 110.815ZM57.6123 120.154C55.3491 120.154 53.9795 118.608 53.9795 116.177V116.169C53.9795 113.76 55.3711 112.148 57.5317 112.148C59.6924 112.148 61.0181 113.701 61.0181 116.016V116.55H55.5615C55.5908 118.008 56.3892 118.857 57.6489 118.857C58.5864 118.857 59.209 118.374 59.4067 117.795L59.4287 117.737H60.9302L60.9155 117.817C60.6665 119.041 59.48 120.154 57.6123 120.154ZM57.5391 113.445C56.5137 113.445 55.7227 114.141 55.5835 115.43H59.4507C59.3188 114.097 58.5718 113.445 57.5391 113.445ZM64.9512 120.154C63.4277 120.154 62.6953 119.509 62.6953 117.971V113.555H61.5894V112.295H62.6953V110.288H64.314V112.295H65.7568V113.555H64.314V117.876C64.314 118.66 64.6655 118.894 65.332 118.894C65.5005 118.894 65.6396 118.879 65.7568 118.865V120.088C65.5737 120.117 65.2734 120.154 64.9512 120.154ZM72.5024 120L69.6533 109.431H71.3599L73.3301 117.715H73.3594L75.5933 109.431H77.146L79.3799 117.715H79.4165L81.3867 109.431H83.0933L80.2368 120H78.6621L76.3916 112.031H76.355L74.0771 120H72.5024ZM85.459 120.139C83.9209 120.139 82.8882 119.194 82.8882 117.81V117.795C82.8882 116.455 83.9282 115.635 85.752 115.525L87.8467 115.4V114.822C87.8467 113.972 87.2974 113.459 86.3159 113.459C85.4004 113.459 84.8364 113.892 84.7046 114.507L84.6899 114.573H83.1958L83.2031 114.492C83.313 113.167 84.4629 112.148 86.3599 112.148C88.2422 112.148 89.436 113.145 89.436 114.69V120H87.8467V118.784H87.8174C87.3706 119.612 86.4771 120.139 85.459 120.139ZM84.4849 117.773C84.4849 118.447 85.0415 118.872 85.8911 118.872C87.0044 118.872 87.8467 118.118 87.8467 117.114V116.514L85.9644 116.631C85.0122 116.689 84.4849 117.107 84.4849 117.759V117.773ZM91.0327 120V109.431H92.6147V120H91.0327ZM94.3286 120V109.431H95.9106V115.583H95.9473L99.0381 112.295H100.898L97.7344 115.62L101.023 120H99.1846L96.5698 116.572L95.9106 117.224V120H94.3286ZM102.671 111.108C102.158 111.108 101.748 110.698 101.748 110.2C101.748 109.695 102.158 109.285 102.671 109.285C103.191 109.285 103.594 109.695 103.594 110.2C103.594 110.698 103.191 111.108 102.671 111.108ZM101.88 120V112.295H103.462V120H101.88ZM105.095 120V112.295H106.677V113.459H106.714C107.117 112.676 107.908 112.148 109.072 112.148C110.764 112.148 111.738 113.24 111.738 115.012V120H110.149V115.312C110.149 114.155 109.607 113.503 108.508 113.503C107.395 113.503 106.677 114.309 106.677 115.51V120H105.095ZM116.646 122.717C114.668 122.717 113.416 121.802 113.181 120.623L113.174 120.557H114.741L114.771 120.615C114.983 121.106 115.649 121.443 116.638 121.443C117.898 121.443 118.594 120.769 118.594 119.692V118.638H118.557C118.118 119.473 117.239 120.007 116.133 120.007C114.199 120.007 112.925 118.491 112.925 116.089V116.082C112.925 113.665 114.214 112.148 116.169 112.148C117.253 112.148 118.103 112.734 118.557 113.606H118.594V112.295H120.183V119.788C120.183 121.545 118.821 122.717 116.646 122.717ZM116.58 118.718C117.788 118.718 118.594 117.7 118.594 116.111V116.104C118.594 114.521 117.781 113.503 116.58 113.503C115.327 113.503 114.543 114.514 114.543 116.104V116.111C114.543 117.722 115.327 118.718 116.58 118.718Z" fill="black"/>
<circle cx="151.5" cy="2.5" r="30.5" fill="#FFCBCB"/>
<circle cx="3.5" cy="139.5" r="30.5" fill="#FFCBCB"/>
<path d="M150.787 89.8394C150.787 89.8394 131.192 66.3226 118.862 62.7147C106.531 59.1067 118.154 73.4325 118.154 73.4325C118.154 73.4325 96.4638 52.5936 88.2503 53.769C79.2623 55.0565 86.0745 66.3469 86.0745 66.3469C86.0745 66.3469 79.9629 61.5332 69.9156 61.5332C59.8682 61.5332 77.6833 89.3093 77.6833 89.3093L150.787 89.8394Z" fill="#C9E1FF"/>
<path d="M86.574 89.3084C86.574 89.3084 74.8604 56.9459 58.2724 60.6872C44.8323 63.7165 54.3902 80.0053 53.5789 79.2661C52.7676 78.527 45.5397 67.4729 33.8764 67.4729C22.2132 67.4729 37.4569 82.3924 37.4569 82.3924C37.4569 82.3924 12.605 75.3795 10.6572 82.7438C9.0413 88.857 18.0762 89.3115 18.0762 89.3115L86.574 89.3084Z" fill="#A9D0FF"/>
<path d="M104.959 72.7618C109.231 76.5343 112.83 80.8813 115.63 85.6486C116.405 86.9936 117.062 88.375 117.736 89.7594C117.826 89.9412 118.171 89.8109 118.098 89.62C118.024 89.4292 117.947 89.2414 117.87 89.0505C117.826 88.9415 117.601 88.9475 117.622 89.0808C117.652 89.2777 117.679 89.4716 117.709 89.6685L118.098 89.62C117.002 87.1153 115.639 84.7128 114.028 82.4466C109.334 75.6608 104.476 72.3376 104.959 72.7708V72.7618Z" fill="#006322"/>
<path d="M104.231 74.4665C104.565 74.2217 104.952 74.0441 105.368 73.9455C105.741 73.8747 106.128 73.8872 106.494 73.9818C106.205 73.7018 105.842 73.4932 105.438 73.376C104.801 73.1609 103.896 73.2457 103.584 73.4608C102.887 73.8243 102.776 74.5089 103.095 74.6725C103.413 74.8361 103.862 74.6422 104.231 74.4665Z" fill="#006322"/>
<path d="M106.102 85.8518C106.392 85.6824 106.719 85.5728 107.061 85.5307C107.366 85.5033 107.673 85.5449 107.956 85.6519C107.756 85.4014 107.488 85.2013 107.178 85.0703C106.949 84.9672 106.699 84.9063 106.444 84.8912C106.188 84.8761 105.932 84.9071 105.69 84.9824C105.096 85.2126 104.939 85.7519 105.18 85.8912C105.422 86.0306 105.79 85.9518 106.102 85.8518Z" fill="#006322"/>
<path d="M9.50504 59.1664C10.1139 59.53 10.6962 59.9287 11.2483 60.3599C14.3091 62.5562 17.4169 64.6828 21.641 69.145C27.2552 75.0414 31.4865 81.9062 34.0787 89.3235C34.1692 89.587 34.6352 89.4749 34.5413 89.2084C32.8605 84.4357 30.4936 79.883 27.5011 75.6672C19.4552 64.2829 9.39776 59.1027 9.50168 59.1603L9.50504 59.1664Z" fill="#006322"/>
<path d="M24.7478 60.5383C25.4183 64.5522 27.7416 68.1632 29.3407 71.9105C33.6151 81.9346 34.3158 89.5685 34.7047 90.4137C34.712 90.4308 34.7255 90.4451 34.743 90.4544C34.7605 90.4637 34.7809 90.4674 34.801 90.465C34.8211 90.4625 34.8398 90.4541 34.8539 90.4409C34.868 90.4278 34.8769 90.4107 34.879 90.3925C34.9863 89.6079 34.0442 84.1096 32.197 78.3932C29.0926 68.8872 25.8608 65.1732 24.8886 60.505C24.8685 60.4171 24.7277 60.4565 24.7411 60.5413L24.7478 60.5383Z" fill="#006322"/>
<path d="M14.5834 59.372C14.4694 59.581 13.9934 60.1445 13.9129 60.817C13.8424 61.2814 13.9023 61.7544 14.0873 62.1923C13.6304 61.876 13.2713 61.4587 13.0446 60.9806C12.6524 60.2233 12.6826 59.1054 12.9675 58.7025C13.4335 57.7937 14.4527 57.6029 14.7108 57.9755C14.969 58.3481 14.808 58.9025 14.5834 59.372Z" fill="#006322"/>
<path d="M21.5897 65.7268C21.3163 66.1955 21.1595 66.7124 21.1304 67.2415C21.1201 67.708 21.2424 68.169 21.4857 68.5805C20.988 68.315 20.5763 67.9357 20.2922 67.4808C19.8061 66.775 19.6888 65.6632 19.9201 65.2361C20.2554 64.3031 21.241 63.988 21.5461 64.3273C21.8511 64.6666 21.7506 65.2391 21.5897 65.7268Z" fill="#006322"/>
<path d="M30.5072 68.861C30.0851 68.9334 29.6858 69.0885 29.3372 69.3154C29.0349 69.5253 28.7972 69.8017 28.6466 70.1181C28.5865 69.7363 28.6373 69.3469 28.7941 68.9882C29.0221 68.4096 29.6758 67.834 30.058 67.7553C30.8123 67.5038 31.466 67.8704 31.399 68.1854C31.3319 68.5005 30.8927 68.7186 30.5072 68.861Z" fill="#006322"/>
<path d="M31.3952 70.8052C30.9723 70.8783 30.572 71.0333 30.2218 71.2596C29.9206 71.4718 29.6832 71.7488 29.5312 72.0654C29.4713 71.6833 29.5234 71.2937 29.682 70.9355C29.9067 70.3538 30.5604 69.7813 30.9426 69.7025C31.6969 69.4511 32.3506 69.8146 32.2836 70.1327C32.2165 70.4508 31.7807 70.678 31.3952 70.8052Z" fill="#006322"/>
<path d="M11.6159 63.5342C11.8896 63.1168 12.2616 62.759 12.7054 62.486C13.109 62.2555 13.57 62.1201 14.0464 62.0922C13.5739 61.8671 13.0449 61.7564 12.511 61.7711C11.6594 61.7711 10.6336 62.2134 10.3687 62.586C9.72171 63.2797 9.91951 64.1279 10.3687 64.1825C10.818 64.237 11.2672 63.8795 11.6159 63.5342Z" fill="#006322"/>
<path d="M15.9043 67.1095C16.178 66.6922 16.55 66.3343 16.9939 66.0614C17.3974 65.8309 17.8585 65.6955 18.3349 65.6676C17.862 65.4439 17.3328 65.3353 16.7994 65.3525C15.9512 65.3525 14.9254 65.7948 14.6605 66.1674C14.0102 66.8611 14.208 67.7093 14.6605 67.7639C15.1131 67.8184 15.5557 67.473 15.9043 67.1095Z" fill="#006322"/>
<path d="M23.5141 63.901C24.0488 63.8583 24.5873 63.9203 25.0931 64.0827C25.5361 64.2424 25.9271 64.5008 26.2296 64.834C26.1567 64.3561 25.9463 63.9038 25.6194 63.5223C25.1266 62.8952 24.1209 62.4105 23.6314 62.4348C22.6257 62.3681 21.9854 63.0103 22.1999 63.3648C22.4145 63.7192 22.9945 63.8525 23.5141 63.901Z" fill="#006322"/>
<path d="M24.767 66.6496C25.3026 66.6042 25.8426 66.6652 26.3494 66.8283C26.7923 66.988 27.1833 67.2464 27.4858 67.5796C27.4125 67.1017 27.2022 66.6496 26.8757 66.2679C26.3829 65.6438 25.3771 65.1561 24.8877 65.1803C23.8819 65.1137 23.2383 65.7559 23.4528 66.1134C23.6674 66.4709 24.2507 66.5981 24.767 66.6496Z" fill="#006322"/>
<path d="M21.361 72.6223C21.6368 72.2063 22.0084 71.8488 22.4505 71.5741C22.8545 71.3443 23.3153 71.209 23.7915 71.1803C23.3206 70.9542 22.7924 70.8435 22.2594 70.8592C21.4079 70.8592 20.3821 71.3015 20.1172 71.6741C19.4702 72.3678 19.6646 73.216 20.1172 73.2705C20.5698 73.3251 21.0123 72.9706 21.361 72.6223Z" fill="#006322"/>
<path d="M9.08793 60.5601C9.32271 60.3326 9.60842 60.1529 9.92605 60.033C10.2131 59.9379 10.5216 59.9078 10.8245 59.9452C10.4939 59.7002 10.0862 59.5557 9.6594 59.5324C9.23263 59.509 8.80857 59.6078 8.44761 59.8149C7.93803 60.1754 7.93803 60.7237 8.20958 60.8176C8.48113 60.9115 8.81973 60.7388 9.08793 60.5601Z" fill="#006322"/>
<path d="M10.227 58.3068C10.1664 58.6086 10.179 58.9187 10.2639 59.2157C10.3502 59.4805 10.5093 59.7213 10.7265 59.9154C10.3933 59.8454 10.086 59.6982 9.83478 59.4883C9.64304 59.335 9.48661 59.1491 9.37444 58.9412C9.26227 58.7333 9.19655 58.5074 9.18105 58.2766C9.18105 57.6919 9.68392 57.3678 9.9253 57.5011C10.1667 57.6343 10.2203 58.0069 10.227 58.3068Z" fill="#006322"/>
<path d="M1.62822 78.2934C7.57551 79.9384 12.7216 83.3312 17.6698 86.6271C21.0223 88.8477 20.7273 89.2718 21.4246 89.6353C21.4505 89.649 21.4804 89.6553 21.5104 89.6536C21.5403 89.6518 21.569 89.642 21.5928 89.6254C21.6166 89.6088 21.6343 89.5862 21.6438 89.5604C21.6532 89.5347 21.6539 89.5069 21.6459 89.4808C21.4682 88.9173 20.7843 88.4387 20.3049 88.054C19.7643 87.606 19.1969 87.1854 18.6052 86.7938C17.348 85.9486 16.0405 85.1579 14.7431 84.3703C12.1335 82.708 9.38647 81.2294 6.52619 79.9474C4.947 79.2632 3.30758 78.6988 1.62487 78.2601C1.5947 78.2601 1.58129 78.2934 1.62487 78.3025L1.62822 78.2934Z" fill="#006322"/>
<path d="M7.45546 77.5329C7.18349 77.9966 7.02675 78.5084 6.99617 79.0324C6.98911 79.4986 7.11128 79.9589 7.35153 80.3714C6.85818 80.1085 6.44826 79.7349 6.16141 79.2869C5.6753 78.5811 5.55796 77.4693 5.78928 77.0391C6.12453 76.1091 7.11351 75.7941 7.41523 76.1303C7.71695 76.4666 7.61973 77.0452 7.45546 77.5329Z" fill="#006322"/>
<path d="M12.4482 80.1956C12.1747 80.6588 12.0178 81.1709 11.9889 81.6952C11.9748 82.1608 12.09 82.6222 12.3241 83.0372C11.8309 82.7638 11.4244 82.3798 11.1441 81.9224C10.658 81.2165 10.5406 80.1048 10.7719 79.6776C11.1072 78.7446 12.0962 78.4295 12.4012 78.7688C12.7063 79.1081 12.6057 79.6928 12.4482 80.1956Z" fill="#006322"/>
<path d="M17.422 83.304C17.1461 83.7717 16.9892 84.2892 16.9627 84.8186C16.9483 85.2833 17.0636 85.7438 17.298 86.1576C16.806 85.8838 16.4006 85.4998 16.1212 85.0428C15.6351 84.3339 15.5178 83.2252 15.7491 82.795C16.0844 81.862 17.0901 81.55 17.3784 81.8862C17.6667 82.2225 17.5829 82.8162 17.422 83.304Z" fill="#006322"/>
<path d="M4.91378 81.7735C5.18752 81.3561 5.55949 80.9983 6.00334 80.7253C6.40707 80.4952 6.86801 80.3598 7.34433 80.3315C6.87209 80.1057 6.34289 79.9951 5.80889 80.0104C4.96072 80.0104 3.93486 80.4527 3.67001 80.8253C3.01963 81.519 3.21743 82.3672 3.67001 82.4218C4.1226 82.4763 4.56512 82.1219 4.91378 81.7735Z" fill="#006322"/>
<path d="M10.1043 84.5099C10.3796 84.0928 10.7512 83.7342 11.1938 83.4587C11.5984 83.2307 12.059 83.0964 12.5348 83.0679C12.0636 82.8422 11.5358 82.7306 11.0027 82.7438C10.1512 82.7438 9.12536 83.1891 8.86052 83.5586C8.21349 84.2554 8.40793 85.1036 8.86052 85.1551C9.3131 85.2066 9.75563 84.8582 10.1043 84.5099Z" fill="#006322"/>
<path d="M1.06252 79.2143C1.29661 78.986 1.58251 78.8062 1.90064 78.6871C2.18771 78.5921 2.49617 78.5619 2.7991 78.5993C2.53574 78.402 2.2205 78.2695 1.88388 78.2146C1.633 78.1673 1.37421 78.1658 1.12266 78.21C0.871111 78.2542 0.63184 78.3433 0.418844 78.4721C-0.0907321 78.8295 -0.0907318 79.3809 0.180819 79.4717C0.452369 79.5626 0.790969 79.393 1.06252 79.2143Z" fill="#006322"/>
<path d="M2.19929 76.9608C2.14047 77.2626 2.15304 77.5724 2.23616 77.8696C2.32298 78.1349 2.48338 78.3758 2.70216 78.5693C2.36837 78.5006 2.06068 78.3532 1.8104 78.1422C1.61737 77.9899 1.46006 77.8043 1.34778 77.5961C1.2355 77.388 1.17051 77.1616 1.15667 76.9304C1.15667 76.3488 1.65954 76.0216 1.89756 76.158C2.13559 76.2943 2.19594 76.6608 2.19929 76.9608Z" fill="#006322"/>
<path d="M165.358 89.1355H4.77429C4.58336 89.147 4.40441 89.2237 4.27369 89.35C4.14297 89.4763 4.07024 89.6427 4.07024 89.8156C4.07024 89.9885 4.14297 90.155 4.27369 90.2812C4.40441 90.4075 4.58336 90.4842 4.77429 90.4957H165.358C165.536 90.4714 165.699 90.3901 165.817 90.2664C165.935 90.1427 166 89.9849 166 89.8217C166 89.6585 165.935 89.5007 165.817 89.377C165.699 89.2533 165.536 89.1719 165.358 89.1476V89.1355Z" fill="white"/>
<path d="M45.7836 83.2772C45.7836 83.2772 46.0518 85.9339 45.8741 86.8033C45.8386 86.9473 45.7927 87.0889 45.7367 87.2274C45.5556 87.7152 46.0551 89.1995 46.0551 89.1995L52.7601 89.2207C53.1255 89.2207 52.8808 89.0117 52.5858 88.8209C52.0997 88.5179 51.7074 88.2998 50.1586 87.6455C50.058 87.6031 49.6892 87.3971 49.5551 87.3244C49.1947 87.1163 48.8685 86.8634 48.5863 86.5731C48.0968 86.0945 48.023 83.7497 48.023 83.7497L45.7836 83.2772Z" fill="#FFCBC3"/>
<path d="M49.5555 87.3241C48.3048 87.6645 46.9662 87.6327 45.7371 87.2332C45.5527 87.7179 45.2107 89.3538 45.4018 89.3538C47.078 89.3538 48.5062 89.6567 53.3237 89.5719C53.498 89.5719 53.4779 89.0357 53.3639 88.9175C53.0656 88.5964 49.6963 87.3968 49.5555 87.3241Z" fill="#DD4A00"/>
<path d="M37.3737 51.7192C37.3737 51.7192 37.4676 55.515 38.6711 57.9445C39.8445 60.3105 45.4565 66.151 46.9484 69.559C46.4858 71.4797 45.2185 74.1818 45.3124 76.3145C45.4163 78.738 45.2587 85.1147 45.2587 85.1147L48.276 85.2026L52.2252 68.7169L46.2712 50.9286L43.5691 46.6087L37.3737 51.7192Z" fill="#14473B"/>
<path d="M24.507 79.4963C24.507 79.4963 22.6564 81.7895 21.825 82.3712C21.3892 82.6741 20.2024 83.0982 20.0784 83.6102C19.9543 84.1221 25.4423 88.6692 25.4423 88.6692C25.734 88.9024 25.7005 88.5783 25.6133 88.236C25.4691 87.6786 25.3183 87.2635 24.5874 85.758C24.5405 85.661 24.4064 85.2642 24.3561 85.1218C24.231 84.7278 24.1667 84.32 24.165 83.9101C24.1483 83.2163 25.9083 81.2988 25.9083 81.2988L24.507 79.4963Z" fill="#FFCBC3"/>
<path d="M24.3762 85.1221C23.1125 84.5999 22.0678 83.7249 21.3958 82.6259C20.8762 82.8986 19.4681 83.4772 19.5922 83.6407C20.5644 84.9131 21.5701 86.4974 25.4724 89.4995C25.6132 89.6055 26.1865 88.9875 26.1865 88.8209C26.1932 88.3756 24.4265 85.2645 24.3762 85.1221Z" fill="#DD4A00"/>
<path d="M46.6589 24.5623C46.1393 21.5027 43.0751 19.3034 39.8702 20.7878C39.0351 21.1898 38.2904 21.7292 37.6743 22.3782C36.3065 23.9656 35.9746 25.9316 34.523 27.4584C33.2725 28.7762 29.9334 28.5277 28.3745 29.5395C27.5257 30.1233 26.8424 30.8809 26.3808 31.7498C25.9192 32.6188 25.6925 33.5744 25.7194 34.538C25.7194 36.9614 26.3262 39.5455 28.4013 41.0814C30.4765 42.6172 33.4301 42.9989 36.0349 42.3476C38.6398 41.6963 40.8457 40.1029 42.4415 38.152C44.0158 36.2077 45.2108 34.0347 45.975 31.7267C46.7815 29.4128 47.0149 26.9669 46.6589 24.5623Z" fill="#2C2524"/>
<path d="M34.9457 28.7152C34.9457 28.7152 31.0132 22.3687 30.0544 21.0207C29.0956 19.6726 26.6047 14.3107 26.5142 14.1017C26.4237 13.8926 28.2307 11.354 27.8284 11.2662C27.4261 11.1783 26.9802 12.6021 26.5477 12.4325C26.1153 12.2629 24.8715 8.83363 24.6167 9.00631C24.1574 9.32439 25.2872 11.1269 25.0492 11.245C24.8112 11.3631 24.0636 9.25471 23.5842 9.31833C23.1048 9.38194 24.4994 11.245 24.3653 11.4116C24.2312 11.5782 22.7829 9.81817 22.5214 10.1999C22.3806 10.4059 23.8624 11.7357 23.5674 11.86C23.2724 11.9842 21.975 11.1268 21.8375 11.3753C21.7001 11.6237 23.0478 11.9599 23.4534 12.6294C23.8591 13.2989 24.543 13.5867 24.8279 14.8227C25.1129 16.0586 25.542 20.539 27.0037 22.7716C28.4654 25.0043 31.6971 29.9482 31.6971 29.9482L34.9457 28.7152Z" fill="#FFCBC3"/>
<path d="M58.46 53.7164C58.0275 53.3801 57.119 52.6379 57.186 52.5622C57.2531 52.4865 57.699 52.5349 57.8264 52.5774C57.9538 52.6198 58.1113 52.6622 58.2387 52.7076C58.3046 52.7272 58.3763 52.723 58.4388 52.6959C58.5013 52.6688 58.5497 52.6209 58.574 52.5622C58.6477 52.4198 58.1784 52.1442 57.994 52.0775C57.209 51.8639 56.4109 51.6919 55.6037 51.5625C55.3992 51.5201 53.0525 48.9361 52.1707 48.1091C50.7728 46.7156 49.4117 45.2191 49.2642 45.0797L45.439 37.7851L41.9423 38.0183C41.9423 38.0183 46.0692 46.1551 46.3441 46.5399C46.4682 46.7247 49.9849 49.7267 49.9883 49.7237C51.8221 51.1051 53.4447 52.3168 53.7464 52.5561C53.7464 52.5561 54.4437 53.4983 54.846 54.1193C55.0884 54.4681 55.3854 54.7834 55.7277 55.0554C56.4519 54.4495 57.3738 54.2829 58.232 53.8679C58.2991 53.8194 58.3829 53.7709 58.46 53.7164Z" fill="#FFCBC3"/>
<path d="M43.7631 32.1692C43.7631 32.1692 46.4652 33.3355 47.7861 40.5999L43.2033 41.754L41.3158 37.0737L43.7631 32.1692Z" fill="#F37458"/>
<path d="M37.5844 49.2781C37.5844 49.2781 35.2578 52.4377 34.7013 55.0551C34.1615 57.6027 35.06 65.2912 34.1213 68.8568C32.5255 70.1957 29.7631 71.7528 28.4992 73.5462C27.0509 75.5789 22.8738 80.7348 22.8738 80.7348L25.2875 82.3646L38.969 70.8985L44.5106 55.6003L46.4215 51.1139L37.5844 49.2781Z" fill="#14473B"/>
<path d="M39.4681 31.2962C39.4681 31.2962 36.3872 31.1205 35.1669 32.3322C33.9466 33.544 37.8723 43.0167 38.0936 44.5405C38.3149 46.0643 36.2866 49.0936 36.2866 49.0936C36.2866 49.0936 44.7717 52.6804 46.8436 51.4444C46.8436 51.4444 46.5083 39.2179 46.2904 38.1153C46.0725 37.0126 44.2186 32.5928 43.776 32.1565C43.3335 31.7203 39.4681 31.2962 39.4681 31.2962Z" fill="#DD4A00"/>
<path d="M40.4971 27.5819L40.4502 27.8031C40.3128 28.4726 39.7797 30.69 39.4445 31.2989C39.012 32.0351 40.9229 34.3828 42.7634 34.098C43.3099 34.0132 42.3008 31.9381 42.3477 31.72C42.4416 31.2989 42.5656 30.7264 42.683 30.1357C42.7567 29.8055 42.8305 29.4692 42.8975 29.1542L43.2562 27.5183L40.4971 27.5819Z" fill="#F8A592"/>
<path d="M40.4512 27.8031L40.4981 27.5819L43.2539 27.5183L42.8952 29.1542C42.8281 29.4571 42.7544 29.8024 42.6806 30.1326C42.187 30.0497 41.7305 29.8392 41.3664 29.5268C40.9084 29.168 40.5617 28.7076 40.3607 28.1908C40.4009 28.0424 40.4311 27.9061 40.4512 27.8031Z" fill="#DB7E69"/>
<path d="M42.352 21.9297C41.9529 21.9024 41.5524 21.9622 41.1843 22.104C40.8162 22.2458 40.4911 22.4655 40.2366 22.7446C39.4219 23.6958 38.5603 26.6342 40.5718 28.2307C42.5833 29.8272 44.5948 28.0217 44.8898 26.1102C45.1848 24.1986 45.2988 21.863 42.352 21.9297Z" fill="#F8A592"/>
<path d="M45.4852 26.0734C45.2438 26.4975 44.8382 26.7338 44.58 26.5974C44.3219 26.4611 44.3085 26.0128 44.5499 25.5887C44.7912 25.1645 45.1969 24.9313 45.455 25.0646C45.7132 25.1979 45.7266 25.6674 45.4852 26.0734Z" fill="#F8A592"/>
<path d="M42.4948 21.618C42.4948 21.618 40.7615 24.411 39.5178 24.5413C38.274 24.6716 38.1131 26.1529 38.1131 26.1529C38.1131 26.1529 38.5556 22.7328 39.7893 22.0724C40.6184 21.6742 41.5627 21.5156 42.4948 21.618Z" fill="#2C2524"/>
<path d="M39.8443 25.2409C39.9449 25.7377 39.7437 26.1921 39.3917 26.2587C39.0397 26.3254 38.6743 25.974 38.5704 25.4771C38.4664 24.9803 38.6743 24.5259 39.0263 24.4623C39.3783 24.3987 39.7437 24.7592 39.8443 25.2409Z" fill="#F8A592"/>
<path d="M33.8424 26.6582C33.8424 26.6582 38.2006 30.8781 38.841 32.5806C39.4813 34.2831 38.2107 36.7126 36.4473 36.8217C34.6839 36.9307 30.7481 29.3331 30.7481 29.3331L33.8424 26.6582Z" fill="#FFA16F"/>
<path d="M82.215 62.5566L81.9032 63.5715L83.7907 64.1107L83.8544 63.6866L82.215 62.5566ZM82.3022 63.4927L82.4765 63.0353L83.5828 63.7714L82.3022 63.4927Z" fill="#34548A"/>
<path d="M88.525 59.0668L87.9149 56.5676L84.2472 58.6245L86.3459 60.1392C86.3459 60.1392 87.003 58.6094 88.525 59.0668Z" fill="#F37458"/>
<path d="M64.6355 68.3339C64.6355 68.3339 60.398 70.0454 55.7112 72.1629C51.0245 74.2805 49.898 74.0775 49.2208 73.4656C48.5436 72.8536 48.5 71.4904 48.5 71.4904C48.1675 71.9786 47.9479 72.5226 47.8545 73.0896C47.7612 73.6567 47.796 74.2349 47.9569 74.7894C48.5235 76.6434 50.1461 76.6646 50.1461 76.6646L51.3161 76.0314L50.5484 77.2734C51.0844 77.4913 51.683 77.5501 52.2583 77.4412C52.8336 77.3324 53.3558 77.0615 53.75 76.6676C55.2922 75.271 55.6207 74.3865 55.6207 74.3865C55.6207 74.3865 55.0105 76.5434 54.4037 77.0947C54.4037 77.0947 56.1169 77.7854 57.1293 76.5434C57.7901 75.6813 58.2854 74.7248 58.5943 73.714L58.2122 76.6252C58.2122 76.6252 59.7878 76.0769 60.6461 73.817L60.1935 75.9557C61.1868 74.6669 61.9441 73.2421 62.4363 71.7358C63.0833 69.5153 64.4478 69.273 64.4478 69.273L64.6355 68.3339Z" fill="#884E31"/>
<path d="M72.7123 75.7976C72.7123 75.7976 72.8665 80.478 69.38 82.1926C68.5318 82.6106 67.1673 84.1283 67.4355 84.9644C67.7037 85.8005 69.7822 87.3879 69.7822 87.3879C70.2579 87.4506 70.7055 87.6297 71.0766 87.9057C71.4477 88.1818 71.7281 88.5443 71.8876 88.954C71.9915 89.1903 71.5222 89.1298 71.5222 89.1298H67.8345L64.6496 84.2616L64.8642 81.211L66.9393 76.458L70.9053 75.8885L72.7123 75.7976Z" fill="#884E31"/>
<path d="M90.1438 72.859C90.1438 72.859 94.8774 79.2873 95.9134 80.6838C96.3619 81.3453 96.6105 82.1015 96.6342 82.877C96.6342 82.877 96.4297 84.834 96.0039 85.2218C95.9137 85.2905 95.8049 85.3365 95.6888 85.3551C95.4401 85.4083 95.1804 85.4018 94.9354 85.3363C94.6904 85.2708 94.4686 85.1485 94.2921 84.9817C94.1155 84.8148 93.9903 84.6091 93.9289 84.3849C93.8675 84.1608 93.8721 83.9261 93.9421 83.7041C94.0643 83.369 94.1507 83.024 94.2003 82.6741C94.2003 82.2257 93.9723 82.1864 93.9723 82.1864L88.7458 79.4599L87.0327 74.9341L90.1438 72.859Z" fill="#884E31"/>
<path d="M86.7115 74.279L85.8532 80.3953L86.2589 87.3628C86.2589 87.3628 87.9351 87.7293 88.4212 88.5018C88.9073 89.2743 88.8269 89.4106 88.8269 89.4106H84.8609C84.8609 89.4106 81.6157 82.4431 81.6157 81.6616C81.6157 80.88 80.7608 76.5722 80.7608 76.0027C80.7608 75.4332 81.3006 72.8764 83.1947 72.6704C85.0889 72.4644 86.7115 74.279 86.7115 74.279Z" fill="#A05646"/>
<path d="M92.2062 58.0825L91.1837 56.8344C91.1837 56.8344 87.8312 55.965 86.3763 57.2706C85.8016 57.7647 85.3916 58.3944 85.1928 59.0883C85.0878 59.7553 85.0485 60.4294 85.0755 61.1028C85.0871 61.8535 84.8973 62.5957 84.5223 63.2657C83.8518 64.1745 81.1162 66.0982 80.0233 66.3405L80.791 66.2496C79.9441 66.6558 79.0427 66.9613 78.109 67.1584C73.372 67.8309 66.2279 67.9521 64.6355 68.3702C62.7447 68.8579 61.5948 73.9078 62.1144 76.4525C62.634 78.9971 58.7619 77.9671 57.8467 79.6242C56.9683 81.1752 60.3443 88.3214 60.3443 88.3214C60.3443 88.3214 61.2193 89.2817 61.3768 89.4241H65.192C65.192 89.4241 65.0713 87.1975 63.1637 86.628C61.2562 86.0585 61.5277 82.3869 61.5277 82.3869C61.5277 82.3869 66.9822 83.0655 69.6843 79.8635C71.7662 77.3946 71.5684 76.7312 71.3605 76.5585C72.3663 77.0583 79.3293 80.4663 82.8394 79.8635C86.6243 79.2122 87.8245 77.1371 87.8245 77.1371L87.5697 78.6275C87.5697 78.6275 90.1176 77.7945 89.8695 75.9193C89.9944 76.0116 90.0945 76.1282 90.1625 76.2604C90.2304 76.3926 90.2643 76.537 90.2618 76.6827C90.2618 76.6827 91.3681 75.3982 91.3681 71.3268C91.3681 69.0548 91.2776 63.299 91.2776 63.299C91.2776 63.299 95.8034 62.5478 96.3901 62.0176C96.7924 61.6571 97.3154 59.0186 97.3154 59.0186L92.2062 58.0825Z" fill="#A05646"/>
<path d="M84.244 58.6322C84.244 58.6322 85.1592 60.4225 86.1046 60.6921C87.05 60.9618 87.9149 56.5662 87.9149 56.5662C87.4876 56.4414 87.0301 56.4281 86.5948 56.5278C86.1595 56.6275 85.7642 56.8361 85.4542 57.1296C85.0092 57.602 84.6046 58.1043 84.244 58.6322Z" fill="#884E31"/>
<path d="M87.1475 75.3498C86.0144 76.5342 87.0536 75.4467 86.2792 76.2586C86.1183 74.8227 86.6145 73.0293 87.0335 71.6085C86.3295 72.2901 85.3908 73.6503 84.9483 74.2289C85.7462 72.9838 85.545 70.5937 85.3875 69.1699C85.3875 69.1699 84.4655 70.1544 84.0901 70.5604C84.0163 69.9212 83.8923 68.5065 84.1336 67.8854C84.375 67.2644 85.1025 66.5041 85.6389 66.0406C85.0388 66.492 84.2979 67.1887 83.9995 67.84C83.5973 68.7488 83.8889 70.9572 83.8956 71.1147C85.2366 69.7424 84.3214 70.6785 85.1629 69.8121C85.25 71.0026 85.3808 73.4776 84.7673 74.4622C85.488 74.0502 86.1686 73.1595 86.5843 72.4779C85.5015 75.0044 86.2021 76.4858 86.2055 76.5251L87.1207 75.4528C87.1903 75.664 87.2419 75.8797 87.2749 76.098C87.2749 76.0283 87.1877 75.5194 87.1475 75.3498Z" fill="#2C2524"/>
<path d="M84.1937 63.0357L83.5802 64.1959C83.5802 64.1959 84.1669 68.1341 91.3211 67.6948L91.5557 66.0287C91.5557 66.0287 85.0318 65.8227 84.1937 63.0357Z" fill="#194655"/>
<path d="M61.4306 53.9913L61.2015 54.4229L82.2467 63.5423L82.4758 63.1107L61.4306 53.9913Z" fill="#194655"/>
<path d="M61.5376 54.2707L60.9643 53.7375L57.6856 52.6591L53.9811 54.2707L58.2957 58.2179L58.6075 57.2576L55.8987 54.8281L58.051 53.5527L58.3695 53.7224L59.4892 54.3101L61.5376 54.2707Z" fill="#FFA16F"/>
<path d="M63.6871 56.4697C63.6877 57.014 63.5097 57.5462 63.1755 57.999C62.8412 58.4518 62.3658 58.8049 61.8095 59.0134C61.2531 59.222 60.6408 59.2767 60.05 59.1707C59.4592 59.0647 58.9165 58.8026 58.4906 58.4178C58.0646 58.0329 57.7747 57.5425 57.6573 57.0086C57.54 56.4748 57.6005 55.9215 57.8313 55.4187C58.0621 54.916 58.4528 54.4864 58.9539 54.1844C59.455 53.8824 60.044 53.7215 60.6464 53.7221C61.4525 53.7229 62.2254 54.0127 62.7955 54.5278C63.3655 55.0429 63.6862 55.7413 63.6871 56.4697Z" fill="#DD4A00"/>
<path d="M62.1914 56.4354C62.1914 56.7349 62.0931 57.0278 61.9089 57.2769C61.7247 57.5259 61.4629 57.7201 61.1566 57.8347C60.8503 57.9494 60.5133 57.9794 60.1881 57.9209C59.863 57.8625 59.5643 57.7182 59.3299 57.5064C59.0954 57.2946 58.9358 57.0247 58.8711 56.7309C58.8064 56.437 58.8396 56.1325 58.9665 55.8557C59.0934 55.5789 59.3082 55.3424 59.5839 55.176C59.8595 55.0095 60.1836 54.9207 60.5151 54.9207C60.9597 54.9207 61.3861 55.0803 61.7004 55.3643C62.0148 55.6484 62.1914 56.0336 62.1914 56.4354Z" fill="#FFA16F"/>
<path d="M57.6024 51.8803C57.6024 51.8803 58.5445 53.4646 58.4473 53.7615C58.3936 53.9251 56.9118 54.8672 56.0469 54.8672C55.182 54.8672 56.2112 53.189 56.3821 53.3525C56.5531 53.5161 56.4458 53.8948 56.4458 53.8948C56.4458 53.8948 56.6034 52.7376 56.8113 52.5498C57.0191 52.3619 57.0962 52.7588 57.0962 52.7588C57.0962 52.7588 56.7878 51.7742 57.0962 51.6834C57.1928 51.6607 57.295 51.6678 57.3867 51.7034C57.4783 51.7391 57.5543 51.8013 57.6024 51.8803Z" fill="#FFCBC3"/>
</g>
<defs>
<clipPath id="clip0_1_876">
<rect width="166" height="140" rx="30" fill="white"/>
</clipPath>
</defs>
</svg>
